<mxfile host="app.diagrams.net" modified="2023-03-30T11:56:43.143Z" agent="Mozilla/5.0 (Windows NT 10.0; Win64; x64; rv:109.0) Gecko/20100101 Firefox/111.0" etag="gegLiXZ0ZTA3UeG9ucY-" version="21.1.1" type="device">
  <diagram id="6a731a19-8d31-9384-78a2-239565b7b9f0" name="Page-1">
    <mxGraphModel dx="1001" dy="769" grid="1" gridSize="10" guides="1" tooltips="1" connect="1" arrows="1" fold="1" page="1" pageScale="1" pageWidth="1169" pageHeight="827" background="#979797" math="0" shadow="0">
      <root>
        <mxCell id="0" />
        <mxCell id="1" parent="0" />
        <mxCell id="_B3Qwy9VvxJ0sC0I_COQ-50" value="&lt;font style=&quot;font-size: 17px;&quot; color=&quot;#ffffff&quot;&gt;(&lt;/font&gt;x&lt;font style=&quot;font-size: 17px;&quot; color=&quot;#ffffff&quot;&gt;,&lt;/font&gt;&lt;font color=&quot;#99ff99&quot;&gt;y&lt;/font&gt;&lt;font style=&quot;font-size: 17px;&quot; color=&quot;#ffffff&quot;&gt;)&lt;/font&gt;" style="text;fontStyle=1;html=1;strokeColor=none;gradientColor=none;fillColor=none;strokeWidth=2;fontColor=#FFD966;fontSize=17;" vertex="1" parent="1">
          <mxGeometry x="960.5" y="60" width="48" height="26" as="geometry" />
        </mxCell>
        <mxCell id="_B3Qwy9VvxJ0sC0I_COQ-51" value="" style="endArrow=classic;html=1;rounded=0;strokeColor=#99FF99;strokeWidth=4;" edge="1" parent="1">
          <mxGeometry width="50" height="50" relative="1" as="geometry">
            <mxPoint x="980.5" y="90" as="sourcePoint" />
            <mxPoint x="980.5" y="350" as="targetPoint" />
          </mxGeometry>
        </mxCell>
        <mxCell id="_B3Qwy9VvxJ0sC0I_COQ-52" value="" style="endArrow=classic;html=1;rounded=0;strokeColor=#FFD966;strokeWidth=4;" edge="1" parent="1">
          <mxGeometry width="50" height="50" relative="1" as="geometry">
            <mxPoint x="980.5" y="90" as="sourcePoint" />
            <mxPoint x="1240.5" y="90" as="targetPoint" />
          </mxGeometry>
        </mxCell>
        <mxCell id="p1c2saggwYmDi9HayLSL-101" value="" style="shape=image;verticalLabelPosition=bottom;verticalAlign=top;imageAspect=0;aspect=fixed;image=data:image/png,iVBORw0KGgoAAAANSUhEUgAAAQAAAAEACAIAAADTED8xAAAJrUlEQVR4Ae3cP6hlVxXH8XnybAPGRrupxCCmsRrRdHY2IsFCg43YRDCklhTTpRECBkTsUsiQQgu7qVTwdU5hkSlT+SeQBJL2FeHmwnknwz33nnPv3uestfdn4N7Z79xz1l7r+5sv5933Z67euP/6PX8Q6JXAl3od3NwI7AgQYEfBo1sCBOg2eoPvCFzvnjwQqEng4fu/PVg+wvvPju8ABzNxsDMCBOgscON+kQABvsjDR50R8B6gs8DXGnf8ef9r/3w0bPvoyafD+uGrvxjWW70fcAcYIrDokQABekzdzAMBAgwoLHok4GeBeky90sxzPu+f2vq/G70fcAeYSsTxLggQoIuYDTlFgABTZBxvksCzQ/k+wLNEfFyEwPjr/UUKViriDlAJrLI5CBAgR066rESAAJXAKpuDgO8D5MgpXZfj7wl8/e0/Hux/q6/9j5vp6A4wHtsagT0BAuw5eO6UAAE6Dd7YewLeA+w5eK5IYPx+YLzNVr8DMO7BHWBMw7o7AgToIXIzThIgwCQaL/RAwHuAHlI24yQBd4BJNF7ogQABekjZjJMECDCJxgstEDg1g98HOEHo1396aTjj9vbdYR1tcX398tDSS7/687D+++9+NKwz9v/jD7869F9j4Q5Qg6qaaQgQIE1UGq1BgAA1qKqZhgAB0kSl0RoEGhagBi41WyNAgNYSNc8iAgRYhMvJrREgQGuJmmcRAQIswuXk1ggQoLVEd/N4zCZAgNmonNgiAT8LdCLVN5+8OJzxykdvDetoi3eev+vz3r27nwXK3n9tzu4AtQmrH5oAAULHo7naBAhQm7D6qxJYuhkBlhJzflMECNBUnIZZSoAAS4k5vykCBGgqTsMsJeD7AAuI/fLpT4az//DNR8N6zuKSa6fqj2t+/7tTZ90dH5+fsf+7ScqtGroDlIOiUj8ECNBP1iY9QIAAB6A41A8B/zfoiawff+8bJ86I9/In790MTT33woNhnWUx7t//C5QlNX2mJOBToJSxPdO0D88mQICz0bmwBQK+D3AixfHnoydODfly9v5rQ3UHqE1Y/dAECBA6Hs3VJkCA2oTVr0rg0uLeA5wgWPvr0Ce293JlAu4AlQErH5sAAWLno7vKBAhQGbDysQkQIHY+uqtMILEAlcko3wUBAnQRsyGnCBBgiozjXRAgQBcxG3KKAAGmyDjeBQECZIxZz8UIEKAYSoUyEiBAxtT0XIwAAYqhVCgjAQJkTE3PxQgQoBhKhdYgUHoPApQmql4qAgRIFZdmSxMgQGmi6qUiQIBUcWm2NAEClCaqXioCiQRIxVWzSQgQIElQ2qxDgAB1uKqahAABkgSlzToECFCHq6pJCBAgQ1B6rEaAANXQKpyBAAEypKTHagQIUA2twhkIECBDSnqsRoAA1dAqXIJA7RoEqE1Y/dAECBA6Hs3VJkCA2oTVD02AAKHj0VxtAgSoTVj90AQCCxCam+YaIUCARoI0xnkECHAeN1c1QoAAjQRpjPMIEOA8bq5qhAABIgapp9UIEGA11DaKSIAAEVPR02oECLAaahtFJECAiKnoaTUCBFgNtY3mEFj7HAKsTdx+oQgQIFQcmlmbAAHWJm6/UAQIECoOzaxNgABrE7dfKAKBBAjFRTOdECBAJ0Eb8zABAhzm4mgnBAjQSdDGPEyAAIe5ONoJAQJECFoPmxEgwGbobRyBAAEipKCHzQgQYDP0No5AgAARUtDDZgQIsBl6G+8IbP243roB+yNwjMBr//rNsZc/f+3xv7/y+d+7px98++PdX0cf4/PdAY6i8mLrBAjQesLmO0qAAEfxeLF1At4DtJ5w8vkePn18eoIv351y8/RuPbkanb/hHWCyPS8gsBoBAqyG2kYRCRAgYip6Wo2A9wCrobbROQQePfl0uOz+ze2wfv/B3T/dS467AwxILXokQIAtUrdnGAIECBOFRrYgcPXG/de32NeeCIQg4A4QIgZNbEWAAFuRt28IAgQIEUM/TUSblADREtHPqgQIsCpum0UjQIBoiehnVQIEWBW3zaIRIEC0RPSzKoEVBVh1LpshMIsAAWZhclKrBAjQarLmmkWAALMwOalVAgRoNVlzzSJAgFmYLjzJ5WEJECBsNBpbgwAB1qBsj7AECBA2Go2tQYAAa1C2R1gCBAgbTRuNRZ+CANET0l9VAgSoilfx6AQIED0h/VUlQICqeBWPToAA0RPSX1UCFQWo2rfiCBQhQIAiGBXJSoAAWZPTdxECBCiCUZGsBAiQNTl9FyFAgCIYnyniwzQECJAmKo3WIECAGlTVTEOAAGmi0mgNAgSoQVXNNAQIkCaqHI1m65IA2RLTb1ECBCiKU7FsBAiQLTH9FiVAgKI4FctGgADZEtNvUQIFBSjal2IIrEKAAKtgtklUAgSImoy+ViFAgFUw2yQqAQJETUZfqxAgQAnMaqQlQIC00Wm8BAEClKCoRloCBEgbncZLECBACYpqpCVAgLTRxWg8excEyJ6g/i8iQICL8Lk4OwECZE9Q/xcRIMBF+FycnQABsieo/4sIXCDARfu6GIEQBAgQIgZNbEWAAFuRt28IAgQIEYMmtiJAgK3I2zcEAQKcE4NrmiFAgGaiNMg5BAhwDjXXNEOAAM1EaZBzCBDgHGquaYYAAZqJcp1BWtuFAK0lap5FBAiwCJeTWyNAgNYSNc8iAgRYhMvJrREgQGuJmmcRgQUCLKrrZARSECBAipg0WYsAAWqRVTcFAQKkiEmTtQgQoBZZdVMQIMCcmJzTLAECNButweYQIMAcSs5plgABmo3WYHMIEGAOJec0S4AAzUZbZrDWq1x9ePOXYcbb23eH9dLF9fXLwyU/fPt/w/qvr35tWKu/R4HPnsP4eat/P+4A4xSsuyNAgO4iN/CYAAHGNKy7I3D95pMXh6Ff+eitYb108c7zd3Xu3bt7D6D+niQ+ew5Tz1vxOXIHmGrVcQTaIUCAdrI0yRkECHAGNJe0Q+Dqwc9+X3yaT967GWo+98KDYV1qof5xkvjM5+MOcJyVVxsnQIBDATvWDQECdBO1QQ8RuPrWd35+6LhjCHRBwB2gi5gNOUWAAFNkHO+CAAG6iHn+kL2defX/f/z04Mxb/Xy23x/Yx4H/nsPUcyk+7gBThB3vggABuojZkFMECDBFxvEuCFx/8Lf/HBx0q5/P9vsD+zjw33OYei7FZ3QHmNrKcQTaJUCAdrM12QwCBJgBySntEpj1+wB+vvz4PwB88vJxBzienVcbJ0CAXcAe3RIgQLfRG3xHwO8D7Ch4dEvAHaDb6A2+I0CAHQWPbgkQoNvo94P3/vwZh4NiZDBQe7cAAAAASUVORK5CYII=" parent="1" vertex="1">
          <mxGeometry x="440" y="1039" width="256" height="256" as="geometry" />
        </mxCell>
        <mxCell id="p1c2saggwYmDi9HayLSL-294" value="" style="shape=table;startSize=0;container=1;collapsible=0;childLayout=tableLayout;fillColor=none;strokeColor=#FF66FF;" parent="1" vertex="1">
          <mxGeometry x="440.5" y="1040" width="256" height="256" as="geometry" />
        </mxCell>
        <mxCell id="p1c2saggwYmDi9HayLSL-295" value="" style="shape=tableRow;horizontal=0;startSize=0;swimlaneHead=0;swimlaneBody=0;strokeColor=inherit;top=0;left=0;bottom=0;right=0;collapsible=0;dropTarget=0;fillColor=none;points=[[0,0.5],[1,0.5]];portConstraint=eastwest;" parent="p1c2saggwYmDi9HayLSL-294" vertex="1">
          <mxGeometry width="256" height="32" as="geometry" />
        </mxCell>
        <mxCell id="p1c2saggwYmDi9HayLSL-296" value="" style="shape=partialRectangle;html=1;whiteSpace=wrap;connectable=0;strokeColor=inherit;overflow=hidden;fillColor=none;top=0;left=0;bottom=0;right=0;pointerEvents=1;" parent="p1c2saggwYmDi9HayLSL-295" vertex="1">
          <mxGeometry width="32" height="32" as="geometry">
            <mxRectangle width="32" height="32" as="alternateBounds" />
          </mxGeometry>
        </mxCell>
        <mxCell id="p1c2saggwYmDi9HayLSL-297" value="" style="shape=partialRectangle;html=1;whiteSpace=wrap;connectable=0;strokeColor=inherit;overflow=hidden;fillColor=none;top=0;left=0;bottom=0;right=0;pointerEvents=1;" parent="p1c2saggwYmDi9HayLSL-295" vertex="1">
          <mxGeometry x="32" width="32" height="32" as="geometry">
            <mxRectangle width="32" height="32" as="alternateBounds" />
          </mxGeometry>
        </mxCell>
        <mxCell id="p1c2saggwYmDi9HayLSL-298" value="" style="shape=partialRectangle;html=1;whiteSpace=wrap;connectable=0;strokeColor=inherit;overflow=hidden;fillColor=none;top=0;left=0;bottom=0;right=0;pointerEvents=1;" parent="p1c2saggwYmDi9HayLSL-295" vertex="1">
          <mxGeometry x="64" width="32" height="32" as="geometry">
            <mxRectangle width="32" height="32" as="alternateBounds" />
          </mxGeometry>
        </mxCell>
        <mxCell id="p1c2saggwYmDi9HayLSL-299" value="" style="shape=partialRectangle;html=1;whiteSpace=wrap;connectable=0;strokeColor=inherit;overflow=hidden;fillColor=none;top=0;left=0;bottom=0;right=0;pointerEvents=1;" parent="p1c2saggwYmDi9HayLSL-295" vertex="1">
          <mxGeometry x="96" width="33" height="32" as="geometry">
            <mxRectangle width="33" height="32" as="alternateBounds" />
          </mxGeometry>
        </mxCell>
        <mxCell id="p1c2saggwYmDi9HayLSL-300" value="" style="shape=partialRectangle;html=1;whiteSpace=wrap;connectable=0;strokeColor=inherit;overflow=hidden;fillColor=none;top=0;left=0;bottom=0;right=0;pointerEvents=1;" parent="p1c2saggwYmDi9HayLSL-295" vertex="1">
          <mxGeometry x="129" width="31" height="32" as="geometry">
            <mxRectangle width="31" height="32" as="alternateBounds" />
          </mxGeometry>
        </mxCell>
        <mxCell id="p1c2saggwYmDi9HayLSL-301" value="" style="shape=partialRectangle;html=1;whiteSpace=wrap;connectable=0;strokeColor=inherit;overflow=hidden;fillColor=none;top=0;left=0;bottom=0;right=0;pointerEvents=1;" parent="p1c2saggwYmDi9HayLSL-295" vertex="1">
          <mxGeometry x="160" width="32" height="32" as="geometry">
            <mxRectangle width="32" height="32" as="alternateBounds" />
          </mxGeometry>
        </mxCell>
        <mxCell id="p1c2saggwYmDi9HayLSL-302" value="" style="shape=partialRectangle;html=1;whiteSpace=wrap;connectable=0;strokeColor=inherit;overflow=hidden;fillColor=none;top=0;left=0;bottom=0;right=0;pointerEvents=1;" parent="p1c2saggwYmDi9HayLSL-295" vertex="1">
          <mxGeometry x="192" width="32" height="32" as="geometry">
            <mxRectangle width="32" height="32" as="alternateBounds" />
          </mxGeometry>
        </mxCell>
        <mxCell id="p1c2saggwYmDi9HayLSL-303" value="" style="shape=partialRectangle;html=1;whiteSpace=wrap;connectable=0;strokeColor=inherit;overflow=hidden;fillColor=none;top=0;left=0;bottom=0;right=0;pointerEvents=1;" parent="p1c2saggwYmDi9HayLSL-295" vertex="1">
          <mxGeometry x="224" width="32" height="32" as="geometry">
            <mxRectangle width="32" height="32" as="alternateBounds" />
          </mxGeometry>
        </mxCell>
        <mxCell id="p1c2saggwYmDi9HayLSL-304" value="" style="shape=tableRow;horizontal=0;startSize=0;swimlaneHead=0;swimlaneBody=0;strokeColor=inherit;top=0;left=0;bottom=0;right=0;collapsible=0;dropTarget=0;fillColor=none;points=[[0,0.5],[1,0.5]];portConstraint=eastwest;" parent="p1c2saggwYmDi9HayLSL-294" vertex="1">
          <mxGeometry y="32" width="256" height="32" as="geometry" />
        </mxCell>
        <mxCell id="p1c2saggwYmDi9HayLSL-305" value="" style="shape=partialRectangle;html=1;whiteSpace=wrap;connectable=0;strokeColor=inherit;overflow=hidden;fillColor=none;top=0;left=0;bottom=0;right=0;pointerEvents=1;" parent="p1c2saggwYmDi9HayLSL-304" vertex="1">
          <mxGeometry width="32" height="32" as="geometry">
            <mxRectangle width="32" height="32" as="alternateBounds" />
          </mxGeometry>
        </mxCell>
        <mxCell id="p1c2saggwYmDi9HayLSL-306" value="" style="shape=partialRectangle;html=1;whiteSpace=wrap;connectable=0;strokeColor=inherit;overflow=hidden;fillColor=none;top=0;left=0;bottom=0;right=0;pointerEvents=1;" parent="p1c2saggwYmDi9HayLSL-304" vertex="1">
          <mxGeometry x="32" width="32" height="32" as="geometry">
            <mxRectangle width="32" height="32" as="alternateBounds" />
          </mxGeometry>
        </mxCell>
        <mxCell id="p1c2saggwYmDi9HayLSL-307" value="" style="shape=partialRectangle;html=1;whiteSpace=wrap;connectable=0;strokeColor=inherit;overflow=hidden;fillColor=none;top=0;left=0;bottom=0;right=0;pointerEvents=1;" parent="p1c2saggwYmDi9HayLSL-304" vertex="1">
          <mxGeometry x="64" width="32" height="32" as="geometry">
            <mxRectangle width="32" height="32" as="alternateBounds" />
          </mxGeometry>
        </mxCell>
        <mxCell id="p1c2saggwYmDi9HayLSL-308" value="" style="shape=partialRectangle;html=1;whiteSpace=wrap;connectable=0;strokeColor=inherit;overflow=hidden;fillColor=none;top=0;left=0;bottom=0;right=0;pointerEvents=1;" parent="p1c2saggwYmDi9HayLSL-304" vertex="1">
          <mxGeometry x="96" width="33" height="32" as="geometry">
            <mxRectangle width="33" height="32" as="alternateBounds" />
          </mxGeometry>
        </mxCell>
        <mxCell id="p1c2saggwYmDi9HayLSL-309" value="" style="shape=partialRectangle;html=1;whiteSpace=wrap;connectable=0;strokeColor=inherit;overflow=hidden;fillColor=none;top=0;left=0;bottom=0;right=0;pointerEvents=1;" parent="p1c2saggwYmDi9HayLSL-304" vertex="1">
          <mxGeometry x="129" width="31" height="32" as="geometry">
            <mxRectangle width="31" height="32" as="alternateBounds" />
          </mxGeometry>
        </mxCell>
        <mxCell id="p1c2saggwYmDi9HayLSL-310" value="" style="shape=partialRectangle;html=1;whiteSpace=wrap;connectable=0;strokeColor=inherit;overflow=hidden;fillColor=none;top=0;left=0;bottom=0;right=0;pointerEvents=1;" parent="p1c2saggwYmDi9HayLSL-304" vertex="1">
          <mxGeometry x="160" width="32" height="32" as="geometry">
            <mxRectangle width="32" height="32" as="alternateBounds" />
          </mxGeometry>
        </mxCell>
        <mxCell id="p1c2saggwYmDi9HayLSL-311" value="" style="shape=partialRectangle;html=1;whiteSpace=wrap;connectable=0;strokeColor=inherit;overflow=hidden;fillColor=none;top=0;left=0;bottom=0;right=0;pointerEvents=1;" parent="p1c2saggwYmDi9HayLSL-304" vertex="1">
          <mxGeometry x="192" width="32" height="32" as="geometry">
            <mxRectangle width="32" height="32" as="alternateBounds" />
          </mxGeometry>
        </mxCell>
        <mxCell id="p1c2saggwYmDi9HayLSL-312" value="" style="shape=partialRectangle;html=1;whiteSpace=wrap;connectable=0;strokeColor=inherit;overflow=hidden;fillColor=none;top=0;left=0;bottom=0;right=0;pointerEvents=1;" parent="p1c2saggwYmDi9HayLSL-304" vertex="1">
          <mxGeometry x="224" width="32" height="32" as="geometry">
            <mxRectangle width="32" height="32" as="alternateBounds" />
          </mxGeometry>
        </mxCell>
        <mxCell id="p1c2saggwYmDi9HayLSL-313" value="" style="shape=tableRow;horizontal=0;startSize=0;swimlaneHead=0;swimlaneBody=0;strokeColor=inherit;top=0;left=0;bottom=0;right=0;collapsible=0;dropTarget=0;fillColor=none;points=[[0,0.5],[1,0.5]];portConstraint=eastwest;" parent="p1c2saggwYmDi9HayLSL-294" vertex="1">
          <mxGeometry y="64" width="256" height="32" as="geometry" />
        </mxCell>
        <mxCell id="p1c2saggwYmDi9HayLSL-314" value="" style="shape=partialRectangle;html=1;whiteSpace=wrap;connectable=0;strokeColor=inherit;overflow=hidden;fillColor=none;top=0;left=0;bottom=0;right=0;pointerEvents=1;" parent="p1c2saggwYmDi9HayLSL-313" vertex="1">
          <mxGeometry width="32" height="32" as="geometry">
            <mxRectangle width="32" height="32" as="alternateBounds" />
          </mxGeometry>
        </mxCell>
        <mxCell id="p1c2saggwYmDi9HayLSL-315" value="" style="shape=partialRectangle;html=1;whiteSpace=wrap;connectable=0;strokeColor=inherit;overflow=hidden;fillColor=none;top=0;left=0;bottom=0;right=0;pointerEvents=1;" parent="p1c2saggwYmDi9HayLSL-313" vertex="1">
          <mxGeometry x="32" width="32" height="32" as="geometry">
            <mxRectangle width="32" height="32" as="alternateBounds" />
          </mxGeometry>
        </mxCell>
        <mxCell id="p1c2saggwYmDi9HayLSL-316" value="" style="shape=partialRectangle;html=1;whiteSpace=wrap;connectable=0;strokeColor=inherit;overflow=hidden;fillColor=none;top=0;left=0;bottom=0;right=0;pointerEvents=1;" parent="p1c2saggwYmDi9HayLSL-313" vertex="1">
          <mxGeometry x="64" width="32" height="32" as="geometry">
            <mxRectangle width="32" height="32" as="alternateBounds" />
          </mxGeometry>
        </mxCell>
        <mxCell id="p1c2saggwYmDi9HayLSL-317" value="" style="shape=partialRectangle;html=1;whiteSpace=wrap;connectable=0;strokeColor=inherit;overflow=hidden;fillColor=none;top=0;left=0;bottom=0;right=0;pointerEvents=1;" parent="p1c2saggwYmDi9HayLSL-313" vertex="1">
          <mxGeometry x="96" width="33" height="32" as="geometry">
            <mxRectangle width="33" height="32" as="alternateBounds" />
          </mxGeometry>
        </mxCell>
        <mxCell id="p1c2saggwYmDi9HayLSL-318" value="" style="shape=partialRectangle;html=1;whiteSpace=wrap;connectable=0;strokeColor=inherit;overflow=hidden;fillColor=none;top=0;left=0;bottom=0;right=0;pointerEvents=1;" parent="p1c2saggwYmDi9HayLSL-313" vertex="1">
          <mxGeometry x="129" width="31" height="32" as="geometry">
            <mxRectangle width="31" height="32" as="alternateBounds" />
          </mxGeometry>
        </mxCell>
        <mxCell id="p1c2saggwYmDi9HayLSL-319" value="" style="shape=partialRectangle;html=1;whiteSpace=wrap;connectable=0;strokeColor=inherit;overflow=hidden;fillColor=none;top=0;left=0;bottom=0;right=0;pointerEvents=1;" parent="p1c2saggwYmDi9HayLSL-313" vertex="1">
          <mxGeometry x="160" width="32" height="32" as="geometry">
            <mxRectangle width="32" height="32" as="alternateBounds" />
          </mxGeometry>
        </mxCell>
        <mxCell id="p1c2saggwYmDi9HayLSL-320" value="" style="shape=partialRectangle;html=1;whiteSpace=wrap;connectable=0;strokeColor=inherit;overflow=hidden;fillColor=none;top=0;left=0;bottom=0;right=0;pointerEvents=1;" parent="p1c2saggwYmDi9HayLSL-313" vertex="1">
          <mxGeometry x="192" width="32" height="32" as="geometry">
            <mxRectangle width="32" height="32" as="alternateBounds" />
          </mxGeometry>
        </mxCell>
        <mxCell id="p1c2saggwYmDi9HayLSL-321" value="" style="shape=partialRectangle;html=1;whiteSpace=wrap;connectable=0;strokeColor=inherit;overflow=hidden;fillColor=none;top=0;left=0;bottom=0;right=0;pointerEvents=1;" parent="p1c2saggwYmDi9HayLSL-313" vertex="1">
          <mxGeometry x="224" width="32" height="32" as="geometry">
            <mxRectangle width="32" height="32" as="alternateBounds" />
          </mxGeometry>
        </mxCell>
        <mxCell id="p1c2saggwYmDi9HayLSL-322" value="" style="shape=tableRow;horizontal=0;startSize=0;swimlaneHead=0;swimlaneBody=0;strokeColor=inherit;top=0;left=0;bottom=0;right=0;collapsible=0;dropTarget=0;fillColor=none;points=[[0,0.5],[1,0.5]];portConstraint=eastwest;" parent="p1c2saggwYmDi9HayLSL-294" vertex="1">
          <mxGeometry y="96" width="256" height="32" as="geometry" />
        </mxCell>
        <mxCell id="p1c2saggwYmDi9HayLSL-323" value="" style="shape=partialRectangle;html=1;whiteSpace=wrap;connectable=0;strokeColor=inherit;overflow=hidden;fillColor=none;top=0;left=0;bottom=0;right=0;pointerEvents=1;" parent="p1c2saggwYmDi9HayLSL-322" vertex="1">
          <mxGeometry width="32" height="32" as="geometry">
            <mxRectangle width="32" height="32" as="alternateBounds" />
          </mxGeometry>
        </mxCell>
        <mxCell id="p1c2saggwYmDi9HayLSL-324" value="" style="shape=partialRectangle;html=1;whiteSpace=wrap;connectable=0;strokeColor=inherit;overflow=hidden;fillColor=none;top=0;left=0;bottom=0;right=0;pointerEvents=1;" parent="p1c2saggwYmDi9HayLSL-322" vertex="1">
          <mxGeometry x="32" width="32" height="32" as="geometry">
            <mxRectangle width="32" height="32" as="alternateBounds" />
          </mxGeometry>
        </mxCell>
        <mxCell id="p1c2saggwYmDi9HayLSL-325" value="" style="shape=partialRectangle;html=1;whiteSpace=wrap;connectable=0;strokeColor=inherit;overflow=hidden;fillColor=none;top=0;left=0;bottom=0;right=0;pointerEvents=1;" parent="p1c2saggwYmDi9HayLSL-322" vertex="1">
          <mxGeometry x="64" width="32" height="32" as="geometry">
            <mxRectangle width="32" height="32" as="alternateBounds" />
          </mxGeometry>
        </mxCell>
        <mxCell id="p1c2saggwYmDi9HayLSL-326" value="" style="shape=partialRectangle;html=1;whiteSpace=wrap;connectable=0;strokeColor=inherit;overflow=hidden;fillColor=none;top=0;left=0;bottom=0;right=0;pointerEvents=1;" parent="p1c2saggwYmDi9HayLSL-322" vertex="1">
          <mxGeometry x="96" width="33" height="32" as="geometry">
            <mxRectangle width="33" height="32" as="alternateBounds" />
          </mxGeometry>
        </mxCell>
        <mxCell id="p1c2saggwYmDi9HayLSL-327" value="" style="shape=partialRectangle;html=1;whiteSpace=wrap;connectable=0;strokeColor=inherit;overflow=hidden;fillColor=none;top=0;left=0;bottom=0;right=0;pointerEvents=1;" parent="p1c2saggwYmDi9HayLSL-322" vertex="1">
          <mxGeometry x="129" width="31" height="32" as="geometry">
            <mxRectangle width="31" height="32" as="alternateBounds" />
          </mxGeometry>
        </mxCell>
        <mxCell id="p1c2saggwYmDi9HayLSL-328" value="" style="shape=partialRectangle;html=1;whiteSpace=wrap;connectable=0;strokeColor=inherit;overflow=hidden;fillColor=none;top=0;left=0;bottom=0;right=0;pointerEvents=1;" parent="p1c2saggwYmDi9HayLSL-322" vertex="1">
          <mxGeometry x="160" width="32" height="32" as="geometry">
            <mxRectangle width="32" height="32" as="alternateBounds" />
          </mxGeometry>
        </mxCell>
        <mxCell id="p1c2saggwYmDi9HayLSL-329" value="" style="shape=partialRectangle;html=1;whiteSpace=wrap;connectable=0;strokeColor=inherit;overflow=hidden;fillColor=none;top=0;left=0;bottom=0;right=0;pointerEvents=1;" parent="p1c2saggwYmDi9HayLSL-322" vertex="1">
          <mxGeometry x="192" width="32" height="32" as="geometry">
            <mxRectangle width="32" height="32" as="alternateBounds" />
          </mxGeometry>
        </mxCell>
        <mxCell id="p1c2saggwYmDi9HayLSL-330" value="" style="shape=partialRectangle;html=1;whiteSpace=wrap;connectable=0;strokeColor=inherit;overflow=hidden;fillColor=none;top=0;left=0;bottom=0;right=0;pointerEvents=1;" parent="p1c2saggwYmDi9HayLSL-322" vertex="1">
          <mxGeometry x="224" width="32" height="32" as="geometry">
            <mxRectangle width="32" height="32" as="alternateBounds" />
          </mxGeometry>
        </mxCell>
        <mxCell id="p1c2saggwYmDi9HayLSL-331" value="" style="shape=tableRow;horizontal=0;startSize=0;swimlaneHead=0;swimlaneBody=0;strokeColor=inherit;top=0;left=0;bottom=0;right=0;collapsible=0;dropTarget=0;fillColor=none;points=[[0,0.5],[1,0.5]];portConstraint=eastwest;" parent="p1c2saggwYmDi9HayLSL-294" vertex="1">
          <mxGeometry y="128" width="256" height="32" as="geometry" />
        </mxCell>
        <mxCell id="p1c2saggwYmDi9HayLSL-332" value="" style="shape=partialRectangle;html=1;whiteSpace=wrap;connectable=0;strokeColor=inherit;overflow=hidden;fillColor=none;top=0;left=0;bottom=0;right=0;pointerEvents=1;" parent="p1c2saggwYmDi9HayLSL-331" vertex="1">
          <mxGeometry width="32" height="32" as="geometry">
            <mxRectangle width="32" height="32" as="alternateBounds" />
          </mxGeometry>
        </mxCell>
        <mxCell id="p1c2saggwYmDi9HayLSL-333" value="" style="shape=partialRectangle;html=1;whiteSpace=wrap;connectable=0;strokeColor=inherit;overflow=hidden;fillColor=none;top=0;left=0;bottom=0;right=0;pointerEvents=1;" parent="p1c2saggwYmDi9HayLSL-331" vertex="1">
          <mxGeometry x="32" width="32" height="32" as="geometry">
            <mxRectangle width="32" height="32" as="alternateBounds" />
          </mxGeometry>
        </mxCell>
        <mxCell id="p1c2saggwYmDi9HayLSL-334" value="" style="shape=partialRectangle;html=1;whiteSpace=wrap;connectable=0;strokeColor=inherit;overflow=hidden;fillColor=none;top=0;left=0;bottom=0;right=0;pointerEvents=1;" parent="p1c2saggwYmDi9HayLSL-331" vertex="1">
          <mxGeometry x="64" width="32" height="32" as="geometry">
            <mxRectangle width="32" height="32" as="alternateBounds" />
          </mxGeometry>
        </mxCell>
        <mxCell id="p1c2saggwYmDi9HayLSL-335" value="" style="shape=partialRectangle;html=1;whiteSpace=wrap;connectable=0;strokeColor=inherit;overflow=hidden;fillColor=none;top=0;left=0;bottom=0;right=0;pointerEvents=1;" parent="p1c2saggwYmDi9HayLSL-331" vertex="1">
          <mxGeometry x="96" width="33" height="32" as="geometry">
            <mxRectangle width="33" height="32" as="alternateBounds" />
          </mxGeometry>
        </mxCell>
        <mxCell id="p1c2saggwYmDi9HayLSL-336" value="" style="shape=partialRectangle;html=1;whiteSpace=wrap;connectable=0;strokeColor=inherit;overflow=hidden;fillColor=none;top=0;left=0;bottom=0;right=0;pointerEvents=1;" parent="p1c2saggwYmDi9HayLSL-331" vertex="1">
          <mxGeometry x="129" width="31" height="32" as="geometry">
            <mxRectangle width="31" height="32" as="alternateBounds" />
          </mxGeometry>
        </mxCell>
        <mxCell id="p1c2saggwYmDi9HayLSL-337" value="" style="shape=partialRectangle;html=1;whiteSpace=wrap;connectable=0;strokeColor=inherit;overflow=hidden;fillColor=none;top=0;left=0;bottom=0;right=0;pointerEvents=1;" parent="p1c2saggwYmDi9HayLSL-331" vertex="1">
          <mxGeometry x="160" width="32" height="32" as="geometry">
            <mxRectangle width="32" height="32" as="alternateBounds" />
          </mxGeometry>
        </mxCell>
        <mxCell id="p1c2saggwYmDi9HayLSL-338" value="" style="shape=partialRectangle;html=1;whiteSpace=wrap;connectable=0;strokeColor=inherit;overflow=hidden;fillColor=none;top=0;left=0;bottom=0;right=0;pointerEvents=1;" parent="p1c2saggwYmDi9HayLSL-331" vertex="1">
          <mxGeometry x="192" width="32" height="32" as="geometry">
            <mxRectangle width="32" height="32" as="alternateBounds" />
          </mxGeometry>
        </mxCell>
        <mxCell id="p1c2saggwYmDi9HayLSL-339" value="" style="shape=partialRectangle;html=1;whiteSpace=wrap;connectable=0;strokeColor=inherit;overflow=hidden;fillColor=none;top=0;left=0;bottom=0;right=0;pointerEvents=1;" parent="p1c2saggwYmDi9HayLSL-331" vertex="1">
          <mxGeometry x="224" width="32" height="32" as="geometry">
            <mxRectangle width="32" height="32" as="alternateBounds" />
          </mxGeometry>
        </mxCell>
        <mxCell id="p1c2saggwYmDi9HayLSL-340" value="" style="shape=tableRow;horizontal=0;startSize=0;swimlaneHead=0;swimlaneBody=0;strokeColor=inherit;top=0;left=0;bottom=0;right=0;collapsible=0;dropTarget=0;fillColor=none;points=[[0,0.5],[1,0.5]];portConstraint=eastwest;" parent="p1c2saggwYmDi9HayLSL-294" vertex="1">
          <mxGeometry y="160" width="256" height="32" as="geometry" />
        </mxCell>
        <mxCell id="p1c2saggwYmDi9HayLSL-341" value="" style="shape=partialRectangle;html=1;whiteSpace=wrap;connectable=0;strokeColor=inherit;overflow=hidden;fillColor=none;top=0;left=0;bottom=0;right=0;pointerEvents=1;" parent="p1c2saggwYmDi9HayLSL-340" vertex="1">
          <mxGeometry width="32" height="32" as="geometry">
            <mxRectangle width="32" height="32" as="alternateBounds" />
          </mxGeometry>
        </mxCell>
        <mxCell id="p1c2saggwYmDi9HayLSL-342" value="" style="shape=partialRectangle;html=1;whiteSpace=wrap;connectable=0;strokeColor=inherit;overflow=hidden;fillColor=none;top=0;left=0;bottom=0;right=0;pointerEvents=1;" parent="p1c2saggwYmDi9HayLSL-340" vertex="1">
          <mxGeometry x="32" width="32" height="32" as="geometry">
            <mxRectangle width="32" height="32" as="alternateBounds" />
          </mxGeometry>
        </mxCell>
        <mxCell id="p1c2saggwYmDi9HayLSL-343" value="" style="shape=partialRectangle;html=1;whiteSpace=wrap;connectable=0;strokeColor=inherit;overflow=hidden;fillColor=none;top=0;left=0;bottom=0;right=0;pointerEvents=1;" parent="p1c2saggwYmDi9HayLSL-340" vertex="1">
          <mxGeometry x="64" width="32" height="32" as="geometry">
            <mxRectangle width="32" height="32" as="alternateBounds" />
          </mxGeometry>
        </mxCell>
        <mxCell id="p1c2saggwYmDi9HayLSL-344" value="" style="shape=partialRectangle;html=1;whiteSpace=wrap;connectable=0;strokeColor=inherit;overflow=hidden;fillColor=none;top=0;left=0;bottom=0;right=0;pointerEvents=1;" parent="p1c2saggwYmDi9HayLSL-340" vertex="1">
          <mxGeometry x="96" width="33" height="32" as="geometry">
            <mxRectangle width="33" height="32" as="alternateBounds" />
          </mxGeometry>
        </mxCell>
        <mxCell id="p1c2saggwYmDi9HayLSL-345" value="" style="shape=partialRectangle;html=1;whiteSpace=wrap;connectable=0;strokeColor=inherit;overflow=hidden;fillColor=none;top=0;left=0;bottom=0;right=0;pointerEvents=1;" parent="p1c2saggwYmDi9HayLSL-340" vertex="1">
          <mxGeometry x="129" width="31" height="32" as="geometry">
            <mxRectangle width="31" height="32" as="alternateBounds" />
          </mxGeometry>
        </mxCell>
        <mxCell id="p1c2saggwYmDi9HayLSL-346" value="" style="shape=partialRectangle;html=1;whiteSpace=wrap;connectable=0;strokeColor=inherit;overflow=hidden;fillColor=none;top=0;left=0;bottom=0;right=0;pointerEvents=1;" parent="p1c2saggwYmDi9HayLSL-340" vertex="1">
          <mxGeometry x="160" width="32" height="32" as="geometry">
            <mxRectangle width="32" height="32" as="alternateBounds" />
          </mxGeometry>
        </mxCell>
        <mxCell id="p1c2saggwYmDi9HayLSL-347" value="" style="shape=partialRectangle;html=1;whiteSpace=wrap;connectable=0;strokeColor=inherit;overflow=hidden;fillColor=none;top=0;left=0;bottom=0;right=0;pointerEvents=1;" parent="p1c2saggwYmDi9HayLSL-340" vertex="1">
          <mxGeometry x="192" width="32" height="32" as="geometry">
            <mxRectangle width="32" height="32" as="alternateBounds" />
          </mxGeometry>
        </mxCell>
        <mxCell id="p1c2saggwYmDi9HayLSL-348" value="" style="shape=partialRectangle;html=1;whiteSpace=wrap;connectable=0;strokeColor=inherit;overflow=hidden;fillColor=none;top=0;left=0;bottom=0;right=0;pointerEvents=1;" parent="p1c2saggwYmDi9HayLSL-340" vertex="1">
          <mxGeometry x="224" width="32" height="32" as="geometry">
            <mxRectangle width="32" height="32" as="alternateBounds" />
          </mxGeometry>
        </mxCell>
        <mxCell id="p1c2saggwYmDi9HayLSL-349" value="" style="shape=tableRow;horizontal=0;startSize=0;swimlaneHead=0;swimlaneBody=0;strokeColor=inherit;top=0;left=0;bottom=0;right=0;collapsible=0;dropTarget=0;fillColor=none;points=[[0,0.5],[1,0.5]];portConstraint=eastwest;" parent="p1c2saggwYmDi9HayLSL-294" vertex="1">
          <mxGeometry y="192" width="256" height="32" as="geometry" />
        </mxCell>
        <mxCell id="p1c2saggwYmDi9HayLSL-350" value="" style="shape=partialRectangle;html=1;whiteSpace=wrap;connectable=0;strokeColor=inherit;overflow=hidden;fillColor=none;top=0;left=0;bottom=0;right=0;pointerEvents=1;" parent="p1c2saggwYmDi9HayLSL-349" vertex="1">
          <mxGeometry width="32" height="32" as="geometry">
            <mxRectangle width="32" height="32" as="alternateBounds" />
          </mxGeometry>
        </mxCell>
        <mxCell id="p1c2saggwYmDi9HayLSL-351" value="" style="shape=partialRectangle;html=1;whiteSpace=wrap;connectable=0;strokeColor=inherit;overflow=hidden;fillColor=none;top=0;left=0;bottom=0;right=0;pointerEvents=1;" parent="p1c2saggwYmDi9HayLSL-349" vertex="1">
          <mxGeometry x="32" width="32" height="32" as="geometry">
            <mxRectangle width="32" height="32" as="alternateBounds" />
          </mxGeometry>
        </mxCell>
        <mxCell id="p1c2saggwYmDi9HayLSL-352" value="" style="shape=partialRectangle;html=1;whiteSpace=wrap;connectable=0;strokeColor=inherit;overflow=hidden;fillColor=none;top=0;left=0;bottom=0;right=0;pointerEvents=1;" parent="p1c2saggwYmDi9HayLSL-349" vertex="1">
          <mxGeometry x="64" width="32" height="32" as="geometry">
            <mxRectangle width="32" height="32" as="alternateBounds" />
          </mxGeometry>
        </mxCell>
        <mxCell id="p1c2saggwYmDi9HayLSL-353" value="" style="shape=partialRectangle;html=1;whiteSpace=wrap;connectable=0;strokeColor=inherit;overflow=hidden;fillColor=none;top=0;left=0;bottom=0;right=0;pointerEvents=1;" parent="p1c2saggwYmDi9HayLSL-349" vertex="1">
          <mxGeometry x="96" width="33" height="32" as="geometry">
            <mxRectangle width="33" height="32" as="alternateBounds" />
          </mxGeometry>
        </mxCell>
        <mxCell id="p1c2saggwYmDi9HayLSL-354" value="" style="shape=partialRectangle;html=1;whiteSpace=wrap;connectable=0;strokeColor=inherit;overflow=hidden;fillColor=none;top=0;left=0;bottom=0;right=0;pointerEvents=1;" parent="p1c2saggwYmDi9HayLSL-349" vertex="1">
          <mxGeometry x="129" width="31" height="32" as="geometry">
            <mxRectangle width="31" height="32" as="alternateBounds" />
          </mxGeometry>
        </mxCell>
        <mxCell id="p1c2saggwYmDi9HayLSL-355" value="" style="shape=partialRectangle;html=1;whiteSpace=wrap;connectable=0;strokeColor=inherit;overflow=hidden;fillColor=none;top=0;left=0;bottom=0;right=0;pointerEvents=1;" parent="p1c2saggwYmDi9HayLSL-349" vertex="1">
          <mxGeometry x="160" width="32" height="32" as="geometry">
            <mxRectangle width="32" height="32" as="alternateBounds" />
          </mxGeometry>
        </mxCell>
        <mxCell id="p1c2saggwYmDi9HayLSL-356" value="" style="shape=partialRectangle;html=1;whiteSpace=wrap;connectable=0;strokeColor=inherit;overflow=hidden;fillColor=none;top=0;left=0;bottom=0;right=0;pointerEvents=1;" parent="p1c2saggwYmDi9HayLSL-349" vertex="1">
          <mxGeometry x="192" width="32" height="32" as="geometry">
            <mxRectangle width="32" height="32" as="alternateBounds" />
          </mxGeometry>
        </mxCell>
        <mxCell id="p1c2saggwYmDi9HayLSL-357" value="" style="shape=partialRectangle;html=1;whiteSpace=wrap;connectable=0;strokeColor=inherit;overflow=hidden;fillColor=none;top=0;left=0;bottom=0;right=0;pointerEvents=1;" parent="p1c2saggwYmDi9HayLSL-349" vertex="1">
          <mxGeometry x="224" width="32" height="32" as="geometry">
            <mxRectangle width="32" height="32" as="alternateBounds" />
          </mxGeometry>
        </mxCell>
        <mxCell id="p1c2saggwYmDi9HayLSL-358" value="" style="shape=tableRow;horizontal=0;startSize=0;swimlaneHead=0;swimlaneBody=0;strokeColor=inherit;top=0;left=0;bottom=0;right=0;collapsible=0;dropTarget=0;fillColor=none;points=[[0,0.5],[1,0.5]];portConstraint=eastwest;" parent="p1c2saggwYmDi9HayLSL-294" vertex="1">
          <mxGeometry y="224" width="256" height="32" as="geometry" />
        </mxCell>
        <mxCell id="p1c2saggwYmDi9HayLSL-359" value="" style="shape=partialRectangle;html=1;whiteSpace=wrap;connectable=0;strokeColor=inherit;overflow=hidden;fillColor=none;top=0;left=0;bottom=0;right=0;pointerEvents=1;" parent="p1c2saggwYmDi9HayLSL-358" vertex="1">
          <mxGeometry width="32" height="32" as="geometry">
            <mxRectangle width="32" height="32" as="alternateBounds" />
          </mxGeometry>
        </mxCell>
        <mxCell id="p1c2saggwYmDi9HayLSL-360" value="" style="shape=partialRectangle;html=1;whiteSpace=wrap;connectable=0;strokeColor=inherit;overflow=hidden;fillColor=none;top=0;left=0;bottom=0;right=0;pointerEvents=1;" parent="p1c2saggwYmDi9HayLSL-358" vertex="1">
          <mxGeometry x="32" width="32" height="32" as="geometry">
            <mxRectangle width="32" height="32" as="alternateBounds" />
          </mxGeometry>
        </mxCell>
        <mxCell id="p1c2saggwYmDi9HayLSL-361" value="" style="shape=partialRectangle;html=1;whiteSpace=wrap;connectable=0;strokeColor=inherit;overflow=hidden;fillColor=none;top=0;left=0;bottom=0;right=0;pointerEvents=1;" parent="p1c2saggwYmDi9HayLSL-358" vertex="1">
          <mxGeometry x="64" width="32" height="32" as="geometry">
            <mxRectangle width="32" height="32" as="alternateBounds" />
          </mxGeometry>
        </mxCell>
        <mxCell id="p1c2saggwYmDi9HayLSL-362" value="" style="shape=partialRectangle;html=1;whiteSpace=wrap;connectable=0;strokeColor=inherit;overflow=hidden;fillColor=none;top=0;left=0;bottom=0;right=0;pointerEvents=1;" parent="p1c2saggwYmDi9HayLSL-358" vertex="1">
          <mxGeometry x="96" width="33" height="32" as="geometry">
            <mxRectangle width="33" height="32" as="alternateBounds" />
          </mxGeometry>
        </mxCell>
        <mxCell id="p1c2saggwYmDi9HayLSL-363" value="" style="shape=partialRectangle;html=1;whiteSpace=wrap;connectable=0;strokeColor=inherit;overflow=hidden;fillColor=none;top=0;left=0;bottom=0;right=0;pointerEvents=1;" parent="p1c2saggwYmDi9HayLSL-358" vertex="1">
          <mxGeometry x="129" width="31" height="32" as="geometry">
            <mxRectangle width="31" height="32" as="alternateBounds" />
          </mxGeometry>
        </mxCell>
        <mxCell id="p1c2saggwYmDi9HayLSL-364" value="" style="shape=partialRectangle;html=1;whiteSpace=wrap;connectable=0;strokeColor=inherit;overflow=hidden;fillColor=none;top=0;left=0;bottom=0;right=0;pointerEvents=1;" parent="p1c2saggwYmDi9HayLSL-358" vertex="1">
          <mxGeometry x="160" width="32" height="32" as="geometry">
            <mxRectangle width="32" height="32" as="alternateBounds" />
          </mxGeometry>
        </mxCell>
        <mxCell id="p1c2saggwYmDi9HayLSL-365" value="" style="shape=partialRectangle;html=1;whiteSpace=wrap;connectable=0;strokeColor=inherit;overflow=hidden;fillColor=none;top=0;left=0;bottom=0;right=0;pointerEvents=1;" parent="p1c2saggwYmDi9HayLSL-358" vertex="1">
          <mxGeometry x="192" width="32" height="32" as="geometry">
            <mxRectangle width="32" height="32" as="alternateBounds" />
          </mxGeometry>
        </mxCell>
        <mxCell id="p1c2saggwYmDi9HayLSL-366" value="" style="shape=partialRectangle;html=1;whiteSpace=wrap;connectable=0;strokeColor=inherit;overflow=hidden;fillColor=none;top=0;left=0;bottom=0;right=0;pointerEvents=1;" parent="p1c2saggwYmDi9HayLSL-358" vertex="1">
          <mxGeometry x="224" width="32" height="32" as="geometry">
            <mxRectangle width="32" height="32" as="alternateBounds" />
          </mxGeometry>
        </mxCell>
        <mxCell id="46" value="&lt;font style=&quot;font-size: 17px;&quot; color=&quot;#ffffff&quot;&gt;(&lt;/font&gt;&lt;font style=&quot;font-size: 17px;&quot; color=&quot;#3333ff&quot;&gt;u&lt;/font&gt;&lt;font style=&quot;font-size: 17px;&quot; color=&quot;#ffffff&quot;&gt;,&lt;/font&gt;&lt;font style=&quot;font-size: 17px;&quot; color=&quot;#ff99ff&quot;&gt;v&lt;/font&gt;&lt;font style=&quot;font-size: 17px;&quot; color=&quot;#ffffff&quot;&gt;)&lt;/font&gt;" style="text;fontStyle=1;html=1;strokeColor=none;gradientColor=none;fillColor=none;strokeWidth=2;fontColor=#FFD966;fontSize=17;" parent="1" vertex="1">
          <mxGeometry x="620" y="130" width="48" height="26" as="geometry" />
        </mxCell>
        <mxCell id="mH0r4JVqe8PF6rk-SjkP-61" value="image bank 0" style="rounded=1;whiteSpace=wrap;html=1;absoluteArcSize=1;arcSize=14;strokeWidth=1;fontSize=14;fillColor=#454747;strokeColor=none;fontColor=#FFFFFF;" parent="1" vertex="1">
          <mxGeometry x="620" y="100" width="130.5" height="30" as="geometry" />
        </mxCell>
        <mxCell id="p1c2saggwYmDi9HayLSL-58" value="" style="shape=image;verticalLabelPosition=bottom;verticalAlign=top;imageAspect=0;aspect=fixed;image=data:image/png,iVBORw0KGgoAAAANSUhEUgAAAQAAAAEACAIAAADTED8xAAAVF0lEQVR4Ae2dT6gf1RXHJ+W5KpUaaYwpSLpplcSiuHqhMVQau9CFtrRJUXGhtbaJ5dFCcWEjiV1YpJISE/+gC1HBKK0udKERi30lb5VmkTxNN60I9R/4UipdGUh/yQ/ufOaXOe/d++bOb+7M/covP8/vzLnfe873vsM9d+bOzJo9G39VtPnf3N8fWBH+yIlLnM32q0872RJov3jnry2zXuj3vf9oq35+tvCqwz9z5mUnhwozMz9yTW4++LGT//vegpPbEN7ef8bBfvrOh04OFZ5b+4xr8voze538JSdJEAMZMqAEyHDQFXLJgBKg5EJShgzMtB3zvlNHVu7iotJk4VQpmxLsLzaNdOAcA78//u1z/zv/746lP57//2q+nltb4hRFuQa4+KrZ1cAt24brCtb967ZtWLbdcgfnn3yz9nDGM0AtH1JmxoASILMBV7hVBpQAVT70KzMGWl8DHD7+uaN040J5Tvf92bLrJvrtDl1CHQPzR8vad77YUWfiqStxWKNba4CtW25cEZe+rWg8YXDRpgMTmgt/frF434XKCY1mgAlC9DMvBpQAeY33OFp9OwaUAI4KCTkyUBbiLUX/00ferUf+W726CNUbMFKPGWC9PtbE/bbwX295j5AVhU/dz7aaAciG5OwYUAJkN+QKmAwoAciG5MEzMBlg62uAyQ71e7oMcD89e7b297+2a70za3L/gAMZCTfMlX9mlj8js9rPp+/UqivK0LqfjTUDkA3J2TGgBMhuyBUwGVACkA3J2TFQFmfZhZ5HwNxPz4it/f3x7h8o78EtivIe3D+ceMi5ccfSXU4OFZrU/ewroxmAYUsWA2MGlABjHvSdKQNKgEwHXmGPGdAaYMzDYL/vOWXdA1C/v38eTMS6fwCQBe8B8MHnfQXWfb3ED5U1A4QyJvtBMaAEGNRwGsFIbTKgBDCp0YEcGNAaYOCjbO3Xt8IOtbdwLH0oftv3FWgGsEZK+iwYUAJkMcwK0mJACWAxI/0gGFgpCK0BVmKo5eOxnt9vu1k+i8m2WfkI7x+4fvcrrgH391v7jpxxh4LeD9Ah+eo6XQZUAqU7NvJsCgwoAaZAsrpIlwGvNYD1HqtY7xfrO366w9u+Z6z7mzy/v21PrX1EA54B2qZU+ENgQAkwhFFUDKtmQAmwaurUcAgMmGsA1uVzRw+7WPm8/3277nb60PUA8c8+/oTDWdx70smb8Q7dJvhLS0sOk/eSXra1fEdvKL4DlFDLgM/z+2sbrkLJMWW/1FuwmgEsZqTPggElwBCHWTF5M6AE8KZKhkNkoLIGYF1u1f0k4fKDT7ufPusB4lt1vwMcCSfX7x59jz8+6wHiW3X/GG38/cn8bWNh9N3VeiDWc3hGIbT6qT5HqNwLFNqpT10eikn7UHzNAGRPcnYMKAGyG3IFTAaUAGRDcu8ZCA2gsgZgY57vpz6WzPP9sTCJE1oLsq3kuAykPBaaAeKOtdB6xoASoGcDJnfjMqAEiMun0HrGQGUNwP0wPK/P8/2M76PAvUDE53l9nu8n/uaPH3M/2dYpJwTa8Lw+z/ezyWVbX3A/2dYppyzwOZ5PXVnuv/Jxo0lbC5+YW7dYVvX6lOt+ejygGYBhSRYDfgwoAfx4ktVAGVACDHRgFZYfA2t8al/usSGsT1vaW3Lf8a24fPRHvvNNH7OkbPh8z5vuetD5xmf/O2WCAv3XDJDgAMml6TGgBJge1+31JORVM6AEWDV1ajgEBrzWAEMINNUY/nTpZ6m6loVfmgGyGGYFaTGgBLCYkT4LBpQAWQzzcINsGlllLxDBrHPztKEcek0gFn4oDn2mHOo/2zaRF48926T5im03XXens3nx1g+czH0+3HfE53taz9i55cmtDufVn807mQLbUk/Z2i9k4ROTbfl8Uisu6nUdgKMgOWsGVAJlPfwKXgmgv4GsGZixaujZ28vndW7dcqMj6bpN33Dy9qtPO3nt2rVOtupp9hULn8//cQ6MhJt++dLoe/yJ5f8YLZ9vq84mA6y/uX5gW9pbMnFoQ/264j4eiiL3eAaIEr9AMmdACZD5H0Du4SsBcv8LyDz+NVYN/fCL/3HU+NT9xOF6wIGMhN8c+ufo+8JPE3z2eyHyWHPkxCVjYfRtrVuIQ/+t9cwIKsqH66IogBMgvA5w8VWzE0cv/MlrAjzK8+jUU7ba0saSic/z9PTZwvdpS0z6oBmAbEjOjgElQB+HXD5HY0AJEI1KAfWRAXMv0P07v+riOXLCiY0EYhKoCT7rddbxxM9Z5l6jTQYRrLNZT9PcqqGttpY9MdmWesrEuafYwUNOpo1TjgRLT040A4yI0idfBpQA+Y69Ih8xoAQYkaBPfxiI7emMTw19bPFf6LfcC8Rnbv770A+dDfXcw+0MJoQm+Hy+J/f/sAvuBSqKMP8P3kGk/snWdQCeU1+37UxtYNyXz3sJuOenKMr7ATjWXyyWeuJU7x8obay23At0z6nyOkYVp9b9otq2XD9wLaQZoJ47aTNhQAmQyUArzHoGlAD1vEibCQOV6wCsoat1c8kG6/VjxUPuwPypN5288MC9Tl5aOuBkCuyL+qIo7z3wwa+2LX/F8r/tvUClx91JrJWr9X29T5Y97wGgDVGoZ18+bX1wiE97S+7RDGCFIL0YWD0DSoDVc6eWA2BACTCAQVQIq2dghjXuvufL2r0oynuCfeAX0JaYvM5AHN4TTL31jHkLn/vpX9u13kHdfLBckzjlMoKFv0yT3h3i3hjuq+E1AZ6z97H3qbmJU1xZ0ubTlnuTiFPxv6h/n5rVtvSgKDQDkA3J2TGgBOjDkMvH1hhQArRGrYD7wEDl/QCspz9beNX5f+nsLU629Kz7nfGEME18dm35TBsf/2kfSyYnsTAtHO4Log335bPOpg1l2lNPOQUcywfdD8CRkpw1AyqBsh5+Ba8E0N9A0gy07VxlDcDOQmtTnxqamHNH68/d0gfK+7eU+7lD+yKOJYdinn087DrJmp+X11jYFzmxfGuit+6T5t6bUPwb5sotZG/vr7+XgPv7LXzLh7bx6Y9mALIhOTsGlADZDbkCJgNKALIhOTsGymJuFDrr0dAafZ9Ro4dizn7x45En4w+f47lnaWmsHH1zf5FVT7dRo/tgLl1T7kda863rR96OP0s7yrjo//jodL6tmtun9+q+nStcE+qt/f3OeBmBOEURH9/qOuEZwHJZejEQjwElQDwuhdRDBpQAPRw0uRyPgco7wnzq/tAa3XL18PHPaw/t+Un53jEaWHUz1xjTrNEX956ke07e8G5Z6zvlSLD8Hx1q9WPV/dWaO44LbWDSsyb4XJ8QUzMA2ZCcHQNKgBSHXD5NjQElwNSoVkcpMlC5DkAHY9XoPpi0sd7nxT0tPvV0GzW6hUn/z/7jr+5n5TqAcR3DGXco8N5Zyw3eN2zZ+OBYbdvA98HUDGCNiPRZMKAEyGKYFaTFgBLAYkb6ThiYdqeVNYBV99OpWDU6MSnPnXym/Fl/qr08PiGlUKN/dOtb8Ioy1D0ReU/tzvfK/Tl0v0ndb+MsuEOx8B3ghKAZYIIQ/cyLASVAXuOtaCcYUAJMEKKfeTFQWQP4hB5ao5/43XdL2NMvOPnGS25zso/wJtqumy/b8h1hPjihNTr9P1ssui7WPMY3TTm1KZzdXbb9ZNvq/Tc76OgA1wltuOCD7/OcIsu3hGYAy0XpxUB7DCgB2uNWyD1gQAnQg0GSi+0xUH0/wK67XU+XH3zayRQqtfi2De4Qa3Hep1sUx50NBeJc/cBfeMjJrL+dciRwXzj72vz+o6Oj48/J9bvHwsT3WdTi3CMe6v/XXi7vW2BbdufjP+1Tlvk8zRT8tJ5zau3/4d8Mx10zQAqjKR86Y0AJ0Bn16FhiZwwoATqjXh2nwIB5HYA1uuUo6yrLhvW9VROzLWt6a/1AzD0br2VzJ7PWd8oJoYn/VttQ/ydcavWn5TPrZp+9N1b93arzI3BrHcJrBdaepVHz8vNKKWoGKLmQlCEDSoAMB10hlwwoAUouJHXAQNdddvZ+AOsZPtae/s0fP+a4qtbZTt1Lgc81aiOAWPU6629iUt+2/+yLPnAvENczlj+6DmAxI312DKgEym7IFTAZUAKQDcnZMVC5DsB6NLhGxz4c1ug+mKfx7PwNkC85/JIbkJN7y7093PPDvpzxhEAfeMinLe0tuW18q18fPd/hZV0HIA6vA/D8Om1Sluk/1wOs++l/hzMA3ZAsBrphQAnQDe/qNREGlACJDITc6IaByvsBrLq/SY1uhUVM2vB59qd3HCgPGc/jLw2qEutyKy7r3b1VpPpfxLfuPQhdq9T3FE/LOpjrAdbN8XpLF4nvMNYMkO44ybMpMKAEmALJF3QhRTIMKAGSGQo50gUDlesAdKCNGp37fHi+n3U/a9Ovhz16p2Bdzrp/6Zr1DM3JtPFZDxCfdf+mBzc7TApNrl0Qp4nMepc8N8EcUlvNAEMaTcUSzIASIJgyNRgSA0qAIY1mD2JJzcXKGqDtGp3Bc58Pz/ez7qfNh2wsWQxEYkAzQCQiBdNPBpQA/Rw3eR2JASVAJCIF008GZuaOHi49/8G8k1l/h9bofK7ojmu/4jA3b9nhZJ4jL4x9Pqz7eU8w8YtH3nWY3N/P8/o83++MRwJt2HZ0qPZDG+7zqcSClvSZbWEisQMGeD1kijNAB5GqSzGwAgNKgBUI0uFhM6AEGPb4KroVGJipvBv4z1ud+d1YD/jU6Nt/e41ru3HhjJMPF587mesNrgdY07PtwvP3uraWjTOYEFhzs9anGW2o95HZlusBtqUN9dOUWe9Os9+u+uJ9wPSBe8x4X4RmALIkOTsGlADTGHL1kSwDSoBkh0aOTYOBNeyEdTb1PrJVu7NtG/gp1NmMMVTmPQahbX3sP5m/zZmxDnbKCYH3B/O5QNZzOamfgIryk88AZV/UN+lIM0AT9tS29wwoAXo/hAqgCQNKgCbsqe2KDKRusCZWLcVAWatRn4LMeOmnj57+85n01FNmDU19aL+0J46PzLh87C0b+hAL0+rL0ls+cCys6wDE1HUAsiE5awZUAmU9/ApeCaC/gawZmGH9ZNWsPgwRpzj2rGvSRr3IWtB15Ck0acsumnBFHEuO5Wfo+wF2vnKF5ZLTx/LNAUYUeB2D6wHW/eyuxRmA3UgWA2kyoARIc1zk1ZQYUAJMiWh1kyYDlecCVer4lv316avtOpshWnUt9U3WM8Tx6Zc2sWTWwdwXxLq5KBZqu2sSey1gIkrNAIkMhNzohgElQBu8C7M3DCgBejNUcrQNBmZ4320bHVi1L68VtNFvG5hmLG101hGmz9qMrnGdFtqWOJZMfMumiV4zQBP21Lb3DCgBej+ECqAJA0qAJuyp7QUM9E0x43N+l7Wvjz1JYFvqU5BDY7FqXK6jZm9/oja00Fo2Zd64x2bne+XeIeqr1xZqKTGVxCH+i7d+4No0wXcgI0EzwIgEffJlQAmQ79gr8hEDSoARCfrky0BlLxBpqNS72N9PvU9d61Nns971saefbEu9j8y2Pv0yXvJg9UV7yyYFPWvuWP60gUnfYuFHnAHonmQx0A8GlAD9GCd52RIDSoCWiBVsPxio3BMc6rJPHUzMJjWx2RfWJ+wrVLbWA5beisXS0x8Lk3raN5Ev2nTANee7AnhvgDPwFHgvgdUkZXxyohnAGkHps2BACRBjmIXRWwaUAL0dOjkeg4HK+wFiAAojLQaWlpZqHeJ6oNbAU3nDXHkpic8gYnPW3NRTtvzxwSeOJVs+aAawGJM+CwaUAFkMs4K0GFACWMxI78VA343M9wPwvLvPuW0SwfPZPntsLHv6QHz6Y9n84vtfZpNa+dAb/6vVE58GVl+0t2Ihjo8N7dkv+6INMalvW/YZXx8f6L+F6WPj0xdtNAOQDcnZMaAEyG7IFTAZUAKQDcnZMTDDuqoSPfbYxLrP1aeWpQ9WvUsbS7bqe8veRx/qT2i8tKc/vOeY+tRky3/Lz1A+LZwm/TaYASx3pBcD/WFACdCfsZKnLTCgBGiBVEH2h4FyI8cyPvvUoNa5W8L61Hxck1iYFRt0EFoLomlB3yr4191Js1qZ9jQgJvWW7MOz1TY1vXXPbqzn+VjxhvarGcBiUvosGFACrGaY1WYwDCgBBjOUCmQ1DHitAXyArTrY0jfBZFvib+KBQJk4bGrpaWPJPm19bCx86ZszoBmgOYdC6DEDSoAeD55cb86AEqA5h1khDC3YaGsAH2Ks8/pWW9bHbGud77fuAXh4/1uui/vnvudkCofemOVPJ/NcPvvlOXv65houIzCuZcx6fajt8/0WOaH9agawmJQ+CwaUAFkMs4K0GFACWMxInwUDU10DWIyytmbNbdnThm15D4C1HiAm7aknvo+eNvTHwqH9kOSu4m3Sb8AMMKShUixiYMyAEmDMg74zZUAJkOnAK+wxA1NdA/D8N8+dN6nh2Jb1t1XfW3rijKlZ3beFw9hXh5xmq67iitWvZoA0/67k1ZQYUAL4EC2bwTKgBBjs0CowHwYG9X4Arit8gqdNrJqSmDnITThPgR/NACmMgnzojAElQGfUq+MUGFACpDAKCfswdNc6WwOwdmT9TT3P63MgeK6dbWkTS27iD9u27WeseENxGGNo2xTsNQOkMAryoTMGlACdUa+OU2BACZDCKMiHzhjobA1gRRxaU7ZdW6fmj8XbkPQW522M9TIzwJAoVSxioJ4BJUA9L9JmwoASIJOBVpj1DEz1foB6F6pa1nnTrAWrXoT9os9hLftvbY1RaGShHMbqVzNA6EjJflAMKAHqhlO6bBhQAmQz1Aq0joHk1gB0MrQuZNtYcgo+xIqlbRxr75bVL/d0WTY++ib9agbwYVg2g2VACTDYoVVgPgwoAXxYysgmt1A7WwPwPC7rbEs/e/sTbmxYO7KtM4go0B/Wmtb7AegP21If0b1koZ668nCtb6HP768FWUYZ2q9mgGXI1KHhM6AEGP4YK8JlGFACLEOODg2fgc7WAKE1Mev+roYl1IfQGLuKK+d+MQPkTINiz5UBJUCuI6+4zzOgBDhPg75yZaCzNYBFuFU3U8/z6xbONPX0bZr9ptxX2+f7rdhD+9UMYDEpfRYMKAHODbP+ZcuAEiDboVfg5xhIbg1wzqmV/k2z5p5mXyvFnfrx0OskseJp0q9mgFijIJxeMqAE6OWwyelYDCgBYjHZU5zc3f4/PW+jm9K5+awAAAAASUVORK5CYII=" parent="1" vertex="1">
          <mxGeometry x="650" y="170" width="256" height="256" as="geometry" />
        </mxCell>
        <mxCell id="p1c2saggwYmDi9HayLSL-61" value="" style="shape=image;verticalLabelPosition=bottom;verticalAlign=top;imageAspect=0;aspect=fixed;image=data:image/png,iVBORw0KGgoAAAANSUhEUgAAAZAAAAEACAIAAAASu7fYAAAAAXNSR0IArs4c6QAAAARnQU1BAACxjwv8YQUAAAAJcEhZcwAADsMAAA7DAcdvqGQAACd+SURBVHhe7Z0xsjPJcp3/Zeh59GXKoql1UBHagIwXNGjS0hYo0qAni562oFCEtADSli+DswXq4H41ZzKyu3GrGo3b1Y088bEikcjKSiCrCriY4Ztff/sXf13cmP/3v/7qn//rf4z8zX/7v//+P/znFHZ79JITv3790viv/+d/6C2KyPOX/+kfyn+u3w2S7a2rZ+vCujm0OcJuSGG3Ry/c+z6eB13f9oM8Cij/uf54YQn52b11Yd0cOv3b7/rkC0vo3eAApPOQKD+c6BfLC0sbuC6smxMvLA4tGyKF3R5e/vLCKqalLqxPxJ3mthJ1YcULi/dk3+8s5X+fvy6sD4VOR9T+urB8HuQR+35nKf/7/KsXlqgL6+awFRIfeGGx3bXv/Q7E84DHdqT88MN+PXSDfIvVhXV/1PJVUtjt4baCeB6KaVltUF1YNyceVNB3LjU+hd2euOnh3hfWK78fzeDXS6hvWJ8IbY6wG1LY7dEL977nSOs83FV6dT2/E83sp0EaZQv52b11Yd0cOv3b7/rkC0vo3eDl35h4zhMX8ovlhaUNXBfWzYkXFoeWDZHCbg+vnQsr8uTMJA9M7tdDzvkNqAvrE3GnObGCbZ3Cbg+vPV1Yeqi3YnmLXcuPwbN6yDnn9e77/WgGv1+I/EKvTs66sO4PnY6o/doHKez28No52BG9FckDF/JzngWd5Zzj2ff70Qx+vxD5hTx0sC6sm8NWSGgfpLDbE79jGg6GD8NF/amz8ZzjsR2Z3K+HfiF6maCXXBfWzVHLV0lht0cX1uqdpbcCgwDpcv4E5/wGrL6QurBujva0P6BA37nU+BRWXJR4mIFz/srvRz3+uGJkNM+WX6nqG9YnQpsj7IYUVlwUNdTnOZ7znt+JXvGvcuC6fiFklp/dWxfWzaHT7a+Ir78j2A0prLgoHGN1mYOdznnicL8uF0j+xA6/WF5Y2sB1Yd2ceGGxudkQKay4KLR1eWHdgLqwPhF3mttK1IV1J7YuLHq97/ejfr/wWpHRPEu/X4j8oi6sT4FOR9R+7YMUVlyUrQtLHsEfaxp5aA70a62h+E6/X4j8Qh52b11YN4etkNA+SGHFReEY6zy7s/Gc47Edmdyvh34hvsXqwro/avkqKay4KNxWEM/5DVh9IXVh3Zy4oUHfudT4FFZclHiYgXP+yu9H7/DHCiNP4usb1idCmyPshhRWXBQ11Oc5nvOe34l+0r/Kkzr9QoiUn91bF9bNodO//a66sG4Gx1hd5mCnc5443a/LCJI/Ib9YXljawHVh3Zx4YbG52RAprLgotHV5Yd2AurA+EXea20rUhXUnti4sev38d6Wf9wvXFlnG+4XIL+rC+hTodETt1z5IYcVF2bqw5BH88aWRh+ZEv2rrifcLkV/Iw+6tC+vmsBUS2gcprLgoHGOdZ3c2nnM8tiOT+/XQL8S3WF1Y90ctXyWFFReF2wriOb8Bqy+kLqybEzc08LU8hRUXJR5m4Jz3/640p98vRLa3rp6tC+uqqJ1Sci6hzRF2Qwp7H511FvtQQ32e4znv+Z1oZn+8sIT87N7aSZdEvfy3v/+Hf/l3/+Xbu4BO//a7fvjCUnks+m2dxT44xuoyBzud88SF/CK+EG/j2kbXQ43ktoLnd0G8sNjcbIgU9g5UmBcVz+ss9sE7vLywbgAvpC6sy6NG+rbqv7C4NcRPXlheVDyvs9jH1oXFe77v96MZ/HVh3Qr1sue2EnQ6ovb/zIUlVB6LfltnsY+tC0sese/3oxn8qxfWYyOl119cBbVTSs4lbIXEj11YorPOYh8cY51nd1bvts85HtuRyf166BfiW6wurPujlq+SwoqLwm0F8ZzfgNUXUhfWyegrPfqn//lvzTrUjhsa9J1LjT/L3yrb9Vqa9WWnt/Fj0Vua4Jxv/U4UIyM9vyv9pF8l1TesGfnz//6nt0KbI+yGs/ypvN2kt/Fj0Rurtxp4hznn+niwH+RRwCpP4s/y+4XIFvKzi+rCOpk//d0/qh/vG+l0+2by9QOtnNoHZ/mfV9s/prfxY9EbK/Ru6z0ReofjOU/Yr0sBkj9xol8sLyxtpLqwbk68ONjcbIiz/Km84kV4e/Vu6+3lHeac34C6sD4Rd5pbQ7Ctz/Kn8ooX4R3Wu623l3eYc857vvU7kXBM5PnvSj/p9wuRX3g71YV1c+h0RO3XPjjLn8orXmTrwpJH8EefRh4aeRSz6t+K/2G/X4j8Qh52UV1YN4etkGCzJqf4AX8qr3gRjrHOs9/heM7x2I5M7tdDvxDfYnVh3R+1fCpSecWLcFtBPOc3YPWF1IVVvIV4kEDfubThUtjpbNV5lD8tdzhaIsE5f+X3oxn8fiGy/Zbq2bqwirfA9oqwC1PY6WzVeZQ/Lfc6OsaSH2ohLQ2syDnXdWk/yKOAq/j9QmQL+XlX68Iq3gI77Lff9b4D/CJbdR7lT8u9iM5w+t9B00JCq2s5VoznPHEhv1heWHpj68Iq3kI8wBwqNmIKO52tOo/yp+VewbdV/B/qYDmtruVYkXN+A+rCKn4O7zBOrzj8AB/CVp1H+dNyr6AD7Nvq2wuLGvb9fjSD3y9EfuG3ty6s4i2wwyLadsce4EPYqvMof1ruRXxncVuJrQtLHrHv96MZ/H4h8gt5eFfrwireAlswcfgBfp2tOo/yp+VeR8dY8kOOsc6zV4znHI/tyOR+PfQL8S1WF1bxLrTVVklhp5PKO5y03OFwW0E85zdg9YXUhVW8hXiQQN9BtOFS2Ols1Tn6+4uM1TxpuW/Rn3io838XjGMcudmFVd+wip+A7RXh8z+FvQ9tdyk5l2zVqevG5wT4o2/LL2M1T1ruW9L/7Ne3aCFXouUEL/we0svR2xjf3rqwirfADmvfBL5+GN53gPehvf7if7eRc5J44j/q9T7/XwFbjlpIaHXZWu5+6HWJurCK9xIPMFuNE5XC3oFvq/QP1FbZqnOUs14va3FhRbR08sCF/MDDurCK9+IDzD4T7MIU9g50Q/m26r+wUp3Yz3+3iv6zXi9rpQtLD7V0cl7aL5tXWhdW8Ra8w4y2nXZhCnsTvrOe31Ziq075xfPfrZJ/NU9a7nBYK5YBfgmJ6/p5pXVhFW+BI53QLkxh70NX1be3ldiqc9WOJP9Zrzd+pzM63lrah/w2fr3YurCKt6ANt0oKO51U3uGk5Q5HZ3j1ztLSGARIF/Ubnq0Lq5gatqnU+e8lNavb1knQJ3lE35V0Wnp+t4p+Gat50ss5nLPWPYu6sN5F558kxXPSv3Z0ODrhvnqAP+V07OMtIPijb8svYzVPejmHc9a6Z1En6i3oqtJh+NPf/WPdWS+y9e8fHTVy4Ns3rq+/R+TUgde45Il/K096OYdz1rpnUcfpeHxbQd1ZMxMPvAwf+FG28qTlDuesdc+iztLx6IbybVUX1uT4wHPafeCxn/9uFf1bedJyh3PWumdRZ+kt+M6q22pyOPARDrz84vnvVsm/mictdzhnrXsWdZzeha6quq3mh6snoQO/akeSfytPWu5wzlr3LOpEFR+NzvZbScsdTlrOpLDbUBdWY/k7xRaK1IYYjU/LFZOgBsU/64S+s/jYL1n2XR59qZGxmufxY/iXOv+9sFTet2ytm8JuQ11YjdELaDQ+LVdMgk546hd/UvnPq4j8ug7i7SD4o0zGah7/C1+dpPK+ZWvdFHYb6sJq1IX1mXDg2zecr3/WxoHXKHQZAQ/tT8i/ledPT/8tsOWYyvuWrXVT2G2oC6ux/OTcQpHaEKPxabliEtQgH3gZPvCjbOVJyx3OWeueRV1YjbqwPhM1iAPPafeB98NoG31rVlj8lr2VJy13OGetexZ1YTV0rajTXDGQHoKcvrCG4tNyxSSoRz7q8cDTPveah4buJ/9qnrTc4Zy17lnUhdVQm/vRhkie59x4A10drp5E7O9Wr5N/K09a7nDOWvcs6sJqqMdvJS1XTEJq0+Gk5Q4nLWdS2G2oC6v4aPQ3VPyzTug7iw788p8CL3+3in4Zq3nScodz1rpnURdWcQwX/X9F0gn31QP8SaVjH28BwR9fW34Zq3nScodz1rpnURdWcQC6qjr/O4CzwYF//EsBX/KB17jkiX8rT1rucM5a9yzqwipexbdV53+oZirigZfhAz/KVp603OGcte5Z1IVVvIpuKN9W172wOO0+8NjPf7eK/q08abnDOWvds6gLqzgA31nXuq0EBz7CgZdfPP/dKvlX86TlDuesdc+iLqziGHRVXe62Elw9CR34VTuS/Ft50nKHc9a6Z1EXVvHR6Gy/lbTc4aTlTAq7DXVhXQx9549/hgh9xmqDlv9Yf8/vVtEvYzVPal/xInVhXQydhHhaBH8ClP9Yv64bPRWRR09t+WWs5kntm4ez/oR/cd26sC4GB+PxD7G/5INR/mP9Gpc88W/lSe2bBF0Zfz7jv5up5Xhzdq9bF9bFiAdDhg9G+Y/1j7KVJ7VvBnxbwY/dWb6tYN+6dWFdDB8MNz4dvPIf4sd+/rtV9G/lSe2bAd0Uvq1++MLymyPqwvoIOBiRePDKf6BfPP/dKvlX86T2TYLvrB+7rcB31u5168K6GByVhA5G+cWB/lU7kvxbeVL75kFXxu5b4xVeXLcurIuhM1BciNS+4kXqwvohfvtdnf99umYtbH2djn+GCH2262D0/M5S/vf5Zaz2pfzH+uvC+iH8H557EXVOvYzotKiRamfsrpBHT5X/Z/wyVvtS/mP9dWH9EH96+l+j6x9pZPvG9fXPpORUIzUuKT/8gH+rL+U/1l8X1sWIjZThRhbnstWX8h/rrwvrYriRdNGNxN73+0v5X/dv9aX8x/rrwroYNDLiBot9v7+U/xD/Vl/Kf6C/LqyLwVFJqJGrdqT88Cb/Vl/KLw7014V1MdSzovhY6sK6GPpurG/LEX0WqZGjv7/ETRAZzfNufyrPjOYp/7X8Mlb3eV1YF0Odi90V6q4aqXbG7gq+VG/5V9mR593+VSass/zH+mWs7vO6sC4Gjfztd7mRGpd869fmgORPnO6/Sp2J8sMO/9Y+rwvrYsRGynAji+JObO3zurAuhhtJF91I7NHfC4TnRkbzvNsvLlFn+Y/yb+3zurAuBo2M0Ej5BX80aeSheeLX3KH4s/xXqbP8R/lX93ldWBeD1ibUyFU7Un4oP0zu39rndWFdDPWsKD6WurAuhr4bx6/NQp9FauQ7fkd4hz9uvshonqv708s3o3nu6pexus/rwpqFzv/pWHUudleou2pk+vtf8KV6Nv8qF6r/KP8qH/g+bPllrO7zurCmQFfVn/v+O3E08uuf9j7kRmpcMq1fmxKSP3F7f70PyQPyb+3zurDOx7cVPL+zYiNluJFFcSe29nldWOejG8q3Vf+FRRfdSOx9vxf8vF+45shonqv7Rb0Pq/6tfV4X1hT4znp+WwkaGaGR8gv+uNDIQzOhXzUPxd/VX+/Dln91n9eFNQu6qr69rQStTaiRq3ak/FB+mNy/tc/rwroY6llRfCy/Xvk7s/w/75cRvzYLfRapkaN5yl/+d/jj5RIZzSNjdZ//Sn838oQmlH9Ov4zYXSGnGjmap/zlf4d/lR37U8bqPv9FxoSeSB4oP5zop5Ff/7T3ITcyhpnyQ/nhx/y6dCD5E0/8W/v8l/6vuBCxkTLcyKK4E1v7/BcPnv89Wf55/G6kPQpQI7H785S//O/zC+/JSH+erX3+S08Ivrxp5KEp/4R+tzA2kqeG8pS//O/za08OxS/9q/v8j9+w9MB2pPwwiZ/WJmLMm9Y15Yfyw5v8W/u8fsMqiuIyrF9Yv36V/0H54cb+9O/lFpPz+JMwdVEeNbL85f8EfzoPxeQ8GrmEBi8pP5QfbuBP56GYHLWsVPpcpfNQTM4ff9urebYj5Yfyw8386TwUk9Oax9djjW5k+cv/Cf50HorJeTQPaOSS8kP54Wb+dB6KyVH7SqXPVToPxeS0tpVKn6l0HorJaW1byn/kR3b4t5QiYYd/SykSdvi3lCJhh39LKRJ2+LeUImGHf0spEnb4t5QiYYc/nYdich69XxUd9Z/6bvCof0tb8aP+LW3Fj/q3tBU/6t/SVvyof0tb8aP+LW3Fj/q3tBU/6k/noZicR+9LpY9VOg/F5LS2lUqfqXQeislpbVuK78x8bbYd6fQ/cq0pBtiOdPofudYUA2xHOv2PXGuKAbYjnf5HrjXFANuRTv8j15pigO1Ip/+Ra00xwHak0//ItaYYYDvS6U/noZicR+9X1fP3f4//kWtNW/Gj/keuNW3Fj/ofuda0FT/qf+Ra01b8qP+Ra01b8aP+R641bcWP+h+51rQVP+pP56GYnEfvS6WPVToPxeS0T5uEGpk8UH4oP9zAn85DMTl/fLU28qiR5S//J/jTeSgm59HIJTR4Sfmh/HADfzoPxeSoZaXS5yqdh2Jy/vjbXs2zHSk/lB9u5k/noZic1jy+Hmt0I8tf/k/wp/NQTM6jeUAjl5Qfyg8386fzUEyO2lcqfa7SeSgm548/Cf0lWaiRyebjyMZ//132xxhPj3kcJueBSsnBftuuDaNVX/W/rJQc7Lft2jBa9RPUn85DMTmtbVLcOnroLYJtCEvEAEE2DI3EyH6rYiV6yLq2DWGJGCDIhqGRGNlvVaxED1nXtiEsEQME2TA0EiP7rYqV6CHr2jaEJWKAIBuGRmJkv0PpPBST09oW5Y0CdtrPBjL2O8YPMfD8mLyua/BDjKr/rfK6rsEPMaaqP52HYnJa24bEZjLNex1V/edqqvrTeSgmp7VtVWlXaeQjkV8f9BDDn5Mal7NOVKpEY9X/k0qVaJyw/nQeislpbVsVm4bNFB8Kbzge8pQgzJ6vNKeJGigmPhRV/w+IGigmPhTz1J/OQzE5rW1bYt+wdWx7k6XdJtKU0xWLsV31/5hiMbanqj+dh2JyWtuG5C31kxvrQFX952qq+tN5KCantW1L7CeN6VNRX+aR/THGEzsVp2gUpHLmFNMvz3I2jFZ91f+lOEWjIJUzp5h+eZazYbTqJ6g/nYdiclrbnouug7dCJAaINm1QTIx5jJ/dp5gqVQ4xQLRpg2JizGP87D7FVKlyiAGiTRsUE2Me42f3KaZKlUMMEG3aoJgY8xg/u1Q6D8XktLZ9q9j45W5zAPaLcqqjEkpOpbHqfy6nOiqh5FQap6o/nYdiclrbhjS0ISZU1X+upqo/nYdiclrbtsR+YuTDUCO/PsjG8OekxjSlX4o3JJTTmQ3B/WIKI6k0UrZsDK+iMU3pl+INCeV0ZkNwv5jCSCqNlC0bw6toTFP6pXhDQjmd2RDcL6YwkkojZcvG8Coa05R+Kd6QUE5nNgRHpfNQTE5r23PRaVrOJvCGS3vCwTvkJEI55YmZgchRMZEMFFz1L+UkQjnliZmByFExkQwUPE/96TwUk9Pa1im67k1mw7S4vSKDU2HYfkS8JrJV/Vsig1Nh2H5EvCayTVV/Og/F5LS2Dcn7AJr3Oqr6z9VU9afzUExOa9uW2E8a06eivswj+2OMJ3YqTtEoSOXMKaZfnuVsGK36qv9LcYpGQSpnTjH98ixnw2jVT1B/Og/F5LS2PRddB2+FSAwQbdqgmBjzGD+7TzFVqhxigGjTBsXEmMf42X2KqVLlEANEmzYoJsY8xs/uU0yVKocYINq0QTEx5jF+dql0HorJaW37VrHxy93mAOwX5VRHJZScSmPV/1xOdVRCyak0TlV/Og/F5LS2DWloQ0yoqv9cTVV/Og/F5LS2bYn9xMiHoUZ+fZCN4c9JjWlKvxRvSCinMxuC+8UURlJppGzZGF5FY5rSL8UbEsrpzIbgfjGFkVQaKVs2hlfRmKb0S/GGhHI6syG4X0xhJJVGypaN4VU0pin9UrwhoZzObAiOSuehmJzWtuei07ScTeANl/aEg3fISYRyyhMzA5GjYiIZKLjqX8pJhHLKEzMDkaNiIhkoeJ7603koJqe1rVN03ZvMhmlxe0UGp8Kw/Yh4TWSr+rdEBqfCsP2IeE1km6r+dB6KyWltG5L3ATTvdVT1n6up6k/noZic1rYtsZ80pk9FfZlH9scYT+xUnKJRkMqZU0y/PMvZMFr1Vf+X4hSNglTOnGL65VnOhtGqn6D+dB6KyWltey66Dt4KkRgg2rRBMTHmMX52n2KqVDnEANGmDYqJMY/xs/sUU6XKIQaINm1QTIx5jJ/dp5gqVQ4xQLRpg2JizGP87FLpPBST09r2rWLjl7vNAdgvyqmOSig5lcaq/7mc6qiEklNpnKr+dB6KyWltG9LQhphQVf+5mqr+dB6KyWlt2xL7iZEPQ438+iAbw5+TGtOUfinekFBOZzYE94spjKTSSNmyMbyKxjSlX4o3JJTTmQ3B/WIKI6k0UrZsDK+iMU3pl+INCeV0ZkNwv5jCSCqNlC0bw6toTFP6pXhDQjmd2RAclc5DMTmtbc9Fp2k5m8AbLu0JB++QkwjllCdmBiJHxUQyUHDVv5STCOWUJ2YGIkfFRDJQ8Dz1p/NQTE5rW6foujeZDdPi9ooMToVh+xHxmshW9W+JDE6FYfsR8ZrINlX96TwUk9PaNiTvA2je66jqP1dT1Z/OQzE5rW1bYj9pTJ+K+jKP7I8xntipOEWjIJUzp5h+eZazYbTqq/4vxSkaBamcOcX0y7OcDaNVP0H96TwUk9Pa9lx0HbwVIjFAtGmDYmLMY/zsPsVUqXKIAaJNGxQTYx7jZ/cppkqVQwwQbdqgmBjzGD+7TzFVqhxigGjTBsXEmMf42aXSeSgmp7XtW8XGL3ebA7BflFMdlVByKo1V/3M51VEJJafSOFX96TwUk9PaNqShDTGhqv5zNVX96TwUk9PatiX2EyMfhhr59UE2hj8nNaYp/VK8IaGczmwI7hdTGEmlkbJlY3gVjWlKvxRvSCinMxuC+8UURlJppGzZGF5FY5rSL8UbEsrpzIbgfjGFkVQaKVs2hlfRmKb0S/GGhHI6syE4Kp2HYnJa256LTtNyNoE3XNoTDt4hJxHKKU/MDESOiolkoOCqfyknEcopT8wMRI6KiWSg4HnqT+ehmJzWtk7RdW8yG6bF7RUZnArD9iPiNZGt6t8SGZwKw/Yj4jWRbar603koJqe1bUjeB9C811HVf66mqj+dh2JyWtu2xH7SmD4V9WUe2R9jPLFTcYpGQSpnTjH98ixnw2jVV/1filM0ClI5c4rpl2c5G0arfoL603koJqe17bnoOngrRGKAaNMGxcSYx/jZfYqpUuUQA0SbNigmxjzGz+5TTJUqhxgg2rRBMTHmMX52n2KqVDnEANGmDYqJMY/xs0ul81BMTmvbt4qNX+42B2C/KKc6KqHkVBqr/udyqqMSSk6lcar603koJqe1bUhDG2JCVf3naqr603koJqe1bUvsJ0Y+DDXy64NsDH9OakxT+qV4Q0I5ndkQ3C+mMJJKI2XLxvAqGtOUfinekFBOZzYE94spjKTSSNmyMbyKxjSlX4o3JJTTmQ3B/WIKI6k0UrZsDK+iMU3pl+INCeV0ZkNwVDoPxeS0tj0XnablbAJvuLQnHLxDTiKUU56YGYgcFRPJQMFV/1JOIpRTnpgZiBwVE8lAwfPUn85DMTmtbZ2i695kNkyL2ysyOBWG7UfEayJb1b8lMjgVhu1HxGsi21T1p/NQTE5r25C8D6B5r6Oq/1xNVX86D8XktLZtif2kMX0q6ss8sj/GeGKn4hSNglTOnGL65VnOhtGqr/q/FKdoFKRy5hTTL89yNoxW/QT1p/NQTE5r23PRdfBWiMQA0aYNiokxj/Gz+xRTpcohBog2bVBMjHmMn92nmCpVDjFAtGmDYmLMY/zsPsVUqXKIAaJNGxQTYx7jZ5dK56GYnNa2bxUbv9xtDsB+UU51VELJqTRW/c/lVEcllJxK41T1p/NQTE5r25CGNsSEqvrP1VT1p/NQTE5r25bYT4x8GGrk1wfZGP6c1Jim9EvxhoRyOrMhuF9MYSSVRsqWjeFVNKYp/VK8IaGczmwI7hdTGEmlkbJlY3gVjWlKvxRvSCinMxuC+8UURlJppGzZGF5FY5rSL8UbEsrpzIbgqHQeislpbXsuOk3L2QTecGlPOHiHnEQopzwxMxA5KiaSgYKr/qWcRCinPDEzEDkqJpKBguepP52HYnJa2zpF173JbJgWt1dkcCoM24+I10S2qn9LZHAqDNuPiNdEtqnqT+ehmJzWtiF5H0DzXkdV/7maqv50HorJaW3bEvtJY/pU1Jd5ZH+M8cROxSkaBamcOcX0y7OcDaNVX/V/KU7RKEjlzCmmX57lbBit+gnqT+ehmJzWtuei6+CtEIkBok0bFBNjHuNn9ymmSpVDDBBt2qCYGPMYP7tPMVWqHGKAaNMGxcSYx/jZfYqpUuUQA0SbNigmxjzGzy6VzkMxOa1t3yo2frnbHID9opzqqISSU2ms+p/LqY5KKDmVxqnqT+ehmJzWtiENbYgJVfWfq6nqT+ehmJzWti2xnxj5MNTIrw+yMfw5qTFN6ZfiDQnldGZDcL+YwkgqjZQtG8OraExT+qV4Q0I5ndkQ3C+mMJJKI2XLxvAqGtOUfinekFBOZzYE94spjKTSSNmyMbyKxjSlX4o3JJTTmQ3BUek8FJPT2vZcdJqWswm84dKecPAOOYlQTnliZiByVEwkAwVX/Us5iVBOeWJmIHJUTCQDBc9TfzoPxeS0tnWKrnuT2TAtbq/I4FQYth8Rr4lsVf+WyOBUGLYfEa+JbFPVn85DMTmtbUPyPoDmvY6q/nM1Vf3pPBST09q2JfaTxvSpqC/zyP4Y44mdilM0ClI5c4rpl2c5G0arvur/UpyiUZDKmVNMvzzL2TBa9RPUn85DMTmtbc9F18FbIRIDRJs2KCbGPMbP7lNMlSqHGCDatEExMeYxfnafYqpUOcQA0aYNiokxj/Gz+xRTpcohBog2bVBMjHmMn10qnYdiclrbvlVs/HK3OQD7RTnVUQklp9JY9T+XWwnN+5qcSqN3DtjvmBflVD0J03koJqe1bUhDG2JCVf3naqr603koJqe1bUvsJ0Y+DDXy64NsDH9OakxT+qV4Q0I5ndkQ3C+mMJJKI2XLxvAqGtOUfinekFBOZzYE94spjKTSSNmyMbyKxjSlX4o3JJTTmQ3B/WIKI6k0UrZsDK+iMU3pl+INCeV0ZkNwVDoPxeS0tj0XnablbAJvuLQnHLxDTiKUU56YGYgcFRPJQMFV/1JOIpRTnpgZiBwVE8lAwfPUn85DMTmtbZ2i695kNkyL2ysyOBWG7UfEayJb1b8lMjgVhu1HxGsi21T1p/NQTE5r25C8D6B5r6Oq/1xNVX86D8XktLZtif2kMX0q6ss8sj/GeGKn4hSNglTOnGL65VnOhtGqr/q/FKdoFKRy5hTTL89yNoxW/QT1p/NQTE5r23PRdfBWiMQA0aYNiokxj/Gz+xRTpcohBog2bVBMjHmMn92nmCpVDjFAtGmDYmLMY/zsPsVUqXKIAaJNGxQTYx7jZ5dK56GYnNa2bxUbv9xtDsB+UU51VELJqTRW/c/lVEcllJxK41T1p/NQTE5r25CGNsSEqvrP1VT1p/NQTE5r25bYT4x8GGrk1wfZGP6c1Jim9EvxhoRyOrMhuF9MYSSVRsqWjeFVNKYp/VK8IaGczmwI7hdTGEmlkbJlY3gVjWlKvxRvSCinMxuC+8UURlJppGzZGF5FY5rSL8UbEsrpzIbgqHQeislpbXsuOk3L2QTecGlPOHiHnEQopzwxMxA5KiaSgYKr/qWcRCinPDEzEDkqJpKBguepP52HYnJa2zpF173JbJgWt1dkcCoM24+I10S2qn9LZHAqDNuPiNdEtqnqT+ehmJzWtiF5H0DzXkdV/7maqv50HorJaW3bEvtJY/pU1Jd5ZH+M8cROxSkaBamcOcX0y7OcDaNVX/V/KU7RKEjlzCmmX57lbBit+gnqT+ehmJzWtuei6+CtEIkBok0bFBNjHuNn9ymmSpVDDBBt2qCYGPMYP7tPMVWqHGKAaNMGxcSYx/jZfYqpUuUQA0SbNigmxjzGzy6VzkMxOa1t3yo2frnbHID9opzqqISSU2ms+p/LqY5KKDmVxqnqT+ehmJzWtiENbYgJVfWfq6nqT+ehmJzWti2xnxj5MNTIrw+yMfw5qTFN6ZfiDQnldGZDcL+YwkgqjZQtG8OraExT+qV4Q0I5ndkQ3C+mMJJKI2XLxvAqGtOUfinekFBOZzYE94spjKTSSNmyMbyKxjSlX4o3JJTTmQ3BUek8FJPT2vZcdJqWswm84dKecPAOOYlQTnliZiByVEwkAwVX/Us5iVBOeWJmIHJUTCQDBc9TfzoPxeS0tnWKrnuT2TAtbq/I4FQYth8Rr4lsVf+WyOBUGLYfEa+JbFPVn85DMTmtbUPyPoDmvY6q/nM1Vf3pPBST09q2JfaTxvSpqC/zyP4Y44mdilM0ClI5c4rpl2c5G0arvur/UpyiUZDKmVNMvzzL2TBa9RPUn85DMTmtbc9F18FbIRIDRJs2KCbGPMbP7lNMlSqHGCDatEExMeYxfnafYqpUOcQA0aYNiokxj/Gz+xRTpcohBog2bVBMjHmMn10qnYdiclrbvlVs/HK3OQD7RTnVUQklp9JY9T+XUx2VUHIqjVPVn85DMTmtbUMa2hATquo/V1PVn85DMTmtbVtiPzHyYaiRXx9kY/hzUmOa0i/FGxLK6cyG4H4xhZFUGilbNoZX0Zim9EvxhoRyOrMhuF9MYSSVRsqWjeFVNKYp/VK8IaGczmwI7hdTGEmlkbJlY3gVjWlKvxRvSCinMxuCo9J5KCante256DQtZxN4w6U94eAdchKhnPLEzEDkqJhIBgqu+pdyEqGc8sTMQOSomEgGCp6n/nQeislpbesUXfcms2Fa3F6RwakwbD8iXhPZqv4tkcGpMGw/Il4T2aaqP52HYnJa24bkfQDNex1V/edqqvrTeSgmp7VtS+wnjelTUV/mkf0xxhM7FadoFKRy5hTTL89yNoxWfdX/pThFoyCVM6eYfnmWs2G06ieoP52HYnJa256LroO3QiQGiDZtUEyMeYyf3aeYKlUOMUC0aYNiYsxj/Ow+xVSpcogBok0bFBNjHuNn9ymmSpVDDBBt2qCYGPMYP7tUOg/F5LS2favY+OVucwD2i3KqoxJKTqWx6n8upzoqoeRUGqeqP52HYnJa24Y0tCEmVNV/rqaqP52HYnJa27bEfmLkw1Ajvz7IxvDnpMY0pV+KNySU05kNwf1iCiOpNFK2bAyvojFN6ZfiDQnldGZDcL+YwkgqjZQtG8OraExT+qV4Q0I5ndkQ3C+mMJJKI2XLxvAqGtOUfinekFBOZzYER6XzUExOa9tz0Wlazibwhkt7wsE75CRCOeWJmYHIUTGRDBRc9S/lJEI55YmZgchRMZEMFDxP/ek8FJPT2tYpuu5NZsO0uL0ig1Nh2H5EvCayVf1bIoNTYdh+RLwmsk1VfzoPxeS0tg3J+wCa9zqq+s/VVPWn81BMzV/89f8H7h/B2xRLkmUAAAAASUVORK5CYII=" parent="1" vertex="1">
          <mxGeometry x="650" y="620" width="400" height="256" as="geometry" />
        </mxCell>
        <mxCell id="p1c2saggwYmDi9HayLSL-62" value="" style="shape=image;verticalLabelPosition=bottom;verticalAlign=top;imageAspect=0;aspect=fixed;image=data:image/png,iVBORw0KGgoAAAANSUhEUgAAAeAAAAFoCAIAAAAAVb93AAAm20lEQVR4Ae2dX6wdR33Hjyt4qkCNLSAJEnKfCrVTgfLkSAY1IlSqeSCN2qQClKgESptQ3URqlYfUyKYPVKghbeIk0ASBEqSYKDUP3EpgRAVG8VOah9hJ+tJaSJBA5ZuKqA9VIrmz53v+/O6ZM3tnz87uzu5+ovXcOb/5zW9+85l753yzmrNn36Hrb5/wXwoCxx/4pgtz8t47XMkFAQhAoD6B36gfgggQgAAEINAEgTUK+tzZr66MdPSme1YsennsM19UZVFuP3HC1UN217RyyVO9VppKXqpXyKFqtFCckP2dHziyaPr1y+cX9VClqn8oTrxdfJrmEJ8PnhBohMAIgqKgR7DITBECEOgngbfZtH3trFbZQzpaSk2qTf4qQ3a1yt/6qK7WmNL3V8yYvvE+0r9SyrauCL5FdpV+q7XYuvwpIQABCFgCKGhLgzoEBkOAiQyBwC4FLY0svWwnJ7u12HpIt4bstm9f6iG1W1VZW/+0c/dpW4v/fxtpRycaBCDQBAEUdBNUiQkBCEAgAYFdCtrXzhpBdl9Hh3RZyK5oUnblPvLMrQzp6Pg8FSHeP95TPMXW9pLdWqhPJhMgQKAXBFDQvVgmkoQABMZIYKagrUZW3cKQdpZddbWG9FrIrl5+KZWnXn7d+svHWlQP2dVap9Rd4zoRbN+00Wxk1cvpyYcSAhDoCwEUdF9WqsU8GQoCEMiDwExBW10cSizkY1Wb7Vtut54x9ZBGDtljYtb30T1lXxfLEmqtP66NIAKiLbuty+L7yE4JAQjkTAAFnfPqkBsEIDBqAjMFLQa6y6y69LIsKmVRqy2lzqxF9ZBdrX4p3adeqvs+soRaQ3b1SlROpIsVTUpZdb9Ua7y/HyHeIm7x/nhCAAL5E0BB579GZAgBCIyUwJqn2Y2UBNOGAAQgkBmBxAo6s9mRDgQgAIEeE9j35JNP9jh9UocABCAwXAIo6OGuLTODAAQqEMjRdd/Ozk6OeZETBCAAgdETQEGP/lcAABCAQK4E2KBzXRnygkBOBMilEwJs0J1gZ1AIQAACexNgg96bER4QgAAEOiHABt0JdgYdFgFmA4FmCLBBN8OVqBCAAARqE2CDro2QABCAAASaIcAG3QxXoi4JUIMABDYkwAa9ITi6QQACEGiaABt004SJDwEIQGBDAmzQG4JL1Y04EIAABEIEdn2jSsgpxh76vpWYvvhAoO8Eyr91SLOTj+p1Sv7W6tCr31frWL4K8qk/Fgq6PkMiQAACEGiEQIKn2emd5JbLB9InSMQIAs8euOy8Ur1ju1BJrrMvXlUpzk3XvV7Jv2nnqvmfvPcOl1L5KugvpdzHBSm56kcoCb5o2r9/v6sfP3ivK5u4Tl56oFLYy+e/6/zfeusZV4aut73tj13Tx0+95kp9F6irRF4/evAt5/mrH//ClaHryf1PuKbtJ064Ulf5OqZaKRS0aFNCAAIQyI5AsnvQ2c2MhCDQKYGQhtre3nZ5HTt2zJV1LuncOhH8vnk+Hf7vX/g9l+qnd/7RlaHryf2Fz2RSKGj7Pfohf9mltaWd3/2Ra2VcW5772g/W2mVcu9auqf5ao6AdRi4IQAACORJAQee4KuTUawLSU5qC6uX3K+W5WRlzp/if//p3XfCD54s7rZeOFH/yfv38U593Pnle554r1Ou5ya2l6RU+UsRWQR+94WMrvRRtxbh4+fZDDy3qqrx58QuqrC21vmpSPe1ao6DFlhICEGiRAEPFESjeTuM88YIABKIIpNVQUUOWOn32Ky8t23+6rE5M/bwx51aVLo7Pyvpvv7z5zMq1s/Jpeq1R0OJMCQEIQCA7Aijo7JaEhPpLQHcha+dPgF0EdE5ZJnve+Xt3Xe2M5eejnYO7btwqNjobxxkX169+vKjOKjHauZ21RkHPloQfEIAABHIjULyx5JYT+UCgpwTK70i2o7l6iq4kbZ1TloM97xx3Prr4BOBkUnwC8B9e/JIL8umdz7gydMVoZ/VtZ61R0KJN2RsCJAqB8RBAQY9nrZlpSwR8pVyutlpKq7fDfO4VewJ6ed753HRGMeejp44TnYD2/XVWuvyzgorgl02vNQraZ44FAhCAQBYEUNBZLEOyJAgEgcERsOea7eRCdutj6yH/Omelbfwm6ijoJqgSEwIQgEACAijoBBBzCHHylbM5pLHM4e3Lakzt/CsxXi36VMy/xcx6P1TM8513T7J4ishuy+ornY/+8N1nXIPOO9uzH85Y8/KfB10zYGT3USnoSCa4QQACEMiCAAo6i2UgCQjUIWC/oyTm+XZN+9eZS/2+0s7lz3euOspmZzyqjuL7o6B9JlggAAEIZEFgqaCzSIckIACBKgSkhbeeO+06nX7hDVeevOtOV4Z0tPyvPPqY87l44oIrD5d+Q6D89U0r+pTde44W3ygYiu8CZnX5z3eOSU8zVV/VY3o14YOCboIqMSEAAQgkIICCTgCREBDoioDVzsrhmlOPu4qvo6WFrXZ2bu66cPXdrjz82sOutJf8rXZW6y/PfdJV6ujomGdouCGqXJP5MzqKUxyhjlW1cFX/0Lh17CjoOvToCwEIQKBBAijoBuESGgJNE9B95/hRdN853j8HFRmfbcizv7NAQYfWFDsEBkKAafSXAAq6v2tH5pkSaPPZda9Oz2zovrNwyOKfspBFZzZ031n+/t1n2eWve8267yz7e45+21XU6iobX3pG3dffX5w/8YOUt1p/eR69wdqW9f5qZ80BBS0OlBCAAASyI4CCzm5JSKhVAoMYTKrZTkVnMKzF1kOq2fqoLqUsHW0tqm9W6rnM6iv9q7pflrdafxtTz83o6rN/Nqv6dRR0fYZEgAAEINAIARR0I1gJCoGmCeiEctOjKL50tOr1y9BzmetHVoTtJ4pvIFS97yUKuu8r2Gj+BIcABLokgILukn7Csauehz14fu9n7Nr0Lh2p9qsytviWVdP1/fv3Nz2Ei19+F7uOpr74/Ldc/Pjr0PW3O+enb/6ZK3VXWmc/9Lw6+8SMT3ztqPP57p/r2wpddaLWojb/Z891WH95qlXPw7Njqd609p/nuPyJgl6yoAYBCEAgKwLVZFFWqXeeDAlAoHMCRz5VPJfu6A0fc5lcf+i3XXnTda+7Uirb6lwp4hj/rX+/30XQdeyvvuMqMfGdWyeX1bxKQPpX+lqtsttSPrKo/u7JF/QyqxIFndVykAwEIACBJQEU9JIFNQj0goA9v/Hlp//H5exrZ/lIRzsHd/3NI//pSl3l/luTpYLe/qc/cV3OvniVK602t/GtTnduDV26C6zgqn99svwUoiyhVtltKX/dU/7c5FbX5Eezrao7t5avxhR0y/NgOAhAAAKDI4CCHtySMqExEbjvtt9y0z37oiv2uOQpp3J/6W5pZPl3W+rUxyGTxDs/cMS9kgp2FXdZhWtbrd25uUutrrK45CMdLaMsfn2WyfRUiVqbLlHQTRMmPgQg0DMC+aSLgs5nLcgEAlEEfIX7/MX/mvYsTnHoyXM/f+QWZ1FdJ3zdy8VV7q/n1en8hrroFMdksj7+qU/Lq6lS56ClfOcnoJen+HWWWaekdXJjMinOQWvWb14s6vKZn48uLLZVpzg+90qhyuc+y7nMW4v71FbFLz2arKGgm6RLbAhAAAI1CKCga8CjKwS6IyCFO9e2RR7Sxc9PvuRenHvlB648f//nXbmz85ArdamX6pNJcXra95+3Fj/XxPfit3OKo8hm/k+qdq6X59bJxNp1AloWeaiuXn6r7yN/2bsqUdBdkWdcCEAAAnsQQEHvAYhmCORGQIr15FOFOp5Mik8S+hmen7bKU/es5aNPEqpun6Fs/fWZw+/ddbVz+/ipQom7yspl/VeaGnqpkxU6a6E70bqz7Nt95SufyfuL1PxWnQaRzyy+d8JarUX/dv+hoNvlzWgDJ8D0IJCSAAo6JU1iQaBlAtK5B458wo17+fx3Xam6tLN76S7VrS6WT7m/fFx3d1lP99JdiukqLVz29LGUrHSu6kpAddllUSm76redeZ+r6DSIqywu66O6jSOLnG0msjRdoqCbJkx8CEAAAhsSQEFvCC63bp/9ykvNpvTTBOHLQvQ8/rMHyibXRJs0rNW5th4a8UtX/s81bT1XPMXC1k/eUJzzVUzn4C7VpbtjIsvzyqPr74nv+4vijrliuuCVLvuZRp2+0ElnP8iNW+ed8UcPLk9J67yzMy6ueYTCcONWsQHu5V+cmy68i3+fdMWNW65o6UJBtwSaYSAAAQhUJVC8gVTtgz8EINA5ASlWaWE/GauIQ55H3iyeVKdn1B3f2XFBdN5DOle9YhRxyHPng8U5kH2/82EXeefWYizFdy83uKzy9bvPz2YUd5lVt+ed6/v7EdqxoKDb4RwxCi4QgAAEdhNAQe/mwSsIZE9AitXXziFFbCdkv7vy+J8W372iVqttFd/XzjGK+OKJCwroymtfKlSzq7jLxncvK11WO0sdx3SP91S0cn/pcXm2WaKg26TNWBCAAAQqEOiLgq4wJVwhMB4CMYpYNKynLPZ7UnRSwte58YrYeir+lf/4iavM7kGbe9zOWPPSZ/9sEH220Fp8H9sa7+972jhN11HQTRMmPgQgAIENCaCgNwRHNwh0S2AzRWxz3rrwRPFyedO4eLX4V18Rv3rzD6fRVE6rDRT6pN9tLxfnNxS+XDvv9inOTcf4q9eGZY1uKOga8OgKAQhAoEkCKOgm6RIbAi0SCCniF//u94ssXv+2Kz92VfFZOFdZuX4wbX33uaJV36iy4uBehhSx4l+ZXHQ++x5e/60jV+4uWn/5kbL4rnuSS5o6PpTv7z+vIz5aWk8UdFqeRIMABCoRwLmMAAq6jA5tEMiQwOyTfnfd6XK75tTjrtQ1U8Efuda9lAqW52TygrPoks919/+bXrpS+tdV3KWzwOp1+NIDznLh6rtdqevKVAXrRHAo/rueKc5Wq1W9/Piypy31nLn6MfX9h4pjz2+IjOau1nZKFHQ7nBkFAhCAQGUCKOjKyOgAgdYI7DmQFLF1k9azFullq2TVKqVs9bU8jx/8kBxcKdXsKourPL5tDcVfhKpUsZGlbf3TF1b/VgrunK0G111pezLEORTXmaJo8x8Kuk3ajAUBCECgAgEUdAVYuEIgHwLSp9fdX9wp9rNSq+yqy1NP2LjyaPH059lJ5+m5i8OvPeyc5ekq7lL9meUtbmdbXlZl+5629ZnHl3pcdj3rYxlrr5qe2jyZLE86z3sUp5jn9eVPq4WX1nDN1906xSGdbvvpHvQ8H9vSVB0F3RRZ4jZOgAEgMHQCKOihrzDzGygB6VApYk1xpoinL3QGQ9rW93x9+nTma6flVae/43pcOFGc1rC9nHFxKYJeKqbqobKqfyiO7PrGE3sPWnbdg9b9YlnSloovHS3tnDZ+TDQUdAwlfCAAAQh0QAAF3QH0VoZkkMESkD612rlcEVsQ8pRFz1l+/daHipfmOc7Fy/k/f6zybxeUvz09HVLl8xFif0rDSkdL28b2TOc3/4bDe9KF3CMSCnoPQDRDAAIQ6IoACror8owLgQQE4hWx7lDrvrO0s9Toe9c/PGMiLSydru9SUbqy+Dpa/tLOh754WM6uLL+77Rz2vKRblfOezgNzGKmCHtgqMh0IQGCQBFDQg1xWJjV8AlUVsYjozIbuO0s7y/ILNVNmRgAFndmCkA4EIACBOYF1Cnrexk8IQCBDAlvPnS6y+qNzrpT+DSliPevu1g+9w3kevqH49KDuCE/MmQ1pZ32SUP6Tr7zk/HXeWfeadd/ZGd0li1rdy8Uli85szEaZtimyWqeGHhfz++DtbZso6B7/upA6BCAwbALtvRUMmyOzg0BrBGbfRvgvR92Id051tK+Ib/rbD7rWg+ffcuXpyRuulO6WjpZSVuv5pz7vWq3FvVxcUr5SzTLKorpfqlU6Wq2yqL5ZOdetUb0TOukzhAqoEy86iy1LOyUKuh3OjAIBCECgMgEUdGVkdIBAtwRenX6XyulTxYPmTk+Vsp+PVceTp4p2+UspF68nk0tHij//a44Ucaz/TQfvlcOirKqCq/ovBiqpSMPKQdq2uc8T6vkePA9atCkhAIFWCDBI3wgUb6F9y5l8ITBqArPnF3+jOMURAvFrr0G62zPPDK/OfhY/9JnAorb7n8bV05b9unz1JGXVVUqNqh7qK7t8/HL+/OXY50ErNz9OvEWzkE63vXQPep6PbWmqzj3opsgSFwIQgEBNAijomgDpPhgCvZmI9J1Vpn7q8pk8/y3XFK8oy5VseasbyF3lWTmHlSsmZuh50LedWdXUMdFWEih5qXvc0tHSziXODTWhoBsCS1gIQAACdQmgoOsSpD8EOiEw08gVx/Z7VdW8GtBqVdXLdbp8/L6yxJTSsDrLIW07mSy/k7B89Jj4efqgoPNcl+yyIiEIQKB9Aijo9pkzIgRqEdBn/+JDWPWqu9LxfeM9d40S362Gp/9/Awqm/ycItcrHlvK3lnzqKOh81oJMIAABCOwigILehWPDF3SDQIsE/PutUq++XUmpVfX6ZWgUq1il8Y986rHFcCGVmjY3nbjQJwBVn9+tXiSyqyIf+T99889cW7m/c2j5QkG3DJzhIAABCMQSQEHHksIPAhkSmOnW6Xln1X2t6mte6VbfrgmqVXW/VKvfV+MqB9tLdmupX5fyjYkT76loVf3Vq7myBQXdXPJEhgAEIDBkAijoIa8ucxskAV+l2mmGWsuV7K5eUz1uY/p1q6Nt3Y5i64pgPVWXvbx8+6GHnIOeCq3T0O7l2kunpG1TWn9lMpncY4dotI6CbhQvwSEAgT4T6Dp3FHTXK8D4EKhIQGck/E4hu+8pyy4NG6Ga1cuWNoKty8e3lNvVGiqlXqWjQz4zvXymaJ/Vi+pEfafVWaE4Mx/Pf+ZkfvgRTGODVRR0g3AJDQEIQKAOARR0HXr0hUAHBOwJCt079u/2Ki1pWOvv2xVBdsWxlr/8g99U06J85Pv/O69P5K+Xtpfs/ui+xfZVL1nkqfr+/ftViSw1391PbV69a3zx+W+7aPJ0FXe95+iqxRnNtRrBNDVYRUE3CJfQEIAABOoQQEHXoUdfCHRAwKpLPVsj5jN7UrhWpSp13yK7SquXZQmVoTihcWVXtKp3z9WrvLTxrWcoT+tTp6+NU7+Ogq7PkAgQWEMAEwTqE0BB12dIBAh0TMBXoPbuqpLzlaOUuPWcWaYdQipy2ji7+zzzv/52GRel7Hrpjyu7n7PsaUv7ycCqz9mo0zfVLFDQqUgSBwIQgEBiAijoxEAJF0UAp4YJWA1r6/6wfqssh3xXY5GPDLYuiy39Vt9i/albAihoS4M6BCAAgYwIoKAzWgxSgUBzBOy9ZjuK9Kxa7X1newL6yw/+0HW5b+ujrtT1yPePqOJK3WVWX91ZVjTXtHJprBVjoy+r3ne2ydTpa+PUqaOg69BrqC9hIQABCBQEUNAFBf5BYFQEpHalfO3EZVGrTkBbHS1P2VWXv1+XRXGsj+ztlHXGrdM37exQ0Gl5Eg0CEIBAMgL9U9DJpk4gCIyJgO7/6u5wuUJUq/Sv1cu2Lp9yftZHo5f7p2qtM1ZMXzFMlW15HBR0OR9aIQABCHRGAAXdGXoGhkD7BEIK0bf756DjFbEfrc2ZbqZwN+tVcV6V3VHQlZHRAQIQgEA7BFDQ7XBmFAhkQUA6UQpXdd1rVnLSyGpVKXt5WR5HrfHRyscaWysKemwrznwhkCkB0vIJoKB9JlggMFgCvpKVaq4/4VAcf8T6Y5VHiB9R6l7RNuulvs2VKOjm2BIZAhCAQC0CKOha+OgMgZYINDCMNONmKrI8HUUu92mu1c4oNEoow5i+oZhN2FHQTVAlJgQgAIEEBFDQCSASAgL9JRDSkvEzqh8hfqx4T3s6xfYK3Su3PnX62jj16yjo+gyJ0DkBEoDAMAmgoIe5rswKAmsJ6B6rNK+tH/nUY85f6lKt7mXkpThSnfZ50IqjVtUjAyZ0q/O9gnX6ppoCCjoVSeJAAAIQSEwABZ0YaIbhSAkCCwIhJSvtvHDboBKKEBpxgyFG2AUFPcJFZ8oQgEA/CKCg+7FOZAmB5ASstlVd94vrD6Ro9ePUj1DnewXr9K2fuSKMXkELAyUEIACB/AgkU9DPHric3+xGlBH8R7TYjU11M+W7Wa/GJjELHLonPmsu/VGnb2ngyo0o6MrI6AABCECgHQLlCrpCDrdcPlDBG9d0BKSd4Z+O6CaRtAqb9KRPagLxit739C1+dvZO/bmzX/UdElpQ0AlhEgoCEIBASgJs0ClpEgsCEMiFwCDyYIMexDIyCQhAYIgE2KCHuKrMCQIQGAQBNuhBLCOTgEA1Anj3gwAbdD/WiSwhAIEREmCDHuGiM2UIQKAfBNig+7FOZNkmAcaCQCYE2KAzWQjSgAAEILBKgA16lQivIQABCGRCgA06k4XoTxpkCgEItEWADbot0owDAQhAoCIBNuiKwHCHAAQg0BYBNui0pIkGAQhAIBkBNuhkKAkEAQhAIC2BZM+DTptW/WgnLz1QP0hJhOMH7y1ppQn+/A5AoD6BVhV0/XSJAAEIQGA8BNigx7PWzBQCEOgZATboni0Y6UIAAl0Q6GZMNuhuuDMqBCAAgT0JsEHviQgHCEAAAt0QYIPuhjujQmBIBJhLQwTYoBsCS1gIQAACdQmwQdclSH8IQAACDRFgg24ILGEhMCfATwhsSoANelNy9IMABCDQMAE26IYBEx4CEIDApgTYoDclR780BIgCAQgECbBBB9HQAAEIQKBbAmzQ3fJndAhAAAJBAmzQQTQ5NJADBCAwZgK9eR501ecLbz13utK6nn7hjUr+J++6s5J/358fXZX/lUcfq8Tn4okLlfwPV3zed9/5V4KD82AIoKAHs5RMBAIQGBqBPm/QQ1sL5gMBCEBgFwE26F04eAEBCEAgHwJs0PmsBZlAAAJjIRA5TzboSFC4QQACEGibABt028QZDwIQgEAkATboSFC4QQACbRFgnDkBNug5CX5CAAIQyIwAG3RmC0I6EIAABOYE2KDnJPgJgX4QIMsREWCDHtFiM1UIQKBfBNig+7VeZAsBCIyIABv0iBZ7DFNljhAYEgE26CGtJnOBAAQGRYANelDLyWQgAIEhEejsedBVny/c9POdqy7qNacer9Qli+dHm4yr8m/6+c4mtajqhavvjvKbO/H86DkJfvaJAAq6T6tFrhCAwKgIsEGParmZLAQg0CcCbNCL1aICAQhAIC8CbNB5rQfZQAACEFgQYINeoKACAQhAIC8CsRt0XlmTDQQgAIEREGCDHsEiM0UIQKCfBNig+7luZA0BCMQS6LEfG3SPF4/UIQCBYRNggx72+jI7CECgxwTYoHu8eKQOgfoEiJAzATbonFeH3CAAgVETYIMe9fIzeQhAIGcCbNA5rw65dU2A8SHQKQE26E7xMzgEIACBMIHOngcdTml9y+kX3ljfgLUVAhdPXGhlHAaBAASWBFDQSxbUKhLAHQIQaJYAG3SzfIkOAQhAYGMCbNAbo6MjBCAAgWYJsEE3xZe4EIAABGoSYIOuCZDuEIAABJoiwAbdFFniQgACEKhJoKMNumbWdIcABCAwAgJs0CNYZKYIAQj0kwAbdD/XjawhAIGOCLQ5LBt0m7QZCwIQgEAFAmzQFWDhCgEIQKBNAmzQbdJmLAgMnQDzS0qADTopToJBAAIQSEeADTodSyJBAAIQSEqADTopToJBoIwAbRCoRqCz50EfP3hvpUxP3nVnJf9rTj1eyb+q86sV86k636r5VPWvms/hSw9UGuLC1XdX8q/qfPi1hyt1qTrfSsFxhkBDBFDQDYElLAQgAIG6BNig6xKkfyoCxIEABFYIsEGvAOElBCAAgVwIsEHnshLkAQEIQGCFABv0CpBcX5IXBCAwPgJs0ONbc2YMAQj0hAAbdE8WijQhAIHxERjGBj2+dWPGEIDACAiwQY9gkZkiBCDQTwJs0P1cN7KGAASGQaB0FmzQpXhohAAEINAdATbo7tgzMgQgAIFSAmzQpXhohAAEuiQw9rHZoMf+G8D8IQCBbAmwQWe7NCQGAQiMnUBnz4OuCr7q83yrPj+66Xyqxs/Nvyr/qs+PrjrfqvlUjd8Lf5IcPAEU9OCXmAlCAAJ9JcAG3deVI28IQGDwBNigB7/EY50g84ZA/wmwQfd/DZkBBCAwUAJs0ANdWKYFAQj0nwAbdP/XcJMZ0AcCEOgBATboHiwSKUIAAuMkwAY9znVn1hCAQA8IsEGvWSRMEIAABHIgwAadwyqQAwQgAIE1BNig10DBBAEIQCAHAtU36ByyJgcIQAACIyDABj2CRWaKEIBAPwmwQfdz3cgaAhCoTqB3Pdige7dkJAwBCIyFQG+eB111QXhecFViaf3hn5Yn0cZJAAU9znVn1hDwCGDIjwAbdH5rQkYQgAAEpgTYoKcYKCAAAQjkR4ANOr81IaMcCZATBDogwAbdAXSGhAAEIBBDYLCnOGImjw8E0hI4etM9aQMSLVsC7aw1CjrbX4A+JUauEIBAEwRQ0E1QJeZICZw7+9WSmbejuUoSoCkhgXbWGgWdcMkIBQEIQCAlARR0SprrY2EdGQFfKZerrZHhGdR0m15rFPSgfl2YDAQgMCQCKOghrSZzyYKA9LK0lepZpEUSDRDQ+ja31p0r6AaYERICEIDAIAigoAexjEwiPwLSVvnlRUbpCTS31ijo9KtFRAhAYBQEmp9kAgWtdw/dhWk+YUZYT+DZA5fXN2BthcB9Wx9145T/FcjHuW18zf/WNg5AxwQEtI5Nr7USRUGLAyUEIACB7AgkUNB6J9F7uz+/8lbfHwsE8iRQ/ptsW7e3t0umcOzYsZLW8iY7iu9Z3ur7N2zpcfhykra1ubUWPhS0OFBCAAIQyI5AAgXtz8m+w9hW2a0lVA/p8ZA/dgi0SUC/yf5vqfRUHY1cdRahTGSvGi3k78805Dk8u0j6BNpZaxT08H6jmFEPCJAiBGIIJFbQereJGRgfCPSdgH7bfW3Vzrw0ejtjMYpot7/WKGh+9yAAAQhkSiCxgtY7jN5tMp0xaeVPoCcZ6re9q2Q1On9r7fAX7XbGsqOgoC0N6hCAAAQyIpBYQWtmoXebkF29KCHQFwL5/CaHMgnZ+0I4nzy7JYmCzuc3ITIT3CAAgbEQ2Lezs5NkrtwLS4KRID0loOczKPmmz0HztybOXZVtrjUKuqtVZlwIQAACexBIpqA1jj5do3onJYNCoEMCTWtnOzX+1iyN9uvtrDUKuv2VZUQIQAACUQQSK+ioMXGCAAQgAIFVAmteo6DXQMEEAQhAIAcCbNA5rAI5QAACEFhDgA16DRRMEIBAbgTGmQ8b9DjXnVlDAAI9IMAG3YNFIkUIQGCcBJI9i4NPN43zF4hZxxNI9VSHNX9r8Ung2QqBVGuNgm5luRgEAhCAQHUCCc5B6/384vPfihz90PW3R3pat1suH7AvS+rPHrjsWnf+7KgrY6793zjn3O541xuujLm++d/vcG7v/MARV8Zcv375vHM7/sA3XRlznbz3DucW/w4s/q4LVy8IxK+sPx3W2meSs6XOWmteKGhxoBwwAaYGgb4SYIPu68qRd08JbE//62nypF2JwHSptyt1WXFmg14BwksIQAACuRBgg85lJfbMY//0vz3dqjrgDwEIZEuADTrbpSExCEBg7ASSnYMeO8gm5++k8yK86qm+B2cRlgoEIJAhARR06aLQCAEIQKA7Aijo7thHjyy9XEc7H/vMF91o20+ccGVM3bmVXDrdGTqTq/gl3RdNykcvN+ulvir9CDa+fPxys16Ko74xo8ifMkRAJEOtPuEfPfhWyHnFfuPW6hZXdayVgC2/REG3DJzhIAABCMQSWH17ie1X+PGvVQLS0ZsNaTVITD00itXOtu7721H81nIV4/uXWxTNHzFkVzS1qm5L2f1o1kd1+cT7q1c+pVbQ5qP/K5Ldr8vTtsqiUnbVbV9ZVMquukrRUz1Uyke0Qz5WKYf0teKEIsgun/Kx5NlOiYJuhzOjQAACEKhMAAVdGVkfO8TognIf6SOrgFT37W3yKc9ZOsj3kaU8T/koQrmnfOL9y6O12Vq+glpZm48sfi9rt/6qy1/1JkppZ6lm1aNGmTrZtZsasitQ0NktCQlBAAIQEIFkCnqzZ9QpiZhSz6iL8ZSPnlGnekypZ9TFeMpHz6hTPabUM+piPOWTVndIKShyqAz5hPRRyB6K33e7NHL5LOQTIlnety+tWnc/W2u3v70hux/B5yaevmd9ix1L9ebGqpMtCroOPfpCYJAEmFQuBJIp6NM/L56SHDOtW99bPHn56Zt/FuPsfG478z5X6h6Tq+x56T7UTQ/94Z6ecjj7hX91lfj3T73f3rf1Udcr5vrygz90bhfujH1+9OHHi+dH/+Thm12vmOvDd5/Z002zU+YhZ99H2seqIfUN2dU65rKccL/IaN211jbzzew2Qqiu38BQa1q7xtJ6qZ42fqpoKOhUJIkDAQhAIDGBZAo6cV6ES0pASqE8ZMhHGsrqJtXLo7XTqpylgFS344bs8lSr9bd1+ViL6ttPnHAVv2/I3zlne2lllZ7qm62seimCotnS2uVpW1PV9f/N8f+frXH9dZQ9nxIFnc9akAkEIACBXQRQ0LtwDPWFlIJUXkzd5yAdFK+ANIofpwmLnZeNL7u12Lpa/Txlt55+XT7qq7rvk78ltJrWHlPXTK1nyCK7LUVPJK3d1uVjLbYer5oVp85Ydtx26ijodjiPZhQmCgEIpCOAgk7HMuNI0g5KMKYuT18TyV5e2vjlnrZ1s171I8SP63v6FpsP9XgCVUnqjnN8fOtZdSzbt/06Crp95owIAQhAIIoAG3QUpkROhIEABCBQgQAbdAVYuEIAAhBokwAbdJu0GQsCEIBABQIZbdAVssYVAhCAwAgIsEGPYJGZIgQg0E8CbND9XDeyhgAEMiLQVCr76nzTnU1qszOzNgJ1CAybgH0C4rFjxzaeLH9rG6NrrWOqtUZBt7ZkDAQBCECgGoFkClrDbm9vq0IJAQisJVBHO9uAPfpbs2mPql5/rVHQo/qFYbIQgECfCCRW0H2aOrlCAAIQyJsACjrv9SG7wRNgghAIE2CDDrOhBQIQgECnBNigO8XP4BCAAATCBNigw2xo6Z4AGUBg1ATYoEe9/EweAhDImQAbdM6rQ24QgMCoCbBB93j5SR0CEBg2ATboYa8vs4MABHpMgA26x4tH6hCAwLAJDHeDHva6MTsIQGAEBNigR7DITBECEOgngf8HRKSeI6Hz0GcAAAAASUVORK5CYII=" parent="1" vertex="1">
          <mxGeometry x="53" y="80" width="480" height="360" as="geometry" />
        </mxCell>
        <mxCell id="p1c2saggwYmDi9HayLSL-63" value="Image Editor" style="rounded=1;whiteSpace=wrap;html=1;absoluteArcSize=1;arcSize=14;strokeWidth=1;fontSize=14;fillColor=#454747;strokeColor=none;fontColor=#FFFFFF;" parent="1" vertex="1">
          <mxGeometry x="40" y="30" width="130.5" height="30" as="geometry" />
        </mxCell>
        <mxCell id="p1c2saggwYmDi9HayLSL-64" value="" style="shape=image;verticalLabelPosition=bottom;verticalAlign=top;imageAspect=0;aspect=fixed;image=data:image/png,iVBORw0KGgoAAAANSUhEUgAAAeAAAAFoCAIAAAAAVb93AAAorklEQVR4Ae2dT4wlxX3HHxGcoqCwKAYTKSKXxM6CZYfTIi9WEOscxgcTi0BkIyIZO07A8UCUiAPBAvuAZcWsA4v/BCxZa8teI4IPnoNZRGQPYpUD5gBriA8JshSDLTFEtnKIvNKm+n3fvPm9V1M91d3V3dXdH6untvpXv/rVrz41U/OlXa/ngsPX3DbjfxCAAAQgkB+B38gvJTKCAAQgAIGCwIVFsfq18dFPrxpmW4/fv2bR7fbph1RZlkeP3eXqIbtrWrs0Vij+mvPyVr2Wt2uVqtHWuh94e/E7jyx9fvnKmWU9VKnqH4oTbxeftjnE54MnBFohMIGgKOgJLDJThAAEhklgRUFLefkTkT2kyMpVs6+mFd/GtHW1xpR+PooT0zfeR/pXStnWFcG3yK7Sb7UWW5c/JQQgAAFLAAVtaVCHwGgIMJExEFhR0NKkvg6VPTTdkEYO2UNxcraH1G5VZW39087XXzVrKV/BtJkQDQIQSEUABZ2KJHEgAAEIJCawoqCt5rLjyO6rMD19tp6qh+xqDUVTa85lSEfH56wI8f7xnlodsbW9ZLcW6rPZDAgQGAQBFPQglokkIQCBKRJYKGgpL6kt1S0Ma1ddrf5TZmnnkF29/FIxNa5ft/7ysRbVQ3a1Nin11LhJBNs3bTQbWfVyevKhhAAEhkIABT2UleowT4aCAATyILBQ0FJe5SmFfMpVs6+mQ3HKRw9p5JC9PFqqVj1T9nWxLKHWVKMrjghYqrYe8pGdEgIQyJkACjrn1SE3CEBg0gQWCloMpMVUlwqTRaUsarWlr5HVGrKr1S8Vv3ws9ZKn6rYM2a1P4/pMulhxpJRV90u1xvv7EeIt4hbvjycEIJA/ARR0/mtEhhCAwEQJ8D7oiS4804YABPInkFhB5z9hMoQABCAwFAIXnDx5cii5kicEIACBSRFAQU9quZksBCAQIpCj/YKdnZ0c8yInCEAAApMngIKe/LcAACAAgVwJsEHnujLkBYGcCJBLLwTYoHvBzqAQgAAEDibABn0wIzwgAAEI9EKADboX7Aw6LgLMBgLtEGCDbocrUSEAAQg0JsAG3RghASAAAQi0Q4ANuh2uRN0jQA0CEKhJgA26Jji6QQACEGibABt024SJDwEIQKAmATbomuBSdSMOBCAAgRCBlb+oEnKKsesvE8Z44gOB8RHQ3w8q/ymQT/O5l4/SPD4RygmkWsfyUdSKghYHSghAAALZEUjwNjv9Pv/Qm5emnxwRIwg8eembzgv+DkKPl1ahXFvpJ6Xcp3wK5REOHTrkut935d2utNfp9/7B8lZ/J1O3+muZx577ibuVj+qaizOuXdbfNqmvjRz/3XjT7S+6UE889h5Xdn9ppqFsN39071pKx//4s86iXk3W0QWJvFDQkaBwgwAEINA1gWTPoLtOnPEgkDeBkNrd2tpyiW9sbLiyySU1pwhW69m6fKSL5flk4D90rU9IKc/mWltxNIqNf/q9R1yTdLRtdcaSK0Y7S7EqSEjtqtWW6vXs8XPOeOLWy1xpL7Vai1/X7Hy7LAeuo9walijohgDpDgEIQKAtAijotsgSd7IEpJ01fdW7eV6pEX3dJ7Uo7alSnlYRLyzzf6yavuPkz53NV6Ca12yuxxVTve44WShW12V5/cvf/5Grf+zzP3ZlvcvS0+w0I9ll8SMrqxO37rVYXa/WvbZcayjoXFeGvCAwYgJMLY4ACjqOE14QiCYgZRftXtNRetDvLHUZY1eeIQWqCNdvzreI+UkhWVRKgWoslTba5o8KL2W4WVRnx42Cvqn05Iav2csznIefKQdlJYtK5aB6qNQpFP0XQMhHdv3XwKGvbeu2gxIF3QFkhoAABCBQhwDnoOtQy6pPSDtkleTok9EqxEzzns0bnFvpKQ7Xvv+lJ79nX/j6/s0Bq38yOuCIOYqA1rrJOkYNM3dCQc8xUEAAAhDIj8D8AVN+aZERBIZIQM9hQ5lL/4ZasUPAJ4CC9plgyZoAyUFgOgRQ0NNZa2baEQFfKZcr647SYpgBEkBBD3DRSBkCEJgGATboca0zs4EABEZEgA16RIvJVCAAgXER4Bn0uNaT2UyAAOeaJ7DIiylOSkEv5sw/EIAABAZBgA16EMtEkhCAwBQJsEFPcdWZMwQgMAgCexv0INIlSQhAAALTIcAGPZ21ZqYQgMDACLBBD2zBSBcCEPAIjNbABj3apWViEIDA0AmwQQ99BckfAhAYLQE26NEuLRODgAhQDpcAnyQc7tqReaYEeHddpgszwLRQ0ANcNFKGAASmQYANehrrzCxDBLBDIGMCbNAZLw6pQQAC0ybABj3t9Wf2EIBAxgTYoDNenP5TIwMIQKBPAmzQfdJnbAhAAAIlBNigS+DQBAEIQKBPAmzQ9enTEwIQgECrBNigW8VLcAhAAAL1CbBB12dHTwhAAAKtEmhtg241a4JDAAIQmAABNugJLDJThAAEhkmADXqY60bWEIBAawTyCcwGnc9akAkEIACBFQJs0Cs4uIEABCCQDwE26HzWgkwgMAQC5NghATboDmEzFAQgAIEqBNigq9DCFwIQgECHBNigO4TNUOMnwAwhkJIAG3RKmsSCAAQgkJAAG3RCmISCAAQgkJIAG3RKmsQqJ0ArBCBQiQAbdCVcOEMAAhDojgAbdHesGQkCEIBAJQJs0JVwtelMbAhAAAKrBNigV3lwBwEIQCAbAmzQ2SwFiUAAAhBYJTCUDXo1a+4gAAEITIAAG/QEFpkpQgACwyTABj3MdSNrCEBgKAQa5MkG3QAeXSEAAQi0SYANuk26xIYABCDQgAAbdAN4dIUABJoSoH8ZATboMjq0QQACEOiRABt0j/AZGgIQgEAZATboMjq0QaBfAow+cQJs0BP/BmD6EIBAvgTYoPNdGzKDAAQmToANeuLfAEOePrlDYOwE2KDHvsLMDwIQGCwBNujBLh2JQwACYyfABj3WFWZeEIDA4AmwQQ9+CZkABCAwVgJs0GNdWeYFAQgMnsBEN+jBrxsTgAAEJkCADXoCi8wUIQCBYRJggx7mupE1BCAwAQL7bdATmDZThAAEIJA/ATbo/NeIDCEAgYkSYIOe6MIzbQiMksDIJsUGPbIFZToQgMB4CLBBj2ctmQkEIDAyAmzQI1tQpgOBMAFahkaADXpoK0a+EIDAZAiwQU9mqZkoBCAwNAJs0ENbMfJtiwBxIZAdATbo7JaEhCAAAQiIABu0OFBCAAIQyI4AG3R2S5JnQmQFAQh0T4ANunvmjAgBCEAgigAbdBQmnCAAAQh0T4ANOgVzYkAAAhBogQAbdAtQCQkBCEAgBQE26BQUiQEBCECgBQIdbNAtZE1ICEAAAhMgwAY9gUVmihCAwDAJsEEPc93IGgIQ6IBA30OwQfe9AowPAQhAIECADToABjMEIACBvgmwQfe9AowPgaESIO/WCbBBt46YASAAAQjUI8AGXY8bvSAAAQi0ToANunXEDDBNAswaAs0JsEE3Z0gECEAAAq0QYINuBStBIQABCDQnwAbdnCERqhOgBwQgEEGADToCEi4QgAAE+iDABt0HdcaEAAQgEEGADToCUtcujAcBCECgIMAGXVDgCwIQgECGBNigM1wUUoIABCBQEBjeBl1kzRcEIACBCRBgg57AIjNFCEBgmATYoIe5bmQNAQgMj0DljNmgKyOjAwQgAIFuCLBBd8OZUSAAAQhUJsAGXRkZHSAAgTYIENMnwAbtM8ECAQhAIAsCbNBZLANJQAACEPAJsEH7TLBAID8CZDRJAmzQk1x2Jg0BCAyBABv0EFaJHCEAgUkSYIOe5LKPbdLMBwLjJMAGPc51ZVYQgMAICLBBj2ARmQIEIDBOAmzQ41xXOyvqEIDAQAmwQQ904UgbAhAYPwE26PGvMTOEAAQGSmDyG/RA1420IQCBCRC4MNUcn7z0zVShiFODAPxrQBtcl+3TD7mcjx67y5VcfRG4Z/MGN/SDx59Zlq6ydmml1ow1blHQNaDRBQIQgEAXBMoVdIUMPvTmpRW8cU1HQNoZ/umI1omkVajTs0ofaeeq6uzQoUNukJ2dHVfqOv3SJa5y7Oq3XGkv2c/e9nfWmLz+wGtfqBTzzTPfdf7nzj3hytB14YU3uaYPnHjDlb985Ywr469nj59zzr/4wc9cGbpOHnrcNW09fr8rpZ3LV6HeSrngaxcKeg0ItxCAAARyIZBMQecyIfKAQBwBq+Puu/LuuE4ZeUkXlydkVfMDr57ec76oqJ55tShXvub2i1dM/d987sV3uSRu3fmiK0PXyUOFz2xWKOiL33mkcIv4ktaWdn7b+64o6bH9ladLWkN6eWtry/Xa2NhwZb0LBV2PG70gAAEItE4ABd06YgbIjYC08+bzp1xip178lSsfuON2Vw5RR4dy1hzdpJbXvz9aPHF+7UjxI3/lmeKpa6h+bNknj8r284V63Z7dXJpO4SNFbBX00Wvfv9ZL0daMy9uLDj+8rKvy67OfVGXfUtpZTaqXP5uWZ3yJgo5nhScERkOAiQyDQPHrdBiZkiUEGhOQrrTaWSHffuIxVxmujnbJH3gde+4nhc9zRbH4CtUXzbn8I10cn43136p4osOOUq6d5ZlWLyumLVHQlgZ1CEAAAhkRQEFntBik0g0BPXcuGYumrAjonLJSsuedv3fH5c5Yfj7aObjr+s1io7NxnHF5/eIHy+qiEqOd9cR50aG1f1DQraElMAQgAIFmBIpfLM0i0BsCgyGgMw961qznzkr99cGe4lD+4y51TllztOed485HF58AnM2KTwD+00ufcUFu3fmoK0NXjHZW3/Knz6n0NQpatCmjCeAIAQh0RQAF3RVpxsmGgNXRSkoW1YdV6lzKsHKumu3HX7UnoPfOO2/PA8Wcj547znQC2vfXWenyzwoqgl/6SrlcWfsRyi0o6HI+tEIAAhDojQAKOi16og2GwHBVsxDb92zIMtbSnmu2cwzZrY+th/ybnJW28duoo6DboEpMCEAAAgkIoKATQCSET+BT37rOGWPOqDq3yEtnYK+78ynn/8NHbnRle/Fzfr92zHvsHJxsr5j3O68mX7w5ZNWyfme/N3Te2Z79WPeufm/fB129d/0enSro+mnSEwIQgMD0CKCgp7fmzHjgBPyn5/Ysh9/qT7dtf3/ELi3SzuXvd66aT70zHlVH8f1R0D4TLBCAAATWCPRzi4LuhzujQiAJAWlh+34+fU4ypKPlf/5LX3ajn73/ZVdeNf8LgeX+OjGiT9lddrT4i4Ihfxcwq8t/v3NMepqp+qoe06sNHxR0G1SJCQEIQCABARR0AoiE8AnEvCfB71Vu2X0PQ3GKo+345Znk0CotbLWzstI7RnwdLX+rneX/8uV3uoqvo+VvtbNzc9fPtz/syjUd7SzxV19rV1ULV/WPJxDviYKOZ4UnBCAAgU4JoKA7xc1gEEhLoOq7rfXcOT6HHFRkfLYhz+HOAgUdWlPsEEhEgDAQqEsABV2XHP0iCOg9ZF99x6l9fctbbRd5Hr3W2oq67O3FL8bI9UvnKPSsWc+dlWno3dby17NmPXeW/1VvPOIqanWV5SWLnjXrubOaLjv6TVdRq6vUvrpZu+FqZ4FFQYsDJQQgAIHsCKCgs1uScSSkd+9qLtJKqnvlrLzV+tuYtl4eobw1FN/ac65LyUpHK09ZVPdLtUpHq1UW1f1SrdLRapVF9Xpl22un92b09dm/ekxCvVDQITLYIQABCPRMAAXd8wKMdfjQu3dTzbft+Kny7CZOVVXbtn/5rNteu63Hi79AWJ7DUFpR0FmvFMlBAAJTJoCCnvLqtzj3nN+n3OK0Ow+tz/v5w4Y0cox/yMeOEopvfUL1sy98PdS0r/3wNbc5+7dv/Kkr9f8o6NyO3ldn35jxwa8cdT7f/Sv9tUJXnam1qO1+2XMd1l+eatX78OxYqret/Xdz3PsXBb3HghoEIACBrAgMWUFnBZJkINAVAatwj3ykeC/d0Wvf7wa/5vDvu/LY1W+5Un91xepc9Yrx1/s3XBB3bfztd1wZE9+59XJZzasEpH+lr9Uquy3lI4vqb5t9UrdZlSjorJaDZCAAAQjsEUBB77GgBoFBELAK98Fv/4/L2dfO8pGOdg7u+odH/9OVusr9N2f3ys2VW//85648/dIlrrTa3Ma3Ot25tXTpKbCCq/7V2d4nVGUJtcpuS/nrmfLHZze7Jj+abVXduaW6IuOgoCNB4QYBCECgawIo6K6JMx4EEhK455bfdtFOv+SKAy55yqncX7pbGln+/ZY69XHYJHHxO4+4O6lgV3GXVbi21dqdm7vU6irLSz7S0TLK4tcXmcxPlah1+/RDqrRUoqBbAktYCECgLgH67RJAQe+S4F8IDISAr3BfOPtf89yLUxx689x/P/ohZ1FdJ3zd7fIq99f76nR+Q110imM22z/+iVvl1Vapc9BSvrsnoM8tB9NZZp2S1smN2aw4B61Z//psUZfP7vnowmJbdYrj468WqnzXZxl+tttaPKe2Kn7Po80aCrpNusSGAAQg0IAACroBPLpCoAcCiyGlcHe1bWGULn5h9hl3s/3q0648c+8nXLmz87ArdamX6rNZcXra999tLf6Nid/NKY4im90vqdpdvbxrnS3Uruw6AS1PeageavV95C97XyUKui/yjAsBCEDgAAIo6AMA0QyB3AhIsT7wjUIdz2bFJwn9DM/MW+WpZ9by0ScJVbfvZbb++szh9+643Ll94EShxF1l7bL+a00t3epkhc5a6Em0niz7dl/5ymf2jiI1v1WnQeSziO+dsFZr0b/bLxR0t7wZrWUChIfAmAigoMe0msxlcgSkcy898kE38zfPfNeVqks7u1t3qW51sXzK/eXjurvLerpbdymmq3Rw2dPHUrLSuaorAdVll0Wl7Krf8tTvuYpOg7jK8rI+qts4ssjZZiJL2yUKum3CxIcABCBQkwAKuia4QXYj6RERkIa1OtfWQxP9zPn/c02bzxdvsbD1B64tzvkqpnNwl+rS3TGR5Xn+S/s/E7/gr4sn5orpgle67GcadTZDJ539INdvnnHGZ4/vnZLWeWdnXF67EQrD9ZvFBniQf3FuuvAuvj7sius3XdHRhYLuCDTDQAACEKhKoPgFUrUP/hCAQO8EpFilhf1krCIOeR75dfGmOr2j7r6dHRdE5z2kc9UrRhGHPHfeXZwDueAPr3ORd24uxlJ8d1vjssrX7757NqN4yqy6Pe/c3N+P0I0FBb3kTAUCEIBAXgRQ0HmtB9lA4EACUqy+dg4pYhvw1Iu/Wt7e9xfF317RrdW2iu9r5xhFfPb+lxXQlVf8uFDNruIuG9/dVrqsdpY6juke76lo5f7S4/LsskRBd0mbsSAAAQhUIBCroCuExBUCEOiKQIwiVi7WUxb7d1J0UsLXufGK2Hoq/vn/+KGrLJ5Bm2fcztjw0mf/bBB9ttBafB/bGu/ve9o4bddR0G0TJj4EIACBmgRQ0DXB0Q0C/RKop4htzpsvP17c7j00Lu6WX80V8es3PjOPpnJebaHQJ/1ueaU4v6HwnnaWeaXc9SnOTe/WVxwyuUFBZ7IQpAEBCEBgnQAKep0I9xAYKIGQIn7ps39SzOitb7ry/ZcUn4VzlbXr6Xnr27aLVv1FlTUHdxtSxIp/fnbW+VzwyP5/deT8nUXrz99XFt91T3JJU8eH8v3993XER0vriYJOy5NoEBgYAdLNmQAKOufVITcI7ENg8Um/O253bW8/8ZgrdS1U8PuucLdSwfKczV50Fl3yufref9OtK6V/XcVdOgusXle99gVnefnyO12p6/xcBetEcCj+7zxRnK1Wq3r58WVPW+o9c81j6u8fKo49vyEymrtauylR0N1wZhQIQAAClQmgoCsjo8OECGQ/VSlim6a0nrVIL1slq1YpZauv5Xnfle+Rgyulml1leZXHt62h+MtQlSo2srStf/rC6t9KwZ2z1eB6Km1PhjiH4nqqKLr8QkF3SZuxIAABCFQggIKuAAvX6RDY/NG9a5O1n7uzTbI/efdfWmMHdenTq+8tnhT7w6lVdtXlqTdsnP9S8fbnxUnn+bmLq954xDnL01XcpfoTe4+4nW3vsirb97StTzy2p8dl17s+9mIdVNNbm2ezvZPOuz2KU8y79b1/rRbes4Zrvu7WKQ7pdNtPz6B387EtbdVR0G2RnUBcpggBCLRLAAXdLl+iD5TAA6+eXs/8osJw5tWiXPma21csndxIh0oRa8CFIp7f6AyGtK3v+db87cxXzMtLTn3H9Xj5/uK0hu3ljMtLEXSrmKqHyqr+oTiy6y+e2GfQsusZtJ4Xy5K2VHzpaGnntPFjoqGgYyjhAwEIQKAHAijotqATd9AE9KaLK88Uf93utSPFj0l5vcvJSp9a7VyuiG1u8pRF71l+6+aHi1vzHufidvfLH6v8rwvK356eDqny3RFi/5WGlY6Wto3tmc5v9y8c3pUu5AGRUNAHAKIZAhCAQF8ECmnQ19iMC4FsCXzs8z/ey+25veosUH/yUuPTYTVeEesJtZ47SztLjf7u/i/PmEkLS6frb6loWrL4Olr+0s6HP32VnF1Z/nTbORx4Sbcq5wOdR+bQk4IeGUWmAwEIQKAFAijoFqASEgLtE6iqiJWRzmzoubO0syw/UzNlZgRQ0JktCOlAAAJ5E+gyOxR0l7QZCwIJCGw+f6qI8mfbrpT+DSlivevu5vf8lvO86tri04N6IjwzZzaknfVJQvnP5s/fdd5Zz5r13NkFcZcsanW3y0sWndlYjDJvU2S1zg0DLnafg3e3baKgB/ztQuoQgMC4CXT3q2DcHJkdBDojoDPas3896ka8fa6jfUV87B/f7Vp1dvvU7FeuLt0tHS2lrNYz3/iEa7UWd7u8pHylmmWURXW/vO/Ku51ROtpV3FXu7xwOvHZ164GOiR30GUIF1YkXncWWpZsSBd0NZ0aBAAQgUJkACroyMjpAoF8Cr8//lsqpE8WL5k7NlbKfj1XHs28U7fKXUi7uZzN9QvLtR4o41v/YXAXLR2VVFVzVX6OUl9Kw8pG2be/zhHq/B++DFm1KCEyEANOEQDUCKOhqvPCGQO8EFu8v/lpxiiOUzC+9Buluz7wwvL74t/hHnwksaqtfGldvW/br8tWblFVXKTWqeqiv7PLxy933L8e+D1q5+XHiLZqFdLrtpWfQu/nYlrbqPINuiyxxIQABCDQkgIJuCJDuyQgQKJKA9J1Vpn5H+cxe+LprileU5Uq2vNUN5K7yrJzD2hUTM/Q+6FueWtfUMdHWEii51TNu6Whp5xLnlppQ0C2BJSwEIACBpgRQ0E0J0h8CvRBYaOSKY/u9qmpeDWi1qurlOl0+fl9ZYkppWJ3lkLadzfb+JmH56DHx8/RBQee5Ll5WGCAAgekRQEFPb82Z8cAJ6LN/8ZOw6lVPpeP7xnuujBLfrYGn/18DCqb/Jgi1yseW8reWfOoo6HzWgkwgAAEIrBAYh4JemRI3EBg3Af95q9SrbxcHtarevAyNYhWrNP6Rj3x5OVxIpabNTScu9AlA1XefVi8TWanIR/7fvvGnrq3c3zl0fKGgOwbOcBCAAARiCaCgY0nhB4EMCSx06/y8s+q+VvU1r3Srb9cE1aq6X6rV76txlYPtJbu1NK9L+cbEifdUtKr+6tWoLO2Mgi7FQyMEIACB/gigoPtjz8gQqEXAV6k2TKi1XMmu9JrrcRvTr1sdbet2FFtXBOupuuzl5UWHH3YOeiu0TkO7230vnZK2TWn9lclsdpcdotU6CrpVvASHAASaEJh6XxT01L8DmP/gCOiMhJ92yO57yrKiYSNUs3rZ0kawdfn4lnK7WkOl1Kt0dMhnoZefKtoX9aI6U995dVEozsLH8184mX/8CKaxxSoKukW4hIYABCDQhAAKugk9+kKgBwLLExRubD079p/2uiZ3ScNaf2d0l7UrgjO6S3Gs5W/+9Ded3V6Pfv9/l7fy163tJbsdRT6+RXb1VS9Z5Kn6oUOHVIksNd/VtzavPzU++8I3XTR5uoq7Lju6bnFGc61HME0tVlHQLcIlNAQgAIEmBFDQTejRFwI9ELDqUu/WiPnMnq9SlbrVrbLY0upla/froTihcWVXnKpPz9WrvLTxrWcoT+vTpK+N07yOgm7OkAhZEiApCAyfAAp6+GvIDCZPwFeg9umq8PjKUUrcei4s8w4hFTlvnCnawv+a22RclrLrVp6q29LP2bamqttPBlZ9z0aTvqnyR0GnIkkcCEAAAokJoKATAx1IONIcOQGrYW3dn7bfKsth39VY5CODrctiS7/Vt1h/6pYACtrSoA4BCEAgIwIo6IwWg1Qg0B4B+6zZjiI9q1b73NmegH7w+DOuyz2bN7hS16PfP6KKK/WUWX31ZFnRXNPapbHWjK3eVn3ubJNp0tfGaVJHQe9DDxMEIACBHAigoHNYBXKAQKcEpHalfO3AsqhVJ6Ctjpan7KrL36/LojjWR/ZuyibjNumbdnYo6LQ8iQYBCEAgGYHqCjrZ0ASCAAS6I6Dnv3o6XK4Q1Sr9a/WyrcunPHvro9HL/VO1Nhkrpq8Ypsq2PA4KupwPrRCAAAR6I4CC7g09A0OgewIhhejb/XPQ8YrYj9blTEsUbkka9XqVBEzShIJOgpEgEIAABNITSKagP/Wt61x258494crQdeGFN7mmD5x4w5Xfu+NyV+LvICyvenyevLP4gxDwX2JcVurxrPf9OXvlzHLcnCvSiVK4qutZs3KWRlarStnLy/I4ao2PVj7W1FpR0FNbceYLgQABzPkRSKagP/fiu9zsbt35oitD18lDhc9sViho/H1KdfkUChqe6XjW+f70R8/T4itZqebm2Ybi+CM2H6s8QvyIUveKVq+X+rZXoqDbY0tkCEAAAo0IJFPQ288/7RLZnt3syvBV+Og37fbcCf85hmVRh486w18cVss6PAPfn6uBF3d78ReGQf0jzVhPRZZPVJHLfdprtTMKjRLKMKZvKGYbdhR0G1SJCQEIQCABgWQKWrojPiP8y1nBZ1h8lO3RY/387WeNXq8Macn4aM0jxI8V72lPp9heMT9ZMX27WWsUtF076jUJ0A0CEGiDQDIF/ezxc8v8ujx/ynnq6zeLRYR/vfPLqb5/tArbpx9a/hT4lW40lz+utegZqzSvrR/5yJedm9SlWt1t5KU4Up32fdCKo1bVIwMmdGvydwXL+3az1ijohN8MhIIABCCQkkAhvpLE+8UPfraMU/c87xsuwgjP87pZrV6p+fyeCw//vs/XF6vgFsJdvlIuV1uuS2dXSMlKOzdJIxQhNGKTsfLp2/Zao6DzWWsygQAEILBCIJmCXv37XXvnQznvvMJ7cZOWT/EWCPhLwfX3/VasgpZXelnaSnXZcyuttlVdz4ub56lozeM0j7D6c1EtXkxfrW97a927gq6GDG8IQAAC0yGQTEFLv/jgQnbfUxb8xSFUhvhUtVeNj78IhDir1ZbSVtaSf72e8q3Xq20a8SvlZ1K1b3trjYL2VwcLBCAAgQgC7btcsLOzk2QUPYVJEoogEBgcgXs2b3A5P3j8GVeGLvmodWNjQ5UaJT9rNaAl7KJ17GatUdAJF45QEIAABFISSPAMWr/PQ09hyltTToVYEGiTQPl3sm3d2toqSaS5dh7Iz1oJg9yb7Gr6udrW9tZa46KgxYESAhCAQHYEEihof072N4xtld1aQvWQRgj5Y4dAlwT0nex/l0pPNdHIVWcRykT2qtFC/v5MQ57js4ukT6CbtUZBj+87ihkNgAApQiCGQGIFrd82MQPjA4GhE9B3u6+tupmXRu9mLEYR7e7XGgXN9x4EIACBTAkkVtD6DaPfNpnOmLTyJzCQDPXd3leyGp2ftW74i3Y3Y9lRUNCWBnUIQAACGRFIrKA1s9Bvm5BdvSghMBQC+XwnhzIJ2YdCOJ88+yWJgs7nOyEyE9wgAIGpEOBdHFNZaebZKgG9n0FDtH0OmufO4txX2eVao6D7WmXGhQAEIHAAgWQKWuPo0zWq91IyKAR6JNC2drZT42fN0ui+3s1ao6C7X1lGhAAEIBBFILGCjhoTJwhAAAIQWCewzz0Keh8omCAAAQjkQIANOodVIAcIQAAC+xBgg94HCiYIQCA3AtPMhw16muvOrCEAgQEQYIMewCKRIgQgME0Cyd7FwaebpvkNxKzjCaR6q8M+P2vxSeDZCYFUa42C7mS5GAQCEIBAdQIJzkHz+7w6dnpMl0ATbcXP2rC+b5qstWaKghYHyhETYGoQGCoBNuihrhx5D5TA1vx/A02etCsRmC/1VqUua85s0GtAuIUABCCQCwE26FxWoq88GBcCEMiWABt0tktDYhCAwNQJsEFP/TuA+UMAAtkSYIMuXRoaIQABCPRHINknCfubQhcjb3z00yXDbD1+/1rrs8fPrVlCt9dvri9B1bFCka1dMZVnTN329es63Rk6k6v4fi/fonxkr9dLfVX6EWx8+fhlvV6Ko74xo8ifMkRAJEOtPuHcfr5CmTe3o6CbMyQCBCAAgVYIrMu3KoNU9pXyst2kwsrt8rG9YvzlY/uGLIpsPWVRWf673fr4v+fVqtIq5dDv/1RjaURb2txi6ravrVuGtm59VLejyGLLmJla//K6ovkjhuyKplbVbSm7H836qC6feH/1yqfUCtp89FMgu1+Xp22VRaXsqtu+sqiUXXWVoqd6qJSPaId8+v35CmXV3I6Cbs6QCBCAAARaIdCpgtbvT/2mVV1zUt23qzVUqpffqjjWLov8bV0+Ibtam5f63S7VrHp8TKkGKYj4Xr6nIiia3ypLuU/33JRVeVmes+br+8jSJLLtGxrF+uRZL//O14rbzGXxe1m79Vdd/qq3UepnqvLP1zwVu3ZzQ3YFCjq7JSEhCEAAAiLQqYLWkKlK/d5WtJjf0tZfvVTKHhNBv2/VS2WMFpNn1dKOpXqTsRShPIeQT4hPyF4+ynBbY/jLJ0RyuHO3mWvdrUV1a7c/TSG7etnS5yae1idV3Y6lentjNckZBd2EHn0hMEoCTCoXAgNW0Pa3tMUpu/29rdZyu3zKyy5/x2qsVL/bbbTQHH0fMRQ32ytktz7TrGu9xjF3rbvW2s6ont1GCNX1HRhqTWvXWFov1dPGTxUNBZ2KJHEgAAEIJCaQhYK2v6VV129pzVUW1WPs8syttP9fc3xuqX63SymUjxvyEX+Rt/XyaN20KmdRUt2OG7LLU63W39blYy2qbz1+v6v4fUP+zjnbS6up9FTXKssSX6qXIvi9rF2evk9zS78/X83zD0VAQYfIYIcABCDQMwH+JmHUAviKyXbz1ZNOZVqfUF2/+W1r1bFs31BdMZVnTF1xrPaRJUYBKb78y0vlI596vdRXpR/BxpePX8b3kqeN6Vv8+L7lns0bnHFjY8OVVa8Y/lVj5uAvkqFMLHP55Pbzpaz8sslaKxoKWhwoExEgDAQgkI4ACjodSyJBIIJAE1U1VgUdgW2QLk3WWhNGQYsDJQQgAIHsCLBBd7kkjAUBCECgAgE26AqwcIUABCDQJQE26C5pMxYEIACBCgQy2qArZI0rBCAAgQkQYIOewCIzRQhAYJgE2KCHuW5kDQEIZESgrVQSvItDnzfjhGZbS0TcsRDQqdgms+FnrQm9Lvs2X2tli4IWB0oIQAAC2RFI8ElCO6etrS17Sx0CEFgjUO8tHGtB3O2AftZcttO8mq81Cnqa3znMGgIQGACBxAp6ADMmRQhAAAIDIYCCHshCkeZYCTAvCIQJsEGH2dACAQhAoFcCbNC94mdwCEAAAmECbNBhNrT0T4AMIDBpAmzQk15+Jg8BCORMgA0659UhNwhAYNIE2KAHvPykDgEIjJsAG/S415fZQQACAybABj3gxSN1CEBg3ATGu0GPe92YHQQgMAECbNATWGSmCAEIDJPA/wPawSwotYu4rgAAAABJRU5ErkJggg==" parent="1" vertex="1">
          <mxGeometry x="53" y="540" width="480" height="360" as="geometry" />
        </mxCell>
        <mxCell id="p1c2saggwYmDi9HayLSL-65" value="Pyxel App" style="rounded=1;whiteSpace=wrap;html=1;absoluteArcSize=1;arcSize=14;strokeWidth=1;fontSize=14;fillColor=#454747;strokeColor=none;fontColor=#FFFFFF;" parent="1" vertex="1">
          <mxGeometry x="990" y="30" width="130.5" height="30" as="geometry" />
        </mxCell>
        <mxCell id="p1c2saggwYmDi9HayLSL-67" value="" style="endArrow=classic;html=1;rounded=0;strokeColor=#FF99FF;strokeWidth=4;" parent="1" edge="1">
          <mxGeometry width="50" height="50" relative="1" as="geometry">
            <mxPoint x="640" y="160" as="sourcePoint" />
            <mxPoint x="640" y="420" as="targetPoint" />
          </mxGeometry>
        </mxCell>
        <mxCell id="p1c2saggwYmDi9HayLSL-68" value="" style="endArrow=classic;html=1;rounded=0;strokeColor=#3333FF;strokeWidth=4;" parent="1" edge="1">
          <mxGeometry width="50" height="50" relative="1" as="geometry">
            <mxPoint x="640" y="160" as="sourcePoint" />
            <mxPoint x="900" y="160" as="targetPoint" />
          </mxGeometry>
        </mxCell>
        <mxCell id="p1c2saggwYmDi9HayLSL-69" value="" style="rounded=1;whiteSpace=wrap;html=1;strokeColor=#FF3333;strokeWidth=4;fillColor=none;" parent="1" vertex="1">
          <mxGeometry x="40" y="70" width="39" height="40" as="geometry" />
        </mxCell>
        <mxCell id="p1c2saggwYmDi9HayLSL-71" value="" style="rounded=1;whiteSpace=wrap;html=1;strokeColor=#FF3333;strokeWidth=4;fillColor=none;" parent="1" vertex="1">
          <mxGeometry x="440" y="390" width="50" height="40" as="geometry" />
        </mxCell>
        <mxCell id="p1c2saggwYmDi9HayLSL-72" value="" style="shape=image;verticalLabelPosition=bottom;verticalAlign=top;imageAspect=0;aspect=fixed;image=data:image/png,iVBORw0KGgoAAAANSUhEUgAAAQAAAAEACAIAAADTED8xAAAZu0lEQVR4Ae2dT6gt2VXGzws3IzGQ50Cd6czQRJA3eg0tCG07iANFQg809CAijRF5o9CDgPhn0M5aMA8ReyBpkRhQBzropEFiwDtqHMRgj6IT/wV8gUBmb5B17+9S+c5dZ1XvOlV1/u0v7Kz+zrdXrb3qO7fWqtp133sPXnj02qbtf996/y/D0f4hws5hfXbKMpCnqc9HhvwMrECHCnzkY594HGP8zMMhBj4BYoArGw4xmA0QA1zZcIjBbIAY4MqGQwxmA8QAVzYcYjAbIAa4suEQg9kAMcCVDYcYzAaIAa5sOMRgNkAMcGXDIQazAWKAKxsOMZgNEANc2XCIwWyAGODKhkMMZgPEAFc2HGIwGyAGuLLhEIPZADHAlQ2HGMwGiAGubDjEYNYdAB1sO1XgivMeLgg+fqi1/7hE1udc9Om4A4x/RZ61AlbAClgBK2AFLlmBHe8BTnO/1u8fqh9Df1+VMvDj+vgZAJVsO1Vg6wKIvYsYKBEgBriy4RCD2QAxwJUNhxjMBogBrmw4xGA2QAxwZcMhBrMBYoArGw4xmA0QA1zZcIjBbIAY4MqGQwxmA8QAVzYcYjAbIAa4suEQg9kAMcCVDYcYm80mHALECDAywiEGDgFigCsbDjGYDRADXNlwiMFsgBjgyoZDDGYDxABXNhxiMBsgBljt1gWgE8ZWoAcFrnZeFsOZj88ObgOw/yDFTmB9dsoykIfXxx1gEN/AClgBK2AFrIAVuFwFfGZWwApYAStgBVDgAf9pt6f2RrY9czydPzpkO/7GtPLP/Dhzavp7F2j8+/LshStw9+cB9jvLvGv7vX+/Hgm1tv/I0jun1s5navydSY6QU+Ov7T+S6s6ptfNpid9RB9j5HZi0AlbAClgBK2AFrIAVsAJWwApYgY4UWOA9wH77x0vtB7N6+zeW1yVC5quYy/oTrVor8zlPImRejt2Cy/oTbWuB0Q85TyJkvgqzrL93gSqdzXehwOT3AOytHne/nxzuvp/bv7H0Djf8h2Odv0qFJspM0OfM9XcH0O/d2ApYAStgBayAFbgQBT7sNHb8vUDVIcs+fedVHD9rooz1UTUy3k8fPwNkJc10pID/fYAdX3bsisRgIkAMcGXDIQazAWKAKxsOMZgNEANc2XCIwWyAGODKhkMMZgPEAFc2HGIwGyAGuLLhEIPZADHAlQ2HGMwGiAGubDjEYDZADHBlwyEGswFigCsbDjGYdQdAB9tOFbh7DzBcEI0y2H9cKOtzLvpccAcY/wo8awWsgBWwAlbACvSswI73APvtpx7rt/nyl+f8sybKWB9Vw88AqoZxdwpsXQCxdxEDDQLEAFc2HGIwGyAGuLLhEIPZADHAlQ2HGMwGiAGubDjEYDZADHBlwyEGswFigCsbDjGYDRADXNlwiMFsgBjgyoZDDGYDxABXNhxiMBsgBnhT/CccYjAZIAa4suEQg9kAMcCVDYcYzAaIAa5sOMRgNkAMcGXDIQazAWKAKxsOMZgNEAOsdusC0AljK9CDAv73Aba+5Z1FYstj+4P9t/W4/+n09XEHuP+d+bMVsAJWwApYAStwhgpMTXnrPQB3bNWfB632j5UnAkkQR5nf/qUfYWqwT9/9/oDx56MeBa+r4JMZeI7lKBg8wadm9f1Jzlyz5SzUn1nliQCPAspYf5RR62cAVcO4OwWuqB935337J/wf/8af3X3cbKgiw8cBUFfybGaGQwJovY+PI6OKU60LT8Drd14HnIW1/sf9mtwBjqu/Vz+yAnd/HkCzyBU033fmCk0lU8875ja0VuhbYssQ7c7/0Wtbc5sNPCSeYLU5Z509L5zPRVXlXLIOqKSed8ztAdb/VoYd5oI6wI6zM2UFPkSByX836IfEK6a1MmUXalXmzSylgPWvlHQHqJQx34UCe3aAqqJQy5nV+07dgX7zrfdC2jeevByWobtD3N1yLHfDRMNTLWsp0w8e14RZNEQT648O2boDZE3MdKTAjl2gqWdPpaFy67EwzFLjtQ7hCQ/GP2MY4qgPvO3HPvE4RMjKwKAbOlv/EOrecAe4J4g/9qXAnh2A+2/uNak0lWzMah3Ck5oExgdcWfVh9cqzBx4FrP/879odYL6GjnDGCuy5CzT1jKlV1VHUs2rW/HwFrH+loTtApYz5s1BgbpKzOgB1hfoN5l6fpLhrV6Z9F0KPIo6uAmaVpSz5EzljVtGsYMgNXB0Lj8+yNuepGZKbMtY/6+8OkDUx05ECe+4CoVCubVQdZrPVnZ88q0wVJ6+oR83BLZGrrKp1W2JWx7bwOf54htY/q+oOkDUx05ECs54Bsk7clcJTn2D0TpRZtdQt9ddZeGUOjzmLat1TyJDcNE+ygrH+6JPtGXeAfDJmrMBUBRbuANXy1KFqllpVzZqfr4D1rzR0B6iUMd+FArM6AHWF+q2Yv1eCO3vuPnUHer8/D5BXWeP74SxyZM4Cnj+lwDnCcKZgteSszLKYbFlFMbmRFZlb/0p5d4BKGfNdKLDwewA0o/aAsexAax1SHqxHKWYWS7UDr2GJTzXV+ORDNc28MgfBd4uQ7d0H+Q/ZCrGx/qqGYncAVcO4OwVmPQOMq6V1VGsn9SkzOVpV4bLnGgz5kwOYVTKTeXzgj2U156x2ZnKexz0L8icHMBlmJvP4wI9bd4BxfTx74Qqs2AFUOb2ClQe3X6/4205VwPpXirkDVMqYP0kFlk5qVgegrlC/wfnOUpn2XSA9imcGXQW8rBTkT+SMWUuzgiE3cHUsPD7L2pynZkhuylj/rL87QNbETEcKLPwegKpT6cdudDWrfBVnvWraErnKSjNX3BJT/afiHH88Q+ufFXYHyJqY6UiBWc8AWSfuSuGpTzB6J8qsWuqW+ussvDKHx5xFte4pZEhumidZwVh/9Mn2jDpATt6MFZirwMIdoEqHOlTNUquqWfPzFbD+lYbuAJUy5rtQYFYHoK5QvxX799H52UEZ8BpWNVds/VG7RX93ALSy7VSBhd8DoCK7OmAsO9DtbyJzBOK0XNN47meJTzXVCOST91Lg1XMVXAQl2zyZs7L+WSUYdwB0sO1UgVnPAOOaaR3V2kl9ykyOVlW47LkGQ/7kAGaVzGQeH/hjWc05q52ZnOdxz4L8yQFMhpnJPD7w49YdYFwfz164Ait2AFVOr2Dlwe3XK/62UxWw/pVi7gCVMuZPQoG1k5jVAagr1G9wvrNUpn0XSI/imUFXAS8rDfkTOWPW0qxgyA1cHQuPz7I256kZkpsy1j/r7w6QNTHTkQILvweg6lT6sRtdzSpfxVmvmrZErrLSzBW3xFT/qTjHH8/Q+meF3QGyJmY6UmDWM0DWibtSeOoTjN6JMquWuqX+OguvzOExZ1GtewoZkpvmSVYw1h99sj3hDpCTNWMFllZg4Q5QpUcdqmapVdWs+fkKWP9KQ3eAShnzXSgwqwNQV6jfiv376PzsoAx4DauaK7b+qN2ivzsAWtl2qsDC7wFQkV0dMJYd6PY3kTkCcVquaTz3s8SnmmoE8sl7KfDquQhuDEK22TlnZf2zSjDuAOhg26kCs54BxjXTOqq1k/qUmRytqnDZcw2G/MkBzCqZyTw+8MeymnNWOzM5z+OeBfmTA5gMM5N5fODHrTvAuD6evXAFVuwAqpxewcqD269X/G2nKmD9K8XcASplzB9FgUMvOqsDUFeo3+B8Z6lM+y6QHsUzg64CXlYq8idyxqylWcGQG7g6Fh6fZW3OUzMkN2Wsf9bfHSBrYqYjBRZ+D0DVqfRjN7qaVb6Ks141bYlcZaWZK26Jqf5TcY4/nqH1zwq7A2RNzHSkwKxngKwTd6Xw1CcYvRNlVi11S/11Fl6Zw2POolr3FDIkN82TrGCsP/pke0IdICdnxgqsrcDCHaBKlzpUzVKrqlnz8xWw/pWG7gCVMua7UGBWB6CuUL8V+/fR+dlBGfAaVjVXbP1Ru0V/dwC0su1UgYXfA6AiuzpgLDvQ7W8icwTitFzTeO5niU811Qjkk/dS4NVzL7znQWSbD85ZWf+sEow7ADrYdqrArGeAcc20jmrtpD5lJkerKlz2XIMhf3IAs0pmMo8P/LGs5pzVzkzO87hnQf7kACbDzGQeH/hx6w4wro9nL1yBFTuAKqdXsPLg9usVf9upClj/SjF3gEoZ8wdR4NiLzOoA1BXqNzjfWSrTvgukR/HMoKuAl5WO/ImcMWtpVjDkBq6OhcdnWZvz1AzJTRnrn/V3B8iamOlIgYXfA1B1Kv3Yja5mla/irFdNWyJXWWnmiltiqv9UnOOPZ2j9s8LuAFkTMx0pMOsZIOvEXSk89QlG70SZVUvdUn+dhVfm8JizqNY9hQzJTfMkKxjrjz7ZHrED5GTMWIFDK7BwB6jSpw5Vs9Sqatb8fAWsf6WhO0CljPkuFJjVAagr1G/F/n10fnZQBryGVc0VW3/UbtHfHQCtbDtVYOH3AKjIrg4Yyw50+5vIHIE4Ldc0nvtZ4lNNNQL55L0UePVswgs5kW0OlrOy/lklGHcAdLDtVIFZzwDjmmkd1dpJfcpMjlZVuOy5BkP+5ABmlcxkHh/4Y1nNOaudmZzncc+C/MkBTIaZyTw+8OPWHWBcH89euAIrdgBVTq9g5cHt1yv+tlMVsP6VYu4AlTLmV1Hg1ILO6gDUFeo3ON9ZKtO+C6RH8cygq4CXlZL8iZwxa2lWMOQGro6Fx2dZm/PUDMlNmRb9//lPfzWSfP78K2GXGldXn45QP/87fxd27fixRAw0V32C3DncAXbKYrIXBRZ+D0DVqcRjN7qaVb6Kw5WtnkvhlshVVlUOLTGrY1v4HH88w3b9W1Y/fZ+sT87ZHSBrYqYjBWZ1ANWJq427Lvg75vaD3oneEluGunXn/+i1rbnNBv4euepHXRGs55WXxgdeMcxhLOtqnnfM7fLt+m82N88AtwedpeGs21M/YAdoT8qeVuBQCszaBWpPUitTPmrqVZsjmBlXoF3/zz/9doT6zLPPhl1qfOnh2xHqH9/+/bCf+uzvhV0v/tSfJXeA+Do8+lVg1jMAdYVrTvH030d/PHwDPA9wz3r9zuvBa2TFMbX4IH4OSz7wZMU5wpAzWC3KKLMsJltWUUxuZEXm+gbgzbfeizTeePJyWMbTd3+oP8z5WnQgf5QBV9YdoFLGfBcKzOoA1RVG7VH92IHWOsQsPFiPUswstlqR2fmW+FpFiEk+VFMYLDx4xK40RbY5eM4KnZv0f/GVCPhbH7wa9s9/5sth8xifVX88X3pRuRsMv178mzXa/u8O0KaTvS5UgRV3gbSOau2kPmUmK1xVuOy5BkP+5ABmlcxkHh/4Y1nNOaudGfJUHmYpm7/3pSITh/jgdv3dAVDMtlMFVuwAqqhWI+XB7dcr/rZTFWjXf9xz6rqH95/6s+QOcPjvqKsVT/1kZ3UAqgXXHFjvILknU6ZpF+JWMT2KOLoK+NZxMUP+RM6YZTQrGHIDV8fC47OszXlqhuSmjPXP+rsDZE3MdKTAwu8BqDqVfuxGV7PKV3HWq6YtkausNHPFLTHVfyrO8ccztP5ZYXeArImZjhSY9QyQdeKuFJ76BKN3osyqpW6pv87CK3N4zFlU655ChuSmeZIVjPVHn2xX7AB5MTNW4NQUWLgDVKdHHapmqVXVrPn5Clj/SkN3gEoZ810oMKsDUFeo34qn/z769wexeR7gnpXfvNfIiodDFgTEzwHJB56sOEcYcgarRRlllsVkyyqKyY2syFzfAOz68wD96u8OsOzPpKOdmQILvwfg7Kk9YCw70FqHlAfrUYqZxVLtwGtY4lNNNT75UE0zr8wtPpAh27wY2Spv/VUNxe4AqoZxdwrMegYYV0vrqNZO6lNmcrSqwmXPNRjyJwcwq2Qm8/jAH8tqzlntzOQ8j3sW5E8OYDLMTObxgR+37gDj+nj2whVYsQOocnoFKw9uv17xt52qgPWvFHMHqJQxv5cC53bQrA5AXaF+g/OdpTLtu0B6FM8Mugp4WanJn8gZs5ZmBUNu4OpYeHyWtTlPzZDclLH+WX93gKyJmY4UWPg9AFWn0o/d6GpW+SrOetW0JXKVlWauuCWm+k/FOf54htY/K+wOkDUx05ECs54Bsk7clcJTn2D0TpRZtdQt9ddZeGUOjzmLat1TyJDcNE+ygrH+6JPtgh0gBzdjBU5dgYU7QHW61KFqllpVzZqfr4D1rzR0B6iUMd+FArM6AHWF+q3Yv4/Ozw7KgNewqrli64/aLfq7A6CVbacKLPweABXZ1QFj2YFufxOZIxCn5ZrGcz9LfKqpRiCfvJcCv1HXA2KyzQvmrKx/VgnGHQAdbDtVYNYzwLhmWke1dlKfMpOjVRUue67BkD85gFklM5nHB/5YVnPOamcm53ncsyB/cgCTYWYyjw/8uHUHGNfHsxeuwIodQJXTK1h5cPv1ir/tVAWsf6WYO0CljPkmBc7daVYHoK5Qv8H5zlKZ9l0gPYpnBl0FvKz05E/kjFlLs4IhN3B1LDw+y9qcp2ZIbsr0oP+zZ8/uify1b348mF/85HfD6oB3B1BNjLtTYOH3AFSdSkV2o6tZ5as461XTlshVVpq54paY6j8V5/jjGfag/x988LX7Mn70hrj+4MZu/f+WdwfY0sQfelNg1jNAFou7UnjqE4zeiTKrlrql/joLr8zhMWdRrXsKGZKb5klWMP3o/5Nf/IuQ4qeun4f9z8c3NzjjeEYHiBU8rMCZK7BwB6jUoA5Vs9Sqatb8fAWsf6WhO0CljPkuFJjVAagr1G/F/n10fnZQBryGVc0VW3/UbtHfHQCtbDtV4OYxee9Tr64wdnU0LDvQ7W8icwSiVSsyO98Sn2qq0chn2EsZpuCHjwcGZJsXzVlZ/6wSjDsAOth2qsCsZ4BxzbSOau2kPmUmR6sqXPZcgyF/cgCzSmYyjw/8sazmnNXOTM7zuGdB/uQAJsPMZB4f+HHrDjCuj2cvXIEVO4Aqp1ew8uD26xV/26kKWP9KMXeAShnzOxW4NHJWB6CuUL/B+c5SmfZdID2KZwZdBbzsV0H+RM6YtTQrGHIDV8fC47OszXlqhuSmjPXP+rsDZE3MdKTAwu8BqDqVfuxGV7PKV3HWq6YtkausNHPFLTHVfyrO8ccztP5ZYXeArImZjhSY9QyQdeKuFJ76BKN3osyqpW6pv87CK3N4zFlU655ChuSmeZIVjPVHn2wndIB8sBkrcO4KLNwBKjmoQ9UstaqaNT9fAetfaegOUCljvgsFZnUA6gr1W7F/H52fHZQBr2FVc8XWH7Vb9HcHQCvbThVY+D0AKrKrA8ayA93+JjJHIE7LNY3nfpb4VFOJsCGfvJcCr56HxGSbV8xZWf+sEow7ADrYdqrArGeAcc20jmrtpD5lJkerKlz2XIMhf3IAs0pmMo8P/LGs5pzVzkzO87hnQf7kACbDzGQeH/hx6w4wro9nL1yBFTuAKqdXsPLg9usVf9upClj/SjF3gEoZ87cKXLqZ1QGoK9RvcL6zVKZ9F0iP4plBVwGPfzVP/uXLOx3eevHVnTz5EzljDtGsYMgNXB0Lj8+yNuepGZKbMofUf+qZ5nNBN3ii6bnAcI5g9c8Yn2zdAbImZjpSYOs9AG8QX3rxlRDg0Qs/HZZ/V+Phw4eB8+A6U16vSOXB7EaDx20VJ6+Y4+i/EcK/AnL90b8Z3OgMuQ+0RK6yGoLfAy0x7x0y6WOOP57hYfSfdAqDcz6XYWoA42c3uA2gJaY7wCCXQY8K3D0DfP7pt4ezz7Wfmlr1geHAAHrHxvUHk+/ewnkYXNnqP0wFgA8waZAzh7zw138LCPvqz/1o2NwBghwZnEXlsF+GVbQ5vOZJVjCH13/OWeRjOYvMw3Cm4Kl2pANMDWV/K3B+Ctx1AK2X3Dfr3T+zLR2gEmC9KzivSLbwnMuTf3ubj4P9n8/95oB7AIfU/7z0dAc4r+/L2S6swJXWS2K//63/uAU3u0D/941fD/xfT38tLPjHX/qrwAzqCndgitlN4s6eu0/dgX7zrffi8DeevByW8fTdx4CwetT1O68Ho5EVx9TOoXf8Ox1GSOJnB84Cnqw4RxhyBqtFGWWWxWTLKorJjazI/JD6zzlHziJH4Czgl9XfHQBVbTtVYOs9wKd+94f75ZvNzduA9zd/GMJ844Ovhr3+wk09DjAMas/wcQDUnuFjAHagtQ4FGQM+QAw9SnFMDaNaEQd61He+ftOjXvn4Te+CV/vV797Mbv7oF4L85Bf+KawO4r/w6DUlA5OP1qEgY8AHOMog27x0zgqd19Y/ZzKV4YxyH+CM1tDfHWDqd2T/i1LgbheIc+LeEayWuy5lWrBex3rt5qsZJsekHmS+Yr55W9d1Vmv8+KweBSZ/cgDDZybz+MAfy2rOh9F/2TMlf5QEEz8zmccHfty6A4zr49kLV2CrA/z/9d/H6f7Y418Jqzg+zhx6BedQ7ddrPjYzWumrDqB8jnB5zCH1Py/13AHO6/taPdveFnhApX/+/CsjZ3519emY/eUv/m/Yf/jcT4S1f4gwDOtzvj8P7gDDj7FBjwpc/fG//myc92ee/UnYanzp4Y3PZnPTAeyfVbI+5/vz4w6Qf57NdKTAg2rvP2vAbr3uKGcfZeyvamRsfbImyhxGH+kAurixFehDgQfjO8R9iOCz7FcBd4B+v3ufeSjwgN+gDBTD+9nnu5/t9zPxA3xvtPw8uwPcE80f+1Lg6jtf/+/hjLvdzw4F/H4jRLg3evh5cAe496X7Y18K7HgPcJj9V79PqH7QrH+lDPyy+rgDoKptpwr4PUCnX7xPGwXcAdChW9v7if8AxA4qyA/dE5MAAAAASUVORK5CYII=" parent="1" vertex="1">
          <mxGeometry x="990" y="99" width="256" height="256" as="geometry" />
        </mxCell>
        <mxCell id="p1c2saggwYmDi9HayLSL-73" value="platformer.pyxres" style="rounded=1;whiteSpace=wrap;html=1;absoluteArcSize=1;arcSize=14;strokeWidth=1;fontSize=14;fillColor=#454747;strokeColor=none;fontColor=#FFFFFF;" parent="1" vertex="1">
          <mxGeometry x="620" y="30" width="130.5" height="30" as="geometry" />
        </mxCell>
        <mxCell id="p1c2saggwYmDi9HayLSL-75" value="" style="whiteSpace=wrap;html=1;aspect=fixed;fillColor=none;strokeColor=#FFFFFF;strokeWidth=3;" parent="1" vertex="1">
          <mxGeometry x="678" y="232.75" width="36" height="36" as="geometry" />
        </mxCell>
        <mxCell id="p1c2saggwYmDi9HayLSL-77" value="pyxel.blt( &lt;span style=&quot;background-color: rgb(255, 217, 102);&quot;&gt;x&lt;/span&gt;, &lt;span style=&quot;background-color: rgb(153, 255, 153);&quot;&gt;y&lt;/span&gt;, 0, &lt;span style=&quot;background-color: rgb(102, 102, 255);&quot;&gt;u&lt;/span&gt;, &lt;span style=&quot;background-color: rgb(255, 153, 255);&quot;&gt;v&lt;/span&gt;, w, h, col )" style="rounded=1;whiteSpace=wrap;html=1;absoluteArcSize=1;arcSize=14;strokeWidth=1;fontSize=13;fillColor=#E6E6E6;strokeColor=none;fontColor=#000000;" parent="1" vertex="1">
          <mxGeometry x="940" y="379" width="220" height="30" as="geometry" />
        </mxCell>
        <mxCell id="p1c2saggwYmDi9HayLSL-79" value="" style="endArrow=none;dashed=1;html=1;rounded=0;entryX=0.153;entryY=-0.017;entryDx=0;entryDy=0;entryPerimeter=0;" parent="1" target="p1c2saggwYmDi9HayLSL-77" edge="1">
          <mxGeometry width="50" height="50" relative="1" as="geometry">
            <mxPoint x="930" y="309" as="sourcePoint" />
            <mxPoint x="990" y="499" as="targetPoint" />
          </mxGeometry>
        </mxCell>
        <mxCell id="p1c2saggwYmDi9HayLSL-81" value="Tilemap Editor" style="rounded=1;whiteSpace=wrap;html=1;absoluteArcSize=1;arcSize=14;strokeWidth=1;fontSize=14;fillColor=#454747;strokeColor=none;fontColor=#FFFFFF;" parent="1" vertex="1">
          <mxGeometry x="40" y="480" width="130.5" height="30" as="geometry" />
        </mxCell>
        <mxCell id="p1c2saggwYmDi9HayLSL-82" value="" style="rounded=1;whiteSpace=wrap;html=1;strokeColor=#FF3333;strokeWidth=4;fillColor=none;" parent="1" vertex="1">
          <mxGeometry x="60" y="530" width="39" height="40" as="geometry" />
        </mxCell>
        <mxCell id="p1c2saggwYmDi9HayLSL-83" value="" style="rounded=1;whiteSpace=wrap;html=1;strokeColor=#FF3333;strokeWidth=4;fillColor=none;" parent="1" vertex="1">
          <mxGeometry x="440" y="850" width="50" height="40" as="geometry" />
        </mxCell>
        <mxCell id="p1c2saggwYmDi9HayLSL-84" value="" style="rounded=1;whiteSpace=wrap;html=1;strokeColor=#FF3333;strokeWidth=4;fillColor=none;" parent="1" vertex="1">
          <mxGeometry x="150" y="850" width="50" height="40" as="geometry" />
        </mxCell>
        <mxCell id="p1c2saggwYmDi9HayLSL-85" value="tilemap 0" style="rounded=1;whiteSpace=wrap;html=1;absoluteArcSize=1;arcSize=14;strokeWidth=1;fontSize=14;fillColor=#454747;strokeColor=none;fontColor=#FFFFFF;" parent="1" vertex="1">
          <mxGeometry x="620" y="550" width="130.5" height="30" as="geometry" />
        </mxCell>
        <mxCell id="p1c2saggwYmDi9HayLSL-86" value="platformer.pyxres" style="rounded=1;whiteSpace=wrap;html=1;absoluteArcSize=1;arcSize=14;strokeWidth=1;fontSize=14;fillColor=#454747;strokeColor=none;fontColor=#FFFFFF;" parent="1" vertex="1">
          <mxGeometry x="620" y="480" width="130.5" height="30" as="geometry" />
        </mxCell>
        <mxCell id="p1c2saggwYmDi9HayLSL-87" value="image bank" style="rounded=1;whiteSpace=wrap;html=1;absoluteArcSize=1;arcSize=14;strokeWidth=1;fontSize=14;fillColor=#E6E6E6;strokeColor=none;fontColor=#000000;" parent="1" vertex="1">
          <mxGeometry x="379.75" y="640" width="110.25" height="30" as="geometry" />
        </mxCell>
        <mxCell id="p1c2saggwYmDi9HayLSL-88" value="" style="endArrow=classic;html=1;rounded=0;strokeColor=#FFFFFF;strokeWidth=3;exitX=0.5;exitY=1;exitDx=0;exitDy=0;" parent="1" source="p1c2saggwYmDi9HayLSL-87" edge="1">
          <mxGeometry width="50" height="50" relative="1" as="geometry">
            <mxPoint x="460" y="670" as="sourcePoint" />
            <mxPoint x="420" y="730" as="targetPoint" />
          </mxGeometry>
        </mxCell>
        <mxCell id="p1c2saggwYmDi9HayLSL-89" value="" style="shape=image;verticalLabelPosition=bottom;verticalAlign=top;imageAspect=0;aspect=fixed;image=data:image/png,iVBORw0KGgoAAAANSUhEUgAAAQAAAAEACAIAAADTED8xAAAZu0lEQVR4Ae2dT6gt2VXGzws3IzGQ50Cd6czQRJA3eg0tCG07iANFQg809CAijRF5o9CDgPhn0M5aMA8ReyBpkRhQBzropEFiwDtqHMRgj6IT/wV8gUBmb5B17+9S+c5dZ1XvOlV1/u0v7Kz+zrdXrb3qO7fWqtp133sPXnj02qbtf996/y/D0f4hws5hfXbKMpCnqc9HhvwMrECHCnzkY594HGP8zMMhBj4BYoArGw4xmA0QA1zZcIjBbIAY4MqGQwxmA8QAVzYcYjAbIAa4suEQg9kAMcCVDYcYzAaIAa5sOMRgNkAMcGXDIQazAWKAKxsOMZgNEANc2XCIwWyAGODKhkMMZgPEAFc2HGIwGyAGuLLhEIPZADHAlQ2HGMwGiAGubDjEYNYdAB1sO1XgivMeLgg+fqi1/7hE1udc9Om4A4x/RZ61AlbAClgBK2AFLlmBHe8BTnO/1u8fqh9Df1+VMvDj+vgZAJVsO1Vg6wKIvYsYKBEgBriy4RCD2QAxwJUNhxjMBogBrmw4xGA2QAxwZcMhBrMBYoArGw4xmA0QA1zZcIjBbIAY4MqGQwxmA8QAVzYcYjAbIAa4suEQg9kAMcCVDYcYm80mHALECDAywiEGDgFigCsbDjGYDRADXNlwiMFsgBjgyoZDDGYDxABXNhxiMBsgBljt1gWgE8ZWoAcFrnZeFsOZj88ObgOw/yDFTmB9dsoykIfXxx1gEN/AClgBK2AFrIAVuFwFfGZWwApYAStgBVDgAf9pt6f2RrY9czydPzpkO/7GtPLP/Dhzavp7F2j8+/LshStw9+cB9jvLvGv7vX+/Hgm1tv/I0jun1s5navydSY6QU+Ov7T+S6s6ptfNpid9RB9j5HZi0AlbAClgBK2AFrIAVsAJWwApYgY4UWOA9wH77x0vtB7N6+zeW1yVC5quYy/oTrVor8zlPImRejt2Cy/oTbWuB0Q85TyJkvgqzrL93gSqdzXehwOT3AOytHne/nxzuvp/bv7H0Djf8h2Odv0qFJspM0OfM9XcH0O/d2ApYAStgBayAFbgQBT7sNHb8vUDVIcs+fedVHD9rooz1UTUy3k8fPwNkJc10pID/fYAdX3bsisRgIkAMcGXDIQazAWKAKxsOMZgNEANc2XCIwWyAGODKhkMMZgPEAFc2HGIwGyAGuLLhEIPZADHAlQ2HGMwGiAGubDjEYDZADHBlwyEGswFigCsbDjGYdQdAB9tOFbh7DzBcEI0y2H9cKOtzLvpccAcY/wo8awWsgBWwAlbACvSswI73APvtpx7rt/nyl+f8sybKWB9Vw88AqoZxdwpsXQCxdxEDDQLEAFc2HGIwGyAGuLLhEIPZADHAlQ2HGMwGiAGubDjEYDZADHBlwyEGswFigCsbDjGYDRADXNlwiMFsgBjgyoZDDGYDxABXNhxiMBsgBnhT/CccYjAZIAa4suEQg9kAMcCVDYcYzAaIAa5sOMRgNkAMcGXDIQazAWKAKxsOMZgNEAOsdusC0AljK9CDAv73Aba+5Z1FYstj+4P9t/W4/+n09XEHuP+d+bMVsAJWwApYAStwhgpMTXnrPQB3bNWfB632j5UnAkkQR5nf/qUfYWqwT9/9/oDx56MeBa+r4JMZeI7lKBg8wadm9f1Jzlyz5SzUn1nliQCPAspYf5RR62cAVcO4OwWuqB935337J/wf/8af3X3cbKgiw8cBUFfybGaGQwJovY+PI6OKU60LT8Drd14HnIW1/sf9mtwBjqu/Vz+yAnd/HkCzyBU033fmCk0lU8875ja0VuhbYssQ7c7/0Wtbc5sNPCSeYLU5Z509L5zPRVXlXLIOqKSed8ztAdb/VoYd5oI6wI6zM2UFPkSByX836IfEK6a1MmUXalXmzSylgPWvlHQHqJQx34UCe3aAqqJQy5nV+07dgX7zrfdC2jeevByWobtD3N1yLHfDRMNTLWsp0w8e14RZNEQT648O2boDZE3MdKTAjl2gqWdPpaFy67EwzFLjtQ7hCQ/GP2MY4qgPvO3HPvE4RMjKwKAbOlv/EOrecAe4J4g/9qXAnh2A+2/uNak0lWzMah3Ck5oExgdcWfVh9cqzBx4FrP/879odYL6GjnDGCuy5CzT1jKlV1VHUs2rW/HwFrH+loTtApYz5s1BgbpKzOgB1hfoN5l6fpLhrV6Z9F0KPIo6uAmaVpSz5EzljVtGsYMgNXB0Lj8+yNuepGZKbMtY/6+8OkDUx05ECe+4CoVCubVQdZrPVnZ88q0wVJ6+oR83BLZGrrKp1W2JWx7bwOf54htY/q+oOkDUx05ECs54Bsk7clcJTn2D0TpRZtdQt9ddZeGUOjzmLat1TyJDcNE+ygrH+6JPtGXeAfDJmrMBUBRbuANXy1KFqllpVzZqfr4D1rzR0B6iUMd+FArM6AHWF+q2Yv1eCO3vuPnUHer8/D5BXWeP74SxyZM4Cnj+lwDnCcKZgteSszLKYbFlFMbmRFZlb/0p5d4BKGfNdKLDwewA0o/aAsexAax1SHqxHKWYWS7UDr2GJTzXV+ORDNc28MgfBd4uQ7d0H+Q/ZCrGx/qqGYncAVcO4OwVmPQOMq6V1VGsn9SkzOVpV4bLnGgz5kwOYVTKTeXzgj2U156x2ZnKexz0L8icHMBlmJvP4wI9bd4BxfTx74Qqs2AFUOb2ClQe3X6/4205VwPpXirkDVMqYP0kFlk5qVgegrlC/wfnOUpn2XSA9imcGXQW8rBTkT+SMWUuzgiE3cHUsPD7L2pynZkhuylj/rL87QNbETEcKLPwegKpT6cdudDWrfBVnvWraErnKSjNX3BJT/afiHH88Q+ufFXYHyJqY6UiBWc8AWSfuSuGpTzB6J8qsWuqW+ussvDKHx5xFte4pZEhumidZwVh/9Mn2jDpATt6MFZirwMIdoEqHOlTNUquqWfPzFbD+lYbuAJUy5rtQYFYHoK5QvxX799H52UEZ8BpWNVds/VG7RX93ALSy7VSBhd8DoCK7OmAsO9DtbyJzBOK0XNN47meJTzXVCOST91Lg1XMVXAQl2zyZs7L+WSUYdwB0sO1UgVnPAOOaaR3V2kl9ykyOVlW47LkGQ/7kAGaVzGQeH/hjWc05q52ZnOdxz4L8yQFMhpnJPD7w49YdYFwfz164Ait2AFVOr2Dlwe3XK/62UxWw/pVi7gCVMuZPQoG1k5jVAagr1G9wvrNUpn0XSI/imUFXAS8rDfkTOWPW0qxgyA1cHQuPz7I256kZkpsy1j/r7w6QNTHTkQILvweg6lT6sRtdzSpfxVmvmrZErrLSzBW3xFT/qTjHH8/Q+meF3QGyJmY6UmDWM0DWibtSeOoTjN6JMquWuqX+OguvzOExZ1GtewoZkpvmSVYw1h99sj3hDpCTNWMFllZg4Q5QpUcdqmapVdWs+fkKWP9KQ3eAShnzXSgwqwNQV6jfiv376PzsoAx4DauaK7b+qN2ivzsAWtl2qsDC7wFQkV0dMJYd6PY3kTkCcVquaTz3s8SnmmoE8sl7KfDquQhuDEK22TlnZf2zSjDuAOhg26kCs54BxjXTOqq1k/qUmRytqnDZcw2G/MkBzCqZyTw+8MeymnNWOzM5z+OeBfmTA5gMM5N5fODHrTvAuD6evXAFVuwAqpxewcqD269X/G2nKmD9K8XcASplzB9FgUMvOqsDUFeo3+B8Z6lM+y6QHsUzg64CXlYq8idyxqylWcGQG7g6Fh6fZW3OUzMkN2Wsf9bfHSBrYqYjBRZ+D0DVqfRjN7qaVb6Ks141bYlcZaWZK26Jqf5TcY4/nqH1zwq7A2RNzHSkwKxngKwTd6Xw1CcYvRNlVi11S/11Fl6Zw2POolr3FDIkN82TrGCsP/pke0IdICdnxgqsrcDCHaBKlzpUzVKrqlnz8xWw/pWG7gCVMua7UGBWB6CuUL8V+/fR+dlBGfAaVjVXbP1Ru0V/dwC0su1UgYXfA6AiuzpgLDvQ7W8icwTitFzTeO5niU811Qjkk/dS4NVzL7znQWSbD85ZWf+sEow7ADrYdqrArGeAcc20jmrtpD5lJkerKlz2XIMhf3IAs0pmMo8P/LGs5pzVzkzO87hnQf7kACbDzGQeH/hx6w4wro9nL1yBFTuAKqdXsPLg9usVf9upClj/SjF3gEoZ8wdR4NiLzOoA1BXqNzjfWSrTvgukR/HMoKuAl5WO/ImcMWtpVjDkBq6OhcdnWZvz1AzJTRnrn/V3B8iamOlIgYXfA1B1Kv3Yja5mla/irFdNWyJXWWnmiltiqv9UnOOPZ2j9s8LuAFkTMx0pMOsZIOvEXSk89QlG70SZVUvdUn+dhVfm8JizqNY9hQzJTfMkKxjrjz7ZHrED5GTMWIFDK7BwB6jSpw5Vs9Sqatb8fAWsf6WhO0CljPkuFJjVAagr1G/F/n10fnZQBryGVc0VW3/UbtHfHQCtbDtVYOH3AKjIrg4Yyw50+5vIHIE4Ldc0nvtZ4lNNNQL55L0UePVswgs5kW0OlrOy/lklGHcAdLDtVIFZzwDjmmkd1dpJfcpMjlZVuOy5BkP+5ABmlcxkHh/4Y1nNOaudmZzncc+C/MkBTIaZyTw+8OPWHWBcH89euAIrdgBVTq9g5cHt1yv+tlMVsP6VYu4AlTLmV1Hg1ILO6gDUFeo3ON9ZKtO+C6RH8cygq4CXlZL8iZwxa2lWMOQGro6Fx2dZm/PUDMlNmRb9//lPfzWSfP78K2GXGldXn45QP/87fxd27fixRAw0V32C3DncAXbKYrIXBRZ+D0DVqcRjN7qaVb6Kw5WtnkvhlshVVlUOLTGrY1v4HH88w3b9W1Y/fZ+sT87ZHSBrYqYjBWZ1ANWJq427Lvg75vaD3oneEluGunXn/+i1rbnNBv4euepHXRGs55WXxgdeMcxhLOtqnnfM7fLt+m82N88AtwedpeGs21M/YAdoT8qeVuBQCszaBWpPUitTPmrqVZsjmBlXoF3/zz/9doT6zLPPhl1qfOnh2xHqH9/+/bCf+uzvhV0v/tSfJXeA+Do8+lVg1jMAdYVrTvH030d/PHwDPA9wz3r9zuvBa2TFMbX4IH4OSz7wZMU5wpAzWC3KKLMsJltWUUxuZEXm+gbgzbfeizTeePJyWMbTd3+oP8z5WnQgf5QBV9YdoFLGfBcKzOoA1RVG7VH92IHWOsQsPFiPUswstlqR2fmW+FpFiEk+VFMYLDx4xK40RbY5eM4KnZv0f/GVCPhbH7wa9s9/5sth8xifVX88X3pRuRsMv178mzXa/u8O0KaTvS5UgRV3gbSOau2kPmUmK1xVuOy5BkP+5ABmlcxkHh/4Y1nNOaudGfJUHmYpm7/3pSITh/jgdv3dAVDMtlMFVuwAqqhWI+XB7dcr/rZTFWjXf9xz6rqH95/6s+QOcPjvqKsVT/1kZ3UAqgXXHFjvILknU6ZpF+JWMT2KOLoK+NZxMUP+RM6YZTQrGHIDV8fC47OszXlqhuSmjPXP+rsDZE3MdKTAwu8BqDqVfuxGV7PKV3HWq6YtkausNHPFLTHVfyrO8ccztP5ZYXeArImZjhSY9QyQdeKuFJ76BKN3osyqpW6pv87CK3N4zFlU655ChuSmeZIVjPVHn2xX7AB5MTNW4NQUWLgDVKdHHapmqVXVrPn5Clj/SkN3gEoZ810oMKsDUFeo34qn/z769wexeR7gnpXfvNfIiodDFgTEzwHJB56sOEcYcgarRRlllsVkyyqKyY2syFzfAOz68wD96u8OsOzPpKOdmQILvwfg7Kk9YCw70FqHlAfrUYqZxVLtwGtY4lNNNT75UE0zr8wtPpAh27wY2Spv/VUNxe4AqoZxdwrMegYYV0vrqNZO6lNmcrSqwmXPNRjyJwcwq2Qm8/jAH8tqzlntzOQ8j3sW5E8OYDLMTObxgR+37gDj+nj2whVYsQOocnoFKw9uv17xt52qgPWvFHMHqJQxv5cC53bQrA5AXaF+g/OdpTLtu0B6FM8Mugp4WanJn8gZs5ZmBUNu4OpYeHyWtTlPzZDclLH+WX93gKyJmY4UWPg9AFWn0o/d6GpW+SrOetW0JXKVlWauuCWm+k/FOf54htY/K+wOkDUx05ECs54Bsk7clcJTn2D0TpRZtdQt9ddZeGUOjzmLat1TyJDcNE+ygrH+6JPtgh0gBzdjBU5dgYU7QHW61KFqllpVzZqfr4D1rzR0B6iUMd+FArM6AHWF+q3Yv4/Ozw7KgNewqrli64/aLfq7A6CVbacKLPweABXZ1QFj2YFufxOZIxCn5ZrGcz9LfKqpRiCfvJcCv1HXA2KyzQvmrKx/VgnGHQAdbDtVYNYzwLhmWke1dlKfMpOjVRUue67BkD85gFklM5nHB/5YVnPOamcm53ncsyB/cgCTYWYyjw/8uHUHGNfHsxeuwIodQJXTK1h5cPv1ir/tVAWsf6WYO0CljPkmBc7daVYHoK5Qv8H5zlKZ9l0gPYpnBl0FvKz05E/kjFlLs4IhN3B1LDw+y9qcp2ZIbsr0oP+zZ8/uify1b348mF/85HfD6oB3B1BNjLtTYOH3AFSdSkV2o6tZ5as461XTlshVVpq54paY6j8V5/jjGfag/x988LX7Mn70hrj+4MZu/f+WdwfY0sQfelNg1jNAFou7UnjqE4zeiTKrlrql/joLr8zhMWdRrXsKGZKb5klWMP3o/5Nf/IuQ4qeun4f9z8c3NzjjeEYHiBU8rMCZK7BwB6jUoA5Vs9Sqatb8fAWsf6WhO0CljPkuFJjVAagr1G/F/n10fnZQBryGVc0VW3/UbtHfHQCtbDtV4OYxee9Tr64wdnU0LDvQ7W8icwSiVSsyO98Sn2qq0chn2EsZpuCHjwcGZJsXzVlZ/6wSjDsAOth2qsCsZ4BxzbSOau2kPmUmR6sqXPZcgyF/cgCzSmYyjw/8sazmnNXOTM7zuGdB/uQAJsPMZB4f+HHrDjCuj2cvXIEVO4Aqp1ew8uD26xV/26kKWP9KMXeAShnzOxW4NHJWB6CuUL/B+c5SmfZdID2KZwZdBbzsV0H+RM6YtTQrGHIDV8fC47OszXlqhuSmjPXP+rsDZE3MdKTAwu8BqDqVfuxGV7PKV3HWq6YtkausNHPFLTHVfyrO8ccztP5ZYXeArImZjhSY9QyQdeKuFJ76BKN3osyqpW6pv87CK3N4zFlU655ChuSmeZIVjPVHn2wndIB8sBkrcO4KLNwBKjmoQ9UstaqaNT9fAetfaegOUCljvgsFZnUA6gr1W7F/H52fHZQBr2FVc8XWH7Vb9HcHQCvbThVY+D0AKrKrA8ayA93+JjJHIE7LNY3nfpb4VFOJsCGfvJcCr56HxGSbV8xZWf+sEow7ADrYdqrArGeAcc20jmrtpD5lJkerKlz2XIMhf3IAs0pmMo8P/LGs5pzVzkzO87hnQf7kACbDzGQeH/hx6w4wro9nL1yBFTuAKqdXsPLg9usVf9upClj/SjF3gEoZ87cKXLqZ1QGoK9RvcL6zVKZ9F0iP4plBVwGPfzVP/uXLOx3eevHVnTz5EzljDtGsYMgNXB0Lj8+yNuepGZKbMofUf+qZ5nNBN3ii6bnAcI5g9c8Yn2zdAbImZjpSYOs9AG8QX3rxlRDg0Qs/HZZ/V+Phw4eB8+A6U16vSOXB7EaDx20VJ6+Y4+i/EcK/AnL90b8Z3OgMuQ+0RK6yGoLfAy0x7x0y6WOOP57hYfSfdAqDcz6XYWoA42c3uA2gJaY7wCCXQY8K3D0DfP7pt4ezz7Wfmlr1geHAAHrHxvUHk+/ewnkYXNnqP0wFgA8waZAzh7zw138LCPvqz/1o2NwBghwZnEXlsF+GVbQ5vOZJVjCH13/OWeRjOYvMw3Cm4Kl2pANMDWV/K3B+Ctx1AK2X3Dfr3T+zLR2gEmC9KzivSLbwnMuTf3ubj4P9n8/95oB7AIfU/7z0dAc4r+/L2S6swJXWS2K//63/uAU3u0D/941fD/xfT38tLPjHX/qrwAzqCndgitlN4s6eu0/dgX7zrffi8DeevByW8fTdx4CwetT1O68Ho5EVx9TOoXf8Ox1GSOJnB84Cnqw4RxhyBqtFGWWWxWTLKorJjazI/JD6zzlHziJH4Czgl9XfHQBVbTtVYOs9wKd+94f75ZvNzduA9zd/GMJ844Ovhr3+wk09DjAMas/wcQDUnuFjAHagtQ4FGQM+QAw9SnFMDaNaEQd61He+ftOjXvn4Te+CV/vV797Mbv7oF4L85Bf+KawO4r/w6DUlA5OP1qEgY8AHOMog27x0zgqd19Y/ZzKV4YxyH+CM1tDfHWDqd2T/i1LgbheIc+LeEayWuy5lWrBex3rt5qsZJsekHmS+Yr55W9d1Vmv8+KweBSZ/cgDDZybz+MAfy2rOh9F/2TMlf5QEEz8zmccHfty6A4zr49kLV2CrA/z/9d/H6f7Y418Jqzg+zhx6BedQ7ddrPjYzWumrDqB8jnB5zCH1Py/13AHO6/taPdveFnhApX/+/CsjZ3519emY/eUv/m/Yf/jcT4S1f4gwDOtzvj8P7gDDj7FBjwpc/fG//myc92ee/UnYanzp4Y3PZnPTAeyfVbI+5/vz4w6Qf57NdKTAg2rvP2vAbr3uKGcfZeyvamRsfbImyhxGH+kAurixFehDgQfjO8R9iOCz7FcBd4B+v3ufeSjwgN+gDBTD+9nnu5/t9zPxA3xvtPw8uwPcE80f+1Lg6jtf/+/hjLvdzw4F/H4jRLg3evh5cAe496X7Y18K7HgPcJj9V79PqH7QrH+lDPyy+rgDoKptpwr4PUCnX7xPGwXcAdChW9v7if8AxA4qyA/dE5MAAAAASUVORK5CYII=" parent="1" vertex="1">
          <mxGeometry x="1080" y="540" width="256" height="256" as="geometry" />
        </mxCell>
        <mxCell id="p1c2saggwYmDi9HayLSL-90" value="Pyxel App" style="rounded=1;whiteSpace=wrap;html=1;absoluteArcSize=1;arcSize=14;strokeWidth=1;fontSize=14;fillColor=#454747;strokeColor=none;fontColor=#FFFFFF;" parent="1" vertex="1">
          <mxGeometry x="1080" y="480" width="130.5" height="30" as="geometry" />
        </mxCell>
        <mxCell id="p1c2saggwYmDi9HayLSL-93" value="pyxel.bltm( x, y, 0, u, v, w, h, col )" style="rounded=1;whiteSpace=wrap;html=1;absoluteArcSize=1;arcSize=14;strokeWidth=1;fontSize=13;fillColor=#E6E6E6;strokeColor=none;fontColor=#000000;" parent="1" vertex="1">
          <mxGeometry x="960.5" y="820" width="250" height="30" as="geometry" />
        </mxCell>
        <mxCell id="p1c2saggwYmDi9HayLSL-94" value="" style="whiteSpace=wrap;html=1;fillColor=none;strokeColor=#E6E6E6;strokeWidth=3;" parent="1" vertex="1">
          <mxGeometry x="650" y="749" width="130" height="127" as="geometry" />
        </mxCell>
        <mxCell id="p1c2saggwYmDi9HayLSL-96" value="" style="endArrow=classic;html=1;rounded=0;strokeColor=#E6E6E6;strokeWidth=3;exitX=1;exitY=0.5;exitDx=0;exitDy=0;entryX=-0.004;entryY=0.02;entryDx=0;entryDy=0;entryPerimeter=0;" parent="1" source="p1c2saggwYmDi9HayLSL-94" edge="1" target="p1c2saggwYmDi9HayLSL-89">
          <mxGeometry width="50" height="50" relative="1" as="geometry">
            <mxPoint x="790" y="694" as="sourcePoint" />
            <mxPoint x="1070" y="560" as="targetPoint" />
          </mxGeometry>
        </mxCell>
        <mxCell id="p1c2saggwYmDi9HayLSL-97" value="" style="endArrow=none;dashed=1;html=1;rounded=0;exitX=0.25;exitY=0;exitDx=0;exitDy=0;strokeColor=#FFFFFF;" parent="1" source="p1c2saggwYmDi9HayLSL-93" edge="1">
          <mxGeometry width="50" height="50" relative="1" as="geometry">
            <mxPoint x="930" y="310" as="sourcePoint" />
            <mxPoint x="920" y="690" as="targetPoint" />
          </mxGeometry>
        </mxCell>
        <mxCell id="p1c2saggwYmDi9HayLSL-98" value="" style="endArrow=none;dashed=1;html=1;rounded=0;entryX=0.25;entryY=0;entryDx=0;entryDy=0;strokeColor=#FFFFFF;" parent="1" target="p1c2saggwYmDi9HayLSL-93" edge="1">
          <mxGeometry width="50" height="50" relative="1" as="geometry">
            <mxPoint x="940" y="610" as="sourcePoint" />
            <mxPoint x="950" y="610" as="targetPoint" />
          </mxGeometry>
        </mxCell>
        <mxCell id="p1c2saggwYmDi9HayLSL-99" value="" style="shape=image;verticalLabelPosition=bottom;verticalAlign=top;imageAspect=0;aspect=fixed;image=data:image/png,iVBORw0KGgoAAAANSUhEUgAAAQAAAAEACAIAAADTED8xAAAVF0lEQVR4Ae2dT6gf1RXHJ+W5KpUaaYwpSLpplcSiuHqhMVQau9CFtrRJUXGhtbaJ5dFCcWEjiV1YpJISE/+gC1HBKK0udKERi30lb5VmkTxNN60I9R/4UipdGUh/yQ/ufOaXOe/d++bOb+7M/covP8/vzLnfe873vsM9d+bOzJo9G39VtPnf3N8fWBH+yIlLnM32q0872RJov3jnry2zXuj3vf9oq35+tvCqwz9z5mUnhwozMz9yTW4++LGT//vegpPbEN7ef8bBfvrOh04OFZ5b+4xr8voze538JSdJEAMZMqAEyHDQFXLJgBKg5EJShgzMtB3zvlNHVu7iotJk4VQpmxLsLzaNdOAcA78//u1z/zv/746lP57//2q+nltb4hRFuQa4+KrZ1cAt24brCtb967ZtWLbdcgfnn3yz9nDGM0AtH1JmxoASILMBV7hVBpQAVT70KzMGWl8DHD7+uaN040J5Tvf92bLrJvrtDl1CHQPzR8vad77YUWfiqStxWKNba4CtW25cEZe+rWg8YXDRpgMTmgt/frF434XKCY1mgAlC9DMvBpQAeY33OFp9OwaUAI4KCTkyUBbiLUX/00ferUf+W726CNUbMFKPGWC9PtbE/bbwX295j5AVhU/dz7aaAciG5OwYUAJkN+QKmAwoAciG5MEzMBlg62uAyQ71e7oMcD89e7b297+2a70za3L/gAMZCTfMlX9mlj8js9rPp+/UqivK0LqfjTUDkA3J2TGgBMhuyBUwGVACkA3J2TFQFmfZhZ5HwNxPz4it/f3x7h8o78EtivIe3D+ceMi5ccfSXU4OFZrU/ewroxmAYUsWA2MGlABjHvSdKQNKgEwHXmGPGdAaYMzDYL/vOWXdA1C/v38eTMS6fwCQBe8B8MHnfQXWfb3ED5U1A4QyJvtBMaAEGNRwGsFIbTKgBDCp0YEcGNAaYOCjbO3Xt8IOtbdwLH0oftv3FWgGsEZK+iwYUAJkMcwK0mJACWAxI/0gGFgpCK0BVmKo5eOxnt9vu1k+i8m2WfkI7x+4fvcrrgH391v7jpxxh4LeD9Ah+eo6XQZUAqU7NvJsCgwoAaZAsrpIlwGvNYD1HqtY7xfrO366w9u+Z6z7mzy/v21PrX1EA54B2qZU+ENgQAkwhFFUDKtmQAmwaurUcAgMmGsA1uVzRw+7WPm8/3277nb60PUA8c8+/oTDWdx70smb8Q7dJvhLS0sOk/eSXra1fEdvKL4DlFDLgM/z+2sbrkLJMWW/1FuwmgEsZqTPggElwBCHWTF5M6AE8KZKhkNkoLIGYF1u1f0k4fKDT7ufPusB4lt1vwMcCSfX7x59jz8+6wHiW3X/GG38/cn8bWNh9N3VeiDWc3hGIbT6qT5HqNwLFNqpT10eikn7UHzNAGRPcnYMKAGyG3IFTAaUAGRDcu8ZCA2gsgZgY57vpz6WzPP9sTCJE1oLsq3kuAykPBaaAeKOtdB6xoASoGcDJnfjMqAEiMun0HrGQGUNwP0wPK/P8/2M76PAvUDE53l9nu8n/uaPH3M/2dYpJwTa8Lw+z/ezyWVbX3A/2dYppyzwOZ5PXVnuv/Jxo0lbC5+YW7dYVvX6lOt+ejygGYBhSRYDfgwoAfx4ktVAGVACDHRgFZYfA2t8al/usSGsT1vaW3Lf8a24fPRHvvNNH7OkbPh8z5vuetD5xmf/O2WCAv3XDJDgAMml6TGgBJge1+31JORVM6AEWDV1ajgEBrzWAEMINNUY/nTpZ6m6loVfmgGyGGYFaTGgBLCYkT4LBpQAWQzzcINsGlllLxDBrHPztKEcek0gFn4oDn2mHOo/2zaRF48926T5im03XXens3nx1g+czH0+3HfE53taz9i55cmtDufVn807mQLbUk/Z2i9k4ROTbfl8Uisu6nUdgKMgOWsGVAJlPfwKXgmgv4GsGZixaujZ28vndW7dcqMj6bpN33Dy9qtPO3nt2rVOtupp9hULn8//cQ6MhJt++dLoe/yJ5f8YLZ9vq84mA6y/uX5gW9pbMnFoQ/264j4eiiL3eAaIEr9AMmdACZD5H0Du4SsBcv8LyDz+NVYN/fCL/3HU+NT9xOF6wIGMhN8c+ufo+8JPE3z2eyHyWHPkxCVjYfRtrVuIQ/+t9cwIKsqH66IogBMgvA5w8VWzE0cv/MlrAjzK8+jUU7ba0saSic/z9PTZwvdpS0z6oBmAbEjOjgElQB+HXD5HY0AJEI1KAfWRAXMv0P07v+riOXLCiY0EYhKoCT7rddbxxM9Z5l6jTQYRrLNZT9PcqqGttpY9MdmWesrEuafYwUNOpo1TjgRLT040A4yI0idfBpQA+Y69Ih8xoAQYkaBPfxiI7emMTw19bPFf6LfcC8Rnbv770A+dDfXcw+0MJoQm+Hy+J/f/sAvuBSqKMP8P3kGk/snWdQCeU1+37UxtYNyXz3sJuOenKMr7ATjWXyyWeuJU7x8obay23At0z6nyOkYVp9b9otq2XD9wLaQZoJ47aTNhQAmQyUArzHoGlAD1vEibCQOV6wCsoat1c8kG6/VjxUPuwPypN5288MC9Tl5aOuBkCuyL+qIo7z3wwa+2LX/F8r/tvUClx91JrJWr9X29T5Y97wGgDVGoZ18+bX1wiE97S+7RDGCFIL0YWD0DSoDVc6eWA2BACTCAQVQIq2dghjXuvufL2r0oynuCfeAX0JaYvM5AHN4TTL31jHkLn/vpX9u13kHdfLBckzjlMoKFv0yT3h3i3hjuq+E1AZ6z97H3qbmJU1xZ0ubTlnuTiFPxv6h/n5rVtvSgKDQDkA3J2TGgBOjDkMvH1hhQArRGrYD7wEDl/QCspz9beNX5f+nsLU629Kz7nfGEME18dm35TBsf/2kfSyYnsTAtHO4Log335bPOpg1l2lNPOQUcywfdD8CRkpw1AyqBsh5+Ba8E0N9A0gy07VxlDcDOQmtTnxqamHNH68/d0gfK+7eU+7lD+yKOJYdinn087DrJmp+X11jYFzmxfGuit+6T5t6bUPwb5sotZG/vr7+XgPv7LXzLh7bx6Y9mALIhOTsGlADZDbkCJgNKALIhOTsGymJuFDrr0dAafZ9Ro4dizn7x45En4w+f47lnaWmsHH1zf5FVT7dRo/tgLl1T7kda863rR96OP0s7yrjo//jodL6tmtun9+q+nStcE+qt/f3OeBmBOEURH9/qOuEZwHJZejEQjwElQDwuhdRDBpQAPRw0uRyPgco7wnzq/tAa3XL18PHPaw/t+Un53jEaWHUz1xjTrNEX956ke07e8G5Z6zvlSLD8Hx1q9WPV/dWaO44LbWDSsyb4XJ8QUzMA2ZCcHQNKgBSHXD5NjQElwNSoVkcpMlC5DkAHY9XoPpi0sd7nxT0tPvV0GzW6hUn/z/7jr+5n5TqAcR3DGXco8N5Zyw3eN2zZ+OBYbdvA98HUDGCNiPRZMKAEyGKYFaTFgBLAYkb6ThiYdqeVNYBV99OpWDU6MSnPnXym/Fl/qr08PiGlUKN/dOtb8Ioy1D0ReU/tzvfK/Tl0v0ndb+MsuEOx8B3ghKAZYIIQ/cyLASVAXuOtaCcYUAJMEKKfeTFQWQP4hB5ao5/43XdL2NMvOPnGS25zso/wJtqumy/b8h1hPjihNTr9P1ssui7WPMY3TTm1KZzdXbb9ZNvq/Tc76OgA1wltuOCD7/OcIsu3hGYAy0XpxUB7DCgB2uNWyD1gQAnQg0GSi+0xUH0/wK67XU+XH3zayRQqtfi2De4Qa3Hep1sUx50NBeJc/cBfeMjJrL+dciRwXzj72vz+o6Oj48/J9bvHwsT3WdTi3CMe6v/XXi7vW2BbdufjP+1Tlvk8zRT8tJ5zau3/4d8Mx10zQAqjKR86Y0AJ0Bn16FhiZwwoATqjXh2nwIB5HYA1uuUo6yrLhvW9VROzLWt6a/1AzD0br2VzJ7PWd8oJoYn/VttQ/ydcavWn5TPrZp+9N1b93arzI3BrHcJrBdaepVHz8vNKKWoGKLmQlCEDSoAMB10hlwwoAUouJHXAQNdddvZ+AOsZPtae/s0fP+a4qtbZTt1Lgc81aiOAWPU6629iUt+2/+yLPnAvENczlj+6DmAxI312DKgEym7IFTAZUAKQDcnZMVC5DsB6NLhGxz4c1ug+mKfx7PwNkC85/JIbkJN7y7093PPDvpzxhEAfeMinLe0tuW18q18fPd/hZV0HIA6vA/D8Om1Sluk/1wOs++l/hzMA3ZAsBrphQAnQDe/qNREGlACJDITc6IaByvsBrLq/SY1uhUVM2vB59qd3HCgPGc/jLw2qEutyKy7r3b1VpPpfxLfuPQhdq9T3FE/LOpjrAdbN8XpLF4nvMNYMkO44ybMpMKAEmALJF3QhRTIMKAGSGQo50gUDlesAdKCNGp37fHi+n3U/a9Ovhz16p2Bdzrp/6Zr1DM3JtPFZDxCfdf+mBzc7TApNrl0Qp4nMepc8N8EcUlvNAEMaTcUSzIASIJgyNRgSA0qAIY1mD2JJzcXKGqDtGp3Bc58Pz/ez7qfNh2wsWQxEYkAzQCQiBdNPBpQA/Rw3eR2JASVAJCIF008GZuaOHi49/8G8k1l/h9bofK7ojmu/4jA3b9nhZJ4jL4x9Pqz7eU8w8YtH3nWY3N/P8/o83++MRwJt2HZ0qPZDG+7zqcSClvSZbWEisQMGeD1kijNAB5GqSzGwAgNKgBUI0uFhM6AEGPb4KroVGJipvBv4z1ud+d1YD/jU6Nt/e41ru3HhjJMPF587mesNrgdY07PtwvP3uraWjTOYEFhzs9anGW2o95HZlusBtqUN9dOUWe9Os9+u+uJ9wPSBe8x4X4RmALIkOTsGlADTGHL1kSwDSoBkh0aOTYOBNeyEdTb1PrJVu7NtG/gp1NmMMVTmPQahbX3sP5m/zZmxDnbKCYH3B/O5QNZzOamfgIryk88AZV/UN+lIM0AT9tS29wwoAXo/hAqgCQNKgCbsqe2KDKRusCZWLcVAWatRn4LMeOmnj57+85n01FNmDU19aL+0J46PzLh87C0b+hAL0+rL0ls+cCys6wDE1HUAsiE5awZUAmU9/ApeCaC/gawZmGH9ZNWsPgwRpzj2rGvSRr3IWtB15Ck0acsumnBFHEuO5Wfo+wF2vnKF5ZLTx/LNAUYUeB2D6wHW/eyuxRmA3UgWA2kyoARIc1zk1ZQYUAJMiWh1kyYDlecCVer4lv316avtOpshWnUt9U3WM8Tx6Zc2sWTWwdwXxLq5KBZqu2sSey1gIkrNAIkMhNzohgElQBu8C7M3DCgBejNUcrQNBmZ4320bHVi1L68VtNFvG5hmLG101hGmz9qMrnGdFtqWOJZMfMumiV4zQBP21Lb3DCgBej+ECqAJA0qAJuyp7QUM9E0x43N+l7Wvjz1JYFvqU5BDY7FqXK6jZm9/oja00Fo2Zd64x2bne+XeIeqr1xZqKTGVxCH+i7d+4No0wXcgI0EzwIgEffJlQAmQ79gr8hEDSoARCfrky0BlLxBpqNS72N9PvU9d61Nns971saefbEu9j8y2Pv0yXvJg9UV7yyYFPWvuWP60gUnfYuFHnAHonmQx0A8GlAD9GCd52RIDSoCWiBVsPxio3BMc6rJPHUzMJjWx2RfWJ+wrVLbWA5beisXS0x8Lk3raN5Ev2nTANee7AnhvgDPwFHgvgdUkZXxyohnAGkHps2BACRBjmIXRWwaUAL0dOjkeg4HK+wFiAAojLQaWlpZqHeJ6oNbAU3nDXHkpic8gYnPW3NRTtvzxwSeOJVs+aAawGJM+CwaUAFkMs4K0GFACWMxI78VA343M9wPwvLvPuW0SwfPZPntsLHv6QHz6Y9n84vtfZpNa+dAb/6vVE58GVl+0t2Ihjo8N7dkv+6INMalvW/YZXx8f6L+F6WPj0xdtNAOQDcnZMaAEyG7IFTAZUAKQDcnZMTDDuqoSPfbYxLrP1aeWpQ9WvUsbS7bqe8veRx/qT2i8tKc/vOeY+tRky3/Lz1A+LZwm/TaYASx3pBcD/WFACdCfsZKnLTCgBGiBVEH2h4FyI8cyPvvUoNa5W8L61Hxck1iYFRt0EFoLomlB3yr4191Js1qZ9jQgJvWW7MOz1TY1vXXPbqzn+VjxhvarGcBiUvosGFACrGaY1WYwDCgBBjOUCmQ1DHitAXyArTrY0jfBZFvib+KBQJk4bGrpaWPJPm19bCx86ZszoBmgOYdC6DEDSoAeD55cb86AEqA5h1khDC3YaGsAH2Ks8/pWW9bHbGud77fuAXh4/1uui/vnvudkCofemOVPJ/NcPvvlOXv65houIzCuZcx6fajt8/0WOaH9agawmJQ+CwaUAFkMs4K0GFACWMxInwUDU10DWIyytmbNbdnThm15D4C1HiAm7aknvo+eNvTHwqH9kOSu4m3Sb8AMMKShUixiYMyAEmDMg74zZUAJkOnAK+wxA1NdA/D8N8+dN6nh2Jb1t1XfW3rijKlZ3beFw9hXh5xmq67iitWvZoA0/67k1ZQYUAL4EC2bwTKgBBjs0CowHwYG9X4Arit8gqdNrJqSmDnITThPgR/NACmMgnzojAElQGfUq+MUGFACpDAKCfswdNc6WwOwdmT9TT3P63MgeK6dbWkTS27iD9u27WeseENxGGNo2xTsNQOkMAryoTMGlACdUa+OU2BACZDCKMiHzhjobA1gRRxaU7ZdW6fmj8XbkPQW522M9TIzwJAoVSxioJ4BJUA9L9JmwoASIJOBVpj1DEz1foB6F6pa1nnTrAWrXoT9os9hLftvbY1RaGShHMbqVzNA6EjJflAMKAHqhlO6bBhQAmQz1Aq0joHk1gB0MrQuZNtYcgo+xIqlbRxr75bVL/d0WTY++ib9agbwYVg2g2VACTDYoVVgPgwoAXxYysgmt1A7WwPwPC7rbEs/e/sTbmxYO7KtM4go0B/Wmtb7AegP21If0b1koZ668nCtb6HP768FWUYZ2q9mgGXI1KHhM6AEGP4YK8JlGFACLEOODg2fgc7WAKE1Mev+roYl1IfQGLuKK+d+MQPkTINiz5UBJUCuI6+4zzOgBDhPg75yZaCzNYBFuFU3U8/z6xbONPX0bZr9ptxX2+f7rdhD+9UMYDEpfRYMKAHODbP+ZcuAEiDboVfg5xhIbg1wzqmV/k2z5p5mXyvFnfrx0OskseJp0q9mgFijIJxeMqAE6OWwyelYDCgBYjHZU5zc3f4/PW+jm9K5+awAAAAASUVORK5CYII=" parent="1" vertex="1">
          <mxGeometry x="79" y="1040" width="256" height="256" as="geometry" />
        </mxCell>
        <mxCell id="p1c2saggwYmDi9HayLSL-100" value="image bank 0" style="rounded=1;whiteSpace=wrap;html=1;absoluteArcSize=1;arcSize=14;strokeWidth=1;fontSize=14;fillColor=#454747;strokeColor=none;fontColor=#FFFFFF;" parent="1" vertex="1">
          <mxGeometry x="40" y="960" width="130.5" height="30" as="geometry" />
        </mxCell>
        <mxCell id="p1c2saggwYmDi9HayLSL-102" value="" style="whiteSpace=wrap;html=1;aspect=fixed;fillColor=none;strokeColor=#FFFFFF;strokeWidth=3;" parent="1" vertex="1">
          <mxGeometry x="535" y="1068" width="36" height="36" as="geometry" />
        </mxCell>
        <mxCell id="p1c2saggwYmDi9HayLSL-103" value="0" style="text;html=1;strokeColor=none;fillColor=none;align=center;verticalAlign=middle;whiteSpace=wrap;rounded=0;fontColor=#FFFFFF;fontSize=14;" parent="1" vertex="1">
          <mxGeometry x="80" y="1010" width="30" height="30" as="geometry" />
        </mxCell>
        <mxCell id="p1c2saggwYmDi9HayLSL-195" value="" style="shape=table;startSize=0;container=1;collapsible=0;childLayout=tableLayout;fillColor=none;strokeColor=#FFFFFF;" parent="1" vertex="1">
          <mxGeometry x="79" y="1040" width="256" height="256" as="geometry" />
        </mxCell>
        <mxCell id="p1c2saggwYmDi9HayLSL-196" value="" style="shape=tableRow;horizontal=0;startSize=0;swimlaneHead=0;swimlaneBody=0;strokeColor=inherit;top=0;left=0;bottom=0;right=0;collapsible=0;dropTarget=0;fillColor=none;points=[[0,0.5],[1,0.5]];portConstraint=eastwest;" parent="p1c2saggwYmDi9HayLSL-195" vertex="1">
          <mxGeometry width="256" height="32" as="geometry" />
        </mxCell>
        <mxCell id="p1c2saggwYmDi9HayLSL-197" value="" style="shape=partialRectangle;html=1;whiteSpace=wrap;connectable=0;strokeColor=inherit;overflow=hidden;fillColor=none;top=0;left=0;bottom=0;right=0;pointerEvents=1;" parent="p1c2saggwYmDi9HayLSL-196" vertex="1">
          <mxGeometry width="32" height="32" as="geometry">
            <mxRectangle width="32" height="32" as="alternateBounds" />
          </mxGeometry>
        </mxCell>
        <mxCell id="p1c2saggwYmDi9HayLSL-198" value="" style="shape=partialRectangle;html=1;whiteSpace=wrap;connectable=0;strokeColor=inherit;overflow=hidden;fillColor=none;top=0;left=0;bottom=0;right=0;pointerEvents=1;" parent="p1c2saggwYmDi9HayLSL-196" vertex="1">
          <mxGeometry x="32" width="32" height="32" as="geometry">
            <mxRectangle width="32" height="32" as="alternateBounds" />
          </mxGeometry>
        </mxCell>
        <mxCell id="p1c2saggwYmDi9HayLSL-199" value="" style="shape=partialRectangle;html=1;whiteSpace=wrap;connectable=0;strokeColor=inherit;overflow=hidden;fillColor=none;top=0;left=0;bottom=0;right=0;pointerEvents=1;" parent="p1c2saggwYmDi9HayLSL-196" vertex="1">
          <mxGeometry x="64" width="32" height="32" as="geometry">
            <mxRectangle width="32" height="32" as="alternateBounds" />
          </mxGeometry>
        </mxCell>
        <mxCell id="p1c2saggwYmDi9HayLSL-200" value="" style="shape=partialRectangle;html=1;whiteSpace=wrap;connectable=0;strokeColor=inherit;overflow=hidden;fillColor=none;top=0;left=0;bottom=0;right=0;pointerEvents=1;" parent="p1c2saggwYmDi9HayLSL-196" vertex="1">
          <mxGeometry x="96" width="33" height="32" as="geometry">
            <mxRectangle width="33" height="32" as="alternateBounds" />
          </mxGeometry>
        </mxCell>
        <mxCell id="p1c2saggwYmDi9HayLSL-201" value="" style="shape=partialRectangle;html=1;whiteSpace=wrap;connectable=0;strokeColor=inherit;overflow=hidden;fillColor=none;top=0;left=0;bottom=0;right=0;pointerEvents=1;" parent="p1c2saggwYmDi9HayLSL-196" vertex="1">
          <mxGeometry x="129" width="31" height="32" as="geometry">
            <mxRectangle width="31" height="32" as="alternateBounds" />
          </mxGeometry>
        </mxCell>
        <mxCell id="p1c2saggwYmDi9HayLSL-202" value="" style="shape=partialRectangle;html=1;whiteSpace=wrap;connectable=0;strokeColor=inherit;overflow=hidden;fillColor=none;top=0;left=0;bottom=0;right=0;pointerEvents=1;" parent="p1c2saggwYmDi9HayLSL-196" vertex="1">
          <mxGeometry x="160" width="32" height="32" as="geometry">
            <mxRectangle width="32" height="32" as="alternateBounds" />
          </mxGeometry>
        </mxCell>
        <mxCell id="p1c2saggwYmDi9HayLSL-203" value="" style="shape=partialRectangle;html=1;whiteSpace=wrap;connectable=0;strokeColor=inherit;overflow=hidden;fillColor=none;top=0;left=0;bottom=0;right=0;pointerEvents=1;" parent="p1c2saggwYmDi9HayLSL-196" vertex="1">
          <mxGeometry x="192" width="32" height="32" as="geometry">
            <mxRectangle width="32" height="32" as="alternateBounds" />
          </mxGeometry>
        </mxCell>
        <mxCell id="p1c2saggwYmDi9HayLSL-204" value="" style="shape=partialRectangle;html=1;whiteSpace=wrap;connectable=0;strokeColor=inherit;overflow=hidden;fillColor=none;top=0;left=0;bottom=0;right=0;pointerEvents=1;" parent="p1c2saggwYmDi9HayLSL-196" vertex="1">
          <mxGeometry x="224" width="32" height="32" as="geometry">
            <mxRectangle width="32" height="32" as="alternateBounds" />
          </mxGeometry>
        </mxCell>
        <mxCell id="p1c2saggwYmDi9HayLSL-205" value="" style="shape=tableRow;horizontal=0;startSize=0;swimlaneHead=0;swimlaneBody=0;strokeColor=inherit;top=0;left=0;bottom=0;right=0;collapsible=0;dropTarget=0;fillColor=none;points=[[0,0.5],[1,0.5]];portConstraint=eastwest;" parent="p1c2saggwYmDi9HayLSL-195" vertex="1">
          <mxGeometry y="32" width="256" height="32" as="geometry" />
        </mxCell>
        <mxCell id="p1c2saggwYmDi9HayLSL-206" value="" style="shape=partialRectangle;html=1;whiteSpace=wrap;connectable=0;strokeColor=inherit;overflow=hidden;fillColor=none;top=0;left=0;bottom=0;right=0;pointerEvents=1;" parent="p1c2saggwYmDi9HayLSL-205" vertex="1">
          <mxGeometry width="32" height="32" as="geometry">
            <mxRectangle width="32" height="32" as="alternateBounds" />
          </mxGeometry>
        </mxCell>
        <mxCell id="p1c2saggwYmDi9HayLSL-207" value="" style="shape=partialRectangle;html=1;whiteSpace=wrap;connectable=0;strokeColor=inherit;overflow=hidden;fillColor=none;top=0;left=0;bottom=0;right=0;pointerEvents=1;" parent="p1c2saggwYmDi9HayLSL-205" vertex="1">
          <mxGeometry x="32" width="32" height="32" as="geometry">
            <mxRectangle width="32" height="32" as="alternateBounds" />
          </mxGeometry>
        </mxCell>
        <mxCell id="p1c2saggwYmDi9HayLSL-208" value="" style="shape=partialRectangle;html=1;whiteSpace=wrap;connectable=0;strokeColor=inherit;overflow=hidden;fillColor=none;top=0;left=0;bottom=0;right=0;pointerEvents=1;" parent="p1c2saggwYmDi9HayLSL-205" vertex="1">
          <mxGeometry x="64" width="32" height="32" as="geometry">
            <mxRectangle width="32" height="32" as="alternateBounds" />
          </mxGeometry>
        </mxCell>
        <mxCell id="p1c2saggwYmDi9HayLSL-209" value="" style="shape=partialRectangle;html=1;whiteSpace=wrap;connectable=0;strokeColor=inherit;overflow=hidden;fillColor=none;top=0;left=0;bottom=0;right=0;pointerEvents=1;" parent="p1c2saggwYmDi9HayLSL-205" vertex="1">
          <mxGeometry x="96" width="33" height="32" as="geometry">
            <mxRectangle width="33" height="32" as="alternateBounds" />
          </mxGeometry>
        </mxCell>
        <mxCell id="p1c2saggwYmDi9HayLSL-210" value="" style="shape=partialRectangle;html=1;whiteSpace=wrap;connectable=0;strokeColor=inherit;overflow=hidden;fillColor=none;top=0;left=0;bottom=0;right=0;pointerEvents=1;" parent="p1c2saggwYmDi9HayLSL-205" vertex="1">
          <mxGeometry x="129" width="31" height="32" as="geometry">
            <mxRectangle width="31" height="32" as="alternateBounds" />
          </mxGeometry>
        </mxCell>
        <mxCell id="p1c2saggwYmDi9HayLSL-211" value="" style="shape=partialRectangle;html=1;whiteSpace=wrap;connectable=0;strokeColor=inherit;overflow=hidden;fillColor=none;top=0;left=0;bottom=0;right=0;pointerEvents=1;" parent="p1c2saggwYmDi9HayLSL-205" vertex="1">
          <mxGeometry x="160" width="32" height="32" as="geometry">
            <mxRectangle width="32" height="32" as="alternateBounds" />
          </mxGeometry>
        </mxCell>
        <mxCell id="p1c2saggwYmDi9HayLSL-212" value="" style="shape=partialRectangle;html=1;whiteSpace=wrap;connectable=0;strokeColor=inherit;overflow=hidden;fillColor=none;top=0;left=0;bottom=0;right=0;pointerEvents=1;" parent="p1c2saggwYmDi9HayLSL-205" vertex="1">
          <mxGeometry x="192" width="32" height="32" as="geometry">
            <mxRectangle width="32" height="32" as="alternateBounds" />
          </mxGeometry>
        </mxCell>
        <mxCell id="p1c2saggwYmDi9HayLSL-213" value="" style="shape=partialRectangle;html=1;whiteSpace=wrap;connectable=0;strokeColor=inherit;overflow=hidden;fillColor=none;top=0;left=0;bottom=0;right=0;pointerEvents=1;" parent="p1c2saggwYmDi9HayLSL-205" vertex="1">
          <mxGeometry x="224" width="32" height="32" as="geometry">
            <mxRectangle width="32" height="32" as="alternateBounds" />
          </mxGeometry>
        </mxCell>
        <mxCell id="p1c2saggwYmDi9HayLSL-214" value="" style="shape=tableRow;horizontal=0;startSize=0;swimlaneHead=0;swimlaneBody=0;strokeColor=inherit;top=0;left=0;bottom=0;right=0;collapsible=0;dropTarget=0;fillColor=none;points=[[0,0.5],[1,0.5]];portConstraint=eastwest;" parent="p1c2saggwYmDi9HayLSL-195" vertex="1">
          <mxGeometry y="64" width="256" height="32" as="geometry" />
        </mxCell>
        <mxCell id="p1c2saggwYmDi9HayLSL-215" value="" style="shape=partialRectangle;html=1;whiteSpace=wrap;connectable=0;strokeColor=inherit;overflow=hidden;fillColor=none;top=0;left=0;bottom=0;right=0;pointerEvents=1;" parent="p1c2saggwYmDi9HayLSL-214" vertex="1">
          <mxGeometry width="32" height="32" as="geometry">
            <mxRectangle width="32" height="32" as="alternateBounds" />
          </mxGeometry>
        </mxCell>
        <mxCell id="p1c2saggwYmDi9HayLSL-216" value="" style="shape=partialRectangle;html=1;whiteSpace=wrap;connectable=0;strokeColor=inherit;overflow=hidden;fillColor=none;top=0;left=0;bottom=0;right=0;pointerEvents=1;" parent="p1c2saggwYmDi9HayLSL-214" vertex="1">
          <mxGeometry x="32" width="32" height="32" as="geometry">
            <mxRectangle width="32" height="32" as="alternateBounds" />
          </mxGeometry>
        </mxCell>
        <mxCell id="p1c2saggwYmDi9HayLSL-217" value="" style="shape=partialRectangle;html=1;whiteSpace=wrap;connectable=0;strokeColor=inherit;overflow=hidden;fillColor=none;top=0;left=0;bottom=0;right=0;pointerEvents=1;" parent="p1c2saggwYmDi9HayLSL-214" vertex="1">
          <mxGeometry x="64" width="32" height="32" as="geometry">
            <mxRectangle width="32" height="32" as="alternateBounds" />
          </mxGeometry>
        </mxCell>
        <mxCell id="p1c2saggwYmDi9HayLSL-218" value="" style="shape=partialRectangle;html=1;whiteSpace=wrap;connectable=0;strokeColor=inherit;overflow=hidden;fillColor=none;top=0;left=0;bottom=0;right=0;pointerEvents=1;" parent="p1c2saggwYmDi9HayLSL-214" vertex="1">
          <mxGeometry x="96" width="33" height="32" as="geometry">
            <mxRectangle width="33" height="32" as="alternateBounds" />
          </mxGeometry>
        </mxCell>
        <mxCell id="p1c2saggwYmDi9HayLSL-219" value="" style="shape=partialRectangle;html=1;whiteSpace=wrap;connectable=0;strokeColor=inherit;overflow=hidden;fillColor=none;top=0;left=0;bottom=0;right=0;pointerEvents=1;" parent="p1c2saggwYmDi9HayLSL-214" vertex="1">
          <mxGeometry x="129" width="31" height="32" as="geometry">
            <mxRectangle width="31" height="32" as="alternateBounds" />
          </mxGeometry>
        </mxCell>
        <mxCell id="p1c2saggwYmDi9HayLSL-220" value="" style="shape=partialRectangle;html=1;whiteSpace=wrap;connectable=0;strokeColor=inherit;overflow=hidden;fillColor=none;top=0;left=0;bottom=0;right=0;pointerEvents=1;" parent="p1c2saggwYmDi9HayLSL-214" vertex="1">
          <mxGeometry x="160" width="32" height="32" as="geometry">
            <mxRectangle width="32" height="32" as="alternateBounds" />
          </mxGeometry>
        </mxCell>
        <mxCell id="p1c2saggwYmDi9HayLSL-221" value="" style="shape=partialRectangle;html=1;whiteSpace=wrap;connectable=0;strokeColor=inherit;overflow=hidden;fillColor=none;top=0;left=0;bottom=0;right=0;pointerEvents=1;" parent="p1c2saggwYmDi9HayLSL-214" vertex="1">
          <mxGeometry x="192" width="32" height="32" as="geometry">
            <mxRectangle width="32" height="32" as="alternateBounds" />
          </mxGeometry>
        </mxCell>
        <mxCell id="p1c2saggwYmDi9HayLSL-222" value="" style="shape=partialRectangle;html=1;whiteSpace=wrap;connectable=0;strokeColor=inherit;overflow=hidden;fillColor=none;top=0;left=0;bottom=0;right=0;pointerEvents=1;" parent="p1c2saggwYmDi9HayLSL-214" vertex="1">
          <mxGeometry x="224" width="32" height="32" as="geometry">
            <mxRectangle width="32" height="32" as="alternateBounds" />
          </mxGeometry>
        </mxCell>
        <mxCell id="p1c2saggwYmDi9HayLSL-223" value="" style="shape=tableRow;horizontal=0;startSize=0;swimlaneHead=0;swimlaneBody=0;strokeColor=inherit;top=0;left=0;bottom=0;right=0;collapsible=0;dropTarget=0;fillColor=none;points=[[0,0.5],[1,0.5]];portConstraint=eastwest;" parent="p1c2saggwYmDi9HayLSL-195" vertex="1">
          <mxGeometry y="96" width="256" height="32" as="geometry" />
        </mxCell>
        <mxCell id="p1c2saggwYmDi9HayLSL-224" value="" style="shape=partialRectangle;html=1;whiteSpace=wrap;connectable=0;strokeColor=inherit;overflow=hidden;fillColor=none;top=0;left=0;bottom=0;right=0;pointerEvents=1;" parent="p1c2saggwYmDi9HayLSL-223" vertex="1">
          <mxGeometry width="32" height="32" as="geometry">
            <mxRectangle width="32" height="32" as="alternateBounds" />
          </mxGeometry>
        </mxCell>
        <mxCell id="p1c2saggwYmDi9HayLSL-225" value="" style="shape=partialRectangle;html=1;whiteSpace=wrap;connectable=0;strokeColor=inherit;overflow=hidden;fillColor=none;top=0;left=0;bottom=0;right=0;pointerEvents=1;" parent="p1c2saggwYmDi9HayLSL-223" vertex="1">
          <mxGeometry x="32" width="32" height="32" as="geometry">
            <mxRectangle width="32" height="32" as="alternateBounds" />
          </mxGeometry>
        </mxCell>
        <mxCell id="p1c2saggwYmDi9HayLSL-226" value="" style="shape=partialRectangle;html=1;whiteSpace=wrap;connectable=0;strokeColor=inherit;overflow=hidden;fillColor=none;top=0;left=0;bottom=0;right=0;pointerEvents=1;" parent="p1c2saggwYmDi9HayLSL-223" vertex="1">
          <mxGeometry x="64" width="32" height="32" as="geometry">
            <mxRectangle width="32" height="32" as="alternateBounds" />
          </mxGeometry>
        </mxCell>
        <mxCell id="p1c2saggwYmDi9HayLSL-227" value="" style="shape=partialRectangle;html=1;whiteSpace=wrap;connectable=0;strokeColor=inherit;overflow=hidden;fillColor=none;top=0;left=0;bottom=0;right=0;pointerEvents=1;" parent="p1c2saggwYmDi9HayLSL-223" vertex="1">
          <mxGeometry x="96" width="33" height="32" as="geometry">
            <mxRectangle width="33" height="32" as="alternateBounds" />
          </mxGeometry>
        </mxCell>
        <mxCell id="p1c2saggwYmDi9HayLSL-228" value="" style="shape=partialRectangle;html=1;whiteSpace=wrap;connectable=0;strokeColor=inherit;overflow=hidden;fillColor=none;top=0;left=0;bottom=0;right=0;pointerEvents=1;" parent="p1c2saggwYmDi9HayLSL-223" vertex="1">
          <mxGeometry x="129" width="31" height="32" as="geometry">
            <mxRectangle width="31" height="32" as="alternateBounds" />
          </mxGeometry>
        </mxCell>
        <mxCell id="p1c2saggwYmDi9HayLSL-229" value="" style="shape=partialRectangle;html=1;whiteSpace=wrap;connectable=0;strokeColor=inherit;overflow=hidden;fillColor=none;top=0;left=0;bottom=0;right=0;pointerEvents=1;" parent="p1c2saggwYmDi9HayLSL-223" vertex="1">
          <mxGeometry x="160" width="32" height="32" as="geometry">
            <mxRectangle width="32" height="32" as="alternateBounds" />
          </mxGeometry>
        </mxCell>
        <mxCell id="p1c2saggwYmDi9HayLSL-230" value="" style="shape=partialRectangle;html=1;whiteSpace=wrap;connectable=0;strokeColor=inherit;overflow=hidden;fillColor=none;top=0;left=0;bottom=0;right=0;pointerEvents=1;" parent="p1c2saggwYmDi9HayLSL-223" vertex="1">
          <mxGeometry x="192" width="32" height="32" as="geometry">
            <mxRectangle width="32" height="32" as="alternateBounds" />
          </mxGeometry>
        </mxCell>
        <mxCell id="p1c2saggwYmDi9HayLSL-231" value="" style="shape=partialRectangle;html=1;whiteSpace=wrap;connectable=0;strokeColor=inherit;overflow=hidden;fillColor=none;top=0;left=0;bottom=0;right=0;pointerEvents=1;" parent="p1c2saggwYmDi9HayLSL-223" vertex="1">
          <mxGeometry x="224" width="32" height="32" as="geometry">
            <mxRectangle width="32" height="32" as="alternateBounds" />
          </mxGeometry>
        </mxCell>
        <mxCell id="p1c2saggwYmDi9HayLSL-232" value="" style="shape=tableRow;horizontal=0;startSize=0;swimlaneHead=0;swimlaneBody=0;strokeColor=inherit;top=0;left=0;bottom=0;right=0;collapsible=0;dropTarget=0;fillColor=none;points=[[0,0.5],[1,0.5]];portConstraint=eastwest;" parent="p1c2saggwYmDi9HayLSL-195" vertex="1">
          <mxGeometry y="128" width="256" height="32" as="geometry" />
        </mxCell>
        <mxCell id="p1c2saggwYmDi9HayLSL-233" value="" style="shape=partialRectangle;html=1;whiteSpace=wrap;connectable=0;strokeColor=inherit;overflow=hidden;fillColor=none;top=0;left=0;bottom=0;right=0;pointerEvents=1;" parent="p1c2saggwYmDi9HayLSL-232" vertex="1">
          <mxGeometry width="32" height="32" as="geometry">
            <mxRectangle width="32" height="32" as="alternateBounds" />
          </mxGeometry>
        </mxCell>
        <mxCell id="p1c2saggwYmDi9HayLSL-234" value="" style="shape=partialRectangle;html=1;whiteSpace=wrap;connectable=0;strokeColor=inherit;overflow=hidden;fillColor=none;top=0;left=0;bottom=0;right=0;pointerEvents=1;" parent="p1c2saggwYmDi9HayLSL-232" vertex="1">
          <mxGeometry x="32" width="32" height="32" as="geometry">
            <mxRectangle width="32" height="32" as="alternateBounds" />
          </mxGeometry>
        </mxCell>
        <mxCell id="p1c2saggwYmDi9HayLSL-235" value="" style="shape=partialRectangle;html=1;whiteSpace=wrap;connectable=0;strokeColor=inherit;overflow=hidden;fillColor=none;top=0;left=0;bottom=0;right=0;pointerEvents=1;" parent="p1c2saggwYmDi9HayLSL-232" vertex="1">
          <mxGeometry x="64" width="32" height="32" as="geometry">
            <mxRectangle width="32" height="32" as="alternateBounds" />
          </mxGeometry>
        </mxCell>
        <mxCell id="p1c2saggwYmDi9HayLSL-236" value="" style="shape=partialRectangle;html=1;whiteSpace=wrap;connectable=0;strokeColor=inherit;overflow=hidden;fillColor=none;top=0;left=0;bottom=0;right=0;pointerEvents=1;" parent="p1c2saggwYmDi9HayLSL-232" vertex="1">
          <mxGeometry x="96" width="33" height="32" as="geometry">
            <mxRectangle width="33" height="32" as="alternateBounds" />
          </mxGeometry>
        </mxCell>
        <mxCell id="p1c2saggwYmDi9HayLSL-237" value="" style="shape=partialRectangle;html=1;whiteSpace=wrap;connectable=0;strokeColor=inherit;overflow=hidden;fillColor=none;top=0;left=0;bottom=0;right=0;pointerEvents=1;" parent="p1c2saggwYmDi9HayLSL-232" vertex="1">
          <mxGeometry x="129" width="31" height="32" as="geometry">
            <mxRectangle width="31" height="32" as="alternateBounds" />
          </mxGeometry>
        </mxCell>
        <mxCell id="p1c2saggwYmDi9HayLSL-238" value="" style="shape=partialRectangle;html=1;whiteSpace=wrap;connectable=0;strokeColor=inherit;overflow=hidden;fillColor=none;top=0;left=0;bottom=0;right=0;pointerEvents=1;" parent="p1c2saggwYmDi9HayLSL-232" vertex="1">
          <mxGeometry x="160" width="32" height="32" as="geometry">
            <mxRectangle width="32" height="32" as="alternateBounds" />
          </mxGeometry>
        </mxCell>
        <mxCell id="p1c2saggwYmDi9HayLSL-239" value="" style="shape=partialRectangle;html=1;whiteSpace=wrap;connectable=0;strokeColor=inherit;overflow=hidden;fillColor=none;top=0;left=0;bottom=0;right=0;pointerEvents=1;" parent="p1c2saggwYmDi9HayLSL-232" vertex="1">
          <mxGeometry x="192" width="32" height="32" as="geometry">
            <mxRectangle width="32" height="32" as="alternateBounds" />
          </mxGeometry>
        </mxCell>
        <mxCell id="p1c2saggwYmDi9HayLSL-240" value="" style="shape=partialRectangle;html=1;whiteSpace=wrap;connectable=0;strokeColor=inherit;overflow=hidden;fillColor=none;top=0;left=0;bottom=0;right=0;pointerEvents=1;" parent="p1c2saggwYmDi9HayLSL-232" vertex="1">
          <mxGeometry x="224" width="32" height="32" as="geometry">
            <mxRectangle width="32" height="32" as="alternateBounds" />
          </mxGeometry>
        </mxCell>
        <mxCell id="p1c2saggwYmDi9HayLSL-241" value="" style="shape=tableRow;horizontal=0;startSize=0;swimlaneHead=0;swimlaneBody=0;strokeColor=inherit;top=0;left=0;bottom=0;right=0;collapsible=0;dropTarget=0;fillColor=none;points=[[0,0.5],[1,0.5]];portConstraint=eastwest;" parent="p1c2saggwYmDi9HayLSL-195" vertex="1">
          <mxGeometry y="160" width="256" height="32" as="geometry" />
        </mxCell>
        <mxCell id="p1c2saggwYmDi9HayLSL-242" value="" style="shape=partialRectangle;html=1;whiteSpace=wrap;connectable=0;strokeColor=inherit;overflow=hidden;fillColor=none;top=0;left=0;bottom=0;right=0;pointerEvents=1;" parent="p1c2saggwYmDi9HayLSL-241" vertex="1">
          <mxGeometry width="32" height="32" as="geometry">
            <mxRectangle width="32" height="32" as="alternateBounds" />
          </mxGeometry>
        </mxCell>
        <mxCell id="p1c2saggwYmDi9HayLSL-243" value="" style="shape=partialRectangle;html=1;whiteSpace=wrap;connectable=0;strokeColor=inherit;overflow=hidden;fillColor=none;top=0;left=0;bottom=0;right=0;pointerEvents=1;" parent="p1c2saggwYmDi9HayLSL-241" vertex="1">
          <mxGeometry x="32" width="32" height="32" as="geometry">
            <mxRectangle width="32" height="32" as="alternateBounds" />
          </mxGeometry>
        </mxCell>
        <mxCell id="p1c2saggwYmDi9HayLSL-244" value="" style="shape=partialRectangle;html=1;whiteSpace=wrap;connectable=0;strokeColor=inherit;overflow=hidden;fillColor=none;top=0;left=0;bottom=0;right=0;pointerEvents=1;" parent="p1c2saggwYmDi9HayLSL-241" vertex="1">
          <mxGeometry x="64" width="32" height="32" as="geometry">
            <mxRectangle width="32" height="32" as="alternateBounds" />
          </mxGeometry>
        </mxCell>
        <mxCell id="p1c2saggwYmDi9HayLSL-245" value="" style="shape=partialRectangle;html=1;whiteSpace=wrap;connectable=0;strokeColor=inherit;overflow=hidden;fillColor=none;top=0;left=0;bottom=0;right=0;pointerEvents=1;" parent="p1c2saggwYmDi9HayLSL-241" vertex="1">
          <mxGeometry x="96" width="33" height="32" as="geometry">
            <mxRectangle width="33" height="32" as="alternateBounds" />
          </mxGeometry>
        </mxCell>
        <mxCell id="p1c2saggwYmDi9HayLSL-246" value="" style="shape=partialRectangle;html=1;whiteSpace=wrap;connectable=0;strokeColor=inherit;overflow=hidden;fillColor=none;top=0;left=0;bottom=0;right=0;pointerEvents=1;" parent="p1c2saggwYmDi9HayLSL-241" vertex="1">
          <mxGeometry x="129" width="31" height="32" as="geometry">
            <mxRectangle width="31" height="32" as="alternateBounds" />
          </mxGeometry>
        </mxCell>
        <mxCell id="p1c2saggwYmDi9HayLSL-247" value="" style="shape=partialRectangle;html=1;whiteSpace=wrap;connectable=0;strokeColor=inherit;overflow=hidden;fillColor=none;top=0;left=0;bottom=0;right=0;pointerEvents=1;" parent="p1c2saggwYmDi9HayLSL-241" vertex="1">
          <mxGeometry x="160" width="32" height="32" as="geometry">
            <mxRectangle width="32" height="32" as="alternateBounds" />
          </mxGeometry>
        </mxCell>
        <mxCell id="p1c2saggwYmDi9HayLSL-248" value="" style="shape=partialRectangle;html=1;whiteSpace=wrap;connectable=0;strokeColor=inherit;overflow=hidden;fillColor=none;top=0;left=0;bottom=0;right=0;pointerEvents=1;" parent="p1c2saggwYmDi9HayLSL-241" vertex="1">
          <mxGeometry x="192" width="32" height="32" as="geometry">
            <mxRectangle width="32" height="32" as="alternateBounds" />
          </mxGeometry>
        </mxCell>
        <mxCell id="p1c2saggwYmDi9HayLSL-249" value="" style="shape=partialRectangle;html=1;whiteSpace=wrap;connectable=0;strokeColor=inherit;overflow=hidden;fillColor=none;top=0;left=0;bottom=0;right=0;pointerEvents=1;" parent="p1c2saggwYmDi9HayLSL-241" vertex="1">
          <mxGeometry x="224" width="32" height="32" as="geometry">
            <mxRectangle width="32" height="32" as="alternateBounds" />
          </mxGeometry>
        </mxCell>
        <mxCell id="p1c2saggwYmDi9HayLSL-250" value="" style="shape=tableRow;horizontal=0;startSize=0;swimlaneHead=0;swimlaneBody=0;strokeColor=inherit;top=0;left=0;bottom=0;right=0;collapsible=0;dropTarget=0;fillColor=none;points=[[0,0.5],[1,0.5]];portConstraint=eastwest;" parent="p1c2saggwYmDi9HayLSL-195" vertex="1">
          <mxGeometry y="192" width="256" height="32" as="geometry" />
        </mxCell>
        <mxCell id="p1c2saggwYmDi9HayLSL-251" value="" style="shape=partialRectangle;html=1;whiteSpace=wrap;connectable=0;strokeColor=inherit;overflow=hidden;fillColor=none;top=0;left=0;bottom=0;right=0;pointerEvents=1;" parent="p1c2saggwYmDi9HayLSL-250" vertex="1">
          <mxGeometry width="32" height="32" as="geometry">
            <mxRectangle width="32" height="32" as="alternateBounds" />
          </mxGeometry>
        </mxCell>
        <mxCell id="p1c2saggwYmDi9HayLSL-252" value="" style="shape=partialRectangle;html=1;whiteSpace=wrap;connectable=0;strokeColor=inherit;overflow=hidden;fillColor=none;top=0;left=0;bottom=0;right=0;pointerEvents=1;" parent="p1c2saggwYmDi9HayLSL-250" vertex="1">
          <mxGeometry x="32" width="32" height="32" as="geometry">
            <mxRectangle width="32" height="32" as="alternateBounds" />
          </mxGeometry>
        </mxCell>
        <mxCell id="p1c2saggwYmDi9HayLSL-253" value="" style="shape=partialRectangle;html=1;whiteSpace=wrap;connectable=0;strokeColor=inherit;overflow=hidden;fillColor=none;top=0;left=0;bottom=0;right=0;pointerEvents=1;" parent="p1c2saggwYmDi9HayLSL-250" vertex="1">
          <mxGeometry x="64" width="32" height="32" as="geometry">
            <mxRectangle width="32" height="32" as="alternateBounds" />
          </mxGeometry>
        </mxCell>
        <mxCell id="p1c2saggwYmDi9HayLSL-254" value="" style="shape=partialRectangle;html=1;whiteSpace=wrap;connectable=0;strokeColor=inherit;overflow=hidden;fillColor=none;top=0;left=0;bottom=0;right=0;pointerEvents=1;" parent="p1c2saggwYmDi9HayLSL-250" vertex="1">
          <mxGeometry x="96" width="33" height="32" as="geometry">
            <mxRectangle width="33" height="32" as="alternateBounds" />
          </mxGeometry>
        </mxCell>
        <mxCell id="p1c2saggwYmDi9HayLSL-255" value="" style="shape=partialRectangle;html=1;whiteSpace=wrap;connectable=0;strokeColor=inherit;overflow=hidden;fillColor=none;top=0;left=0;bottom=0;right=0;pointerEvents=1;" parent="p1c2saggwYmDi9HayLSL-250" vertex="1">
          <mxGeometry x="129" width="31" height="32" as="geometry">
            <mxRectangle width="31" height="32" as="alternateBounds" />
          </mxGeometry>
        </mxCell>
        <mxCell id="p1c2saggwYmDi9HayLSL-256" value="" style="shape=partialRectangle;html=1;whiteSpace=wrap;connectable=0;strokeColor=inherit;overflow=hidden;fillColor=none;top=0;left=0;bottom=0;right=0;pointerEvents=1;" parent="p1c2saggwYmDi9HayLSL-250" vertex="1">
          <mxGeometry x="160" width="32" height="32" as="geometry">
            <mxRectangle width="32" height="32" as="alternateBounds" />
          </mxGeometry>
        </mxCell>
        <mxCell id="p1c2saggwYmDi9HayLSL-257" value="" style="shape=partialRectangle;html=1;whiteSpace=wrap;connectable=0;strokeColor=inherit;overflow=hidden;fillColor=none;top=0;left=0;bottom=0;right=0;pointerEvents=1;" parent="p1c2saggwYmDi9HayLSL-250" vertex="1">
          <mxGeometry x="192" width="32" height="32" as="geometry">
            <mxRectangle width="32" height="32" as="alternateBounds" />
          </mxGeometry>
        </mxCell>
        <mxCell id="p1c2saggwYmDi9HayLSL-258" value="" style="shape=partialRectangle;html=1;whiteSpace=wrap;connectable=0;strokeColor=inherit;overflow=hidden;fillColor=none;top=0;left=0;bottom=0;right=0;pointerEvents=1;" parent="p1c2saggwYmDi9HayLSL-250" vertex="1">
          <mxGeometry x="224" width="32" height="32" as="geometry">
            <mxRectangle width="32" height="32" as="alternateBounds" />
          </mxGeometry>
        </mxCell>
        <mxCell id="p1c2saggwYmDi9HayLSL-259" value="" style="shape=tableRow;horizontal=0;startSize=0;swimlaneHead=0;swimlaneBody=0;strokeColor=inherit;top=0;left=0;bottom=0;right=0;collapsible=0;dropTarget=0;fillColor=none;points=[[0,0.5],[1,0.5]];portConstraint=eastwest;" parent="p1c2saggwYmDi9HayLSL-195" vertex="1">
          <mxGeometry y="224" width="256" height="32" as="geometry" />
        </mxCell>
        <mxCell id="p1c2saggwYmDi9HayLSL-260" value="" style="shape=partialRectangle;html=1;whiteSpace=wrap;connectable=0;strokeColor=inherit;overflow=hidden;fillColor=none;top=0;left=0;bottom=0;right=0;pointerEvents=1;" parent="p1c2saggwYmDi9HayLSL-259" vertex="1">
          <mxGeometry width="32" height="32" as="geometry">
            <mxRectangle width="32" height="32" as="alternateBounds" />
          </mxGeometry>
        </mxCell>
        <mxCell id="p1c2saggwYmDi9HayLSL-261" value="" style="shape=partialRectangle;html=1;whiteSpace=wrap;connectable=0;strokeColor=inherit;overflow=hidden;fillColor=none;top=0;left=0;bottom=0;right=0;pointerEvents=1;" parent="p1c2saggwYmDi9HayLSL-259" vertex="1">
          <mxGeometry x="32" width="32" height="32" as="geometry">
            <mxRectangle width="32" height="32" as="alternateBounds" />
          </mxGeometry>
        </mxCell>
        <mxCell id="p1c2saggwYmDi9HayLSL-262" value="" style="shape=partialRectangle;html=1;whiteSpace=wrap;connectable=0;strokeColor=inherit;overflow=hidden;fillColor=none;top=0;left=0;bottom=0;right=0;pointerEvents=1;" parent="p1c2saggwYmDi9HayLSL-259" vertex="1">
          <mxGeometry x="64" width="32" height="32" as="geometry">
            <mxRectangle width="32" height="32" as="alternateBounds" />
          </mxGeometry>
        </mxCell>
        <mxCell id="p1c2saggwYmDi9HayLSL-263" value="" style="shape=partialRectangle;html=1;whiteSpace=wrap;connectable=0;strokeColor=inherit;overflow=hidden;fillColor=none;top=0;left=0;bottom=0;right=0;pointerEvents=1;" parent="p1c2saggwYmDi9HayLSL-259" vertex="1">
          <mxGeometry x="96" width="33" height="32" as="geometry">
            <mxRectangle width="33" height="32" as="alternateBounds" />
          </mxGeometry>
        </mxCell>
        <mxCell id="p1c2saggwYmDi9HayLSL-264" value="" style="shape=partialRectangle;html=1;whiteSpace=wrap;connectable=0;strokeColor=inherit;overflow=hidden;fillColor=none;top=0;left=0;bottom=0;right=0;pointerEvents=1;" parent="p1c2saggwYmDi9HayLSL-259" vertex="1">
          <mxGeometry x="129" width="31" height="32" as="geometry">
            <mxRectangle width="31" height="32" as="alternateBounds" />
          </mxGeometry>
        </mxCell>
        <mxCell id="p1c2saggwYmDi9HayLSL-265" value="" style="shape=partialRectangle;html=1;whiteSpace=wrap;connectable=0;strokeColor=inherit;overflow=hidden;fillColor=none;top=0;left=0;bottom=0;right=0;pointerEvents=1;" parent="p1c2saggwYmDi9HayLSL-259" vertex="1">
          <mxGeometry x="160" width="32" height="32" as="geometry">
            <mxRectangle width="32" height="32" as="alternateBounds" />
          </mxGeometry>
        </mxCell>
        <mxCell id="p1c2saggwYmDi9HayLSL-266" value="" style="shape=partialRectangle;html=1;whiteSpace=wrap;connectable=0;strokeColor=inherit;overflow=hidden;fillColor=none;top=0;left=0;bottom=0;right=0;pointerEvents=1;" parent="p1c2saggwYmDi9HayLSL-259" vertex="1">
          <mxGeometry x="192" width="32" height="32" as="geometry">
            <mxRectangle width="32" height="32" as="alternateBounds" />
          </mxGeometry>
        </mxCell>
        <mxCell id="p1c2saggwYmDi9HayLSL-267" value="" style="shape=partialRectangle;html=1;whiteSpace=wrap;connectable=0;strokeColor=inherit;overflow=hidden;fillColor=none;top=0;left=0;bottom=0;right=0;pointerEvents=1;" parent="p1c2saggwYmDi9HayLSL-259" vertex="1">
          <mxGeometry x="224" width="32" height="32" as="geometry">
            <mxRectangle width="32" height="32" as="alternateBounds" />
          </mxGeometry>
        </mxCell>
        <mxCell id="p1c2saggwYmDi9HayLSL-268" value="1" style="text;html=1;strokeColor=none;fillColor=none;align=center;verticalAlign=middle;whiteSpace=wrap;rounded=0;fontColor=#FFFFFF;fontSize=14;" parent="1" vertex="1">
          <mxGeometry x="110" y="1010" width="30" height="30" as="geometry" />
        </mxCell>
        <mxCell id="p1c2saggwYmDi9HayLSL-269" value="2" style="text;html=1;strokeColor=none;fillColor=none;align=center;verticalAlign=middle;whiteSpace=wrap;rounded=0;fontColor=#FFFFFF;fontSize=14;" parent="1" vertex="1">
          <mxGeometry x="145" y="1010" width="30" height="30" as="geometry" />
        </mxCell>
        <mxCell id="p1c2saggwYmDi9HayLSL-270" value="3" style="text;html=1;strokeColor=none;fillColor=none;align=center;verticalAlign=middle;whiteSpace=wrap;rounded=0;fontColor=#FFFFFF;fontSize=14;" parent="1" vertex="1">
          <mxGeometry x="175" y="1010" width="30" height="30" as="geometry" />
        </mxCell>
        <mxCell id="p1c2saggwYmDi9HayLSL-272" value="4" style="text;html=1;strokeColor=none;fillColor=none;align=center;verticalAlign=middle;whiteSpace=wrap;rounded=0;fontColor=#FFFFFF;fontSize=14;" parent="1" vertex="1">
          <mxGeometry x="207" y="1009" width="30" height="30" as="geometry" />
        </mxCell>
        <mxCell id="p1c2saggwYmDi9HayLSL-273" value="5" style="text;html=1;strokeColor=none;fillColor=none;align=center;verticalAlign=middle;whiteSpace=wrap;rounded=0;fontColor=#FFFFFF;fontSize=14;" parent="1" vertex="1">
          <mxGeometry x="237" y="1009" width="30" height="30" as="geometry" />
        </mxCell>
        <mxCell id="p1c2saggwYmDi9HayLSL-274" value="6" style="text;html=1;strokeColor=none;fillColor=none;align=center;verticalAlign=middle;whiteSpace=wrap;rounded=0;fontColor=#FFFFFF;fontSize=14;" parent="1" vertex="1">
          <mxGeometry x="272" y="1009" width="30" height="30" as="geometry" />
        </mxCell>
        <mxCell id="p1c2saggwYmDi9HayLSL-275" value="7" style="text;html=1;strokeColor=none;fillColor=none;align=center;verticalAlign=middle;whiteSpace=wrap;rounded=0;fontColor=#FFFFFF;fontSize=14;" parent="1" vertex="1">
          <mxGeometry x="302" y="1009" width="30" height="30" as="geometry" />
        </mxCell>
        <mxCell id="p1c2saggwYmDi9HayLSL-276" value="0" style="text;html=1;strokeColor=none;fillColor=none;align=center;verticalAlign=middle;whiteSpace=wrap;rounded=0;fontColor=#FFFFFF;fontSize=14;" parent="1" vertex="1">
          <mxGeometry x="50" y="1040" width="30" height="30" as="geometry" />
        </mxCell>
        <mxCell id="p1c2saggwYmDi9HayLSL-277" value="1" style="text;html=1;strokeColor=none;fillColor=none;align=center;verticalAlign=middle;whiteSpace=wrap;rounded=0;fontColor=#FFFFFF;fontSize=14;" parent="1" vertex="1">
          <mxGeometry x="49" y="1070" width="30" height="30" as="geometry" />
        </mxCell>
        <mxCell id="p1c2saggwYmDi9HayLSL-278" value="2" style="text;html=1;strokeColor=none;fillColor=none;align=center;verticalAlign=middle;whiteSpace=wrap;rounded=0;fontColor=#FFFFFF;fontSize=14;" parent="1" vertex="1">
          <mxGeometry x="49" y="1104" width="30" height="30" as="geometry" />
        </mxCell>
        <mxCell id="p1c2saggwYmDi9HayLSL-279" value="3" style="text;html=1;strokeColor=none;fillColor=none;align=center;verticalAlign=middle;whiteSpace=wrap;rounded=0;fontColor=#FFFFFF;fontSize=14;" parent="1" vertex="1">
          <mxGeometry x="49" y="1134" width="30" height="30" as="geometry" />
        </mxCell>
        <mxCell id="p1c2saggwYmDi9HayLSL-280" value="4" style="text;html=1;strokeColor=none;fillColor=none;align=center;verticalAlign=middle;whiteSpace=wrap;rounded=0;fontColor=#FFFFFF;fontSize=14;" parent="1" vertex="1">
          <mxGeometry x="49" y="1168" width="30" height="30" as="geometry" />
        </mxCell>
        <mxCell id="p1c2saggwYmDi9HayLSL-281" value="5" style="text;html=1;strokeColor=none;fillColor=none;align=center;verticalAlign=middle;whiteSpace=wrap;rounded=0;fontColor=#FFFFFF;fontSize=14;" parent="1" vertex="1">
          <mxGeometry x="50" y="1202" width="30" height="30" as="geometry" />
        </mxCell>
        <mxCell id="p1c2saggwYmDi9HayLSL-282" value="6" style="text;html=1;strokeColor=none;fillColor=none;align=center;verticalAlign=middle;whiteSpace=wrap;rounded=0;fontColor=#FFFFFF;fontSize=14;" parent="1" vertex="1">
          <mxGeometry x="50" y="1231" width="30" height="30" as="geometry" />
        </mxCell>
        <mxCell id="p1c2saggwYmDi9HayLSL-283" value="7" style="text;html=1;strokeColor=none;fillColor=none;align=center;verticalAlign=middle;whiteSpace=wrap;rounded=0;fontColor=#FFFFFF;fontSize=14;" parent="1" vertex="1">
          <mxGeometry x="49" y="1266" width="30" height="30" as="geometry" />
        </mxCell>
        <mxCell id="p1c2saggwYmDi9HayLSL-286" value="&lt;div&gt;x_idx=11&lt;/div&gt;&lt;div&gt;y_idx=9&lt;/div&gt;&lt;div&gt;&lt;br&gt;&lt;/div&gt;&lt;div&gt;tile&amp;nbsp; &lt;b style=&quot;font-size: 13px;&quot;&gt;&lt;font style=&quot;font-size: 13px;&quot;&gt;( 4, 1 )&lt;/font&gt;&lt;/b&gt;&lt;/div&gt;" style="rounded=1;whiteSpace=wrap;html=1;absoluteArcSize=1;arcSize=14;strokeWidth=1;fontSize=13;fillColor=#E6E6E6;strokeColor=none;fontColor=#000000;" parent="1" vertex="1">
          <mxGeometry x="490" y="1130" width="120" height="80" as="geometry" />
        </mxCell>
        <mxCell id="p1c2saggwYmDi9HayLSL-289" value="" style="endArrow=none;dashed=1;html=1;rounded=0;strokeColor=#FFFFFF;entryX=0.5;entryY=1;entryDx=0;entryDy=0;exitX=0.454;exitY=0;exitDx=0;exitDy=0;exitPerimeter=0;" parent="1" source="p1c2saggwYmDi9HayLSL-286" target="p1c2saggwYmDi9HayLSL-102" edge="1">
          <mxGeometry width="50" height="50" relative="1" as="geometry">
            <mxPoint x="820" y="1059" as="sourcePoint" />
            <mxPoint x="840" y="649" as="targetPoint" />
          </mxGeometry>
        </mxCell>
        <mxCell id="p1c2saggwYmDi9HayLSL-290" value="tilemap 0" style="rounded=1;whiteSpace=wrap;html=1;absoluteArcSize=1;arcSize=14;strokeWidth=1;fontSize=14;fillColor=#454747;strokeColor=none;fontColor=#FFFFFF;" parent="1" vertex="1">
          <mxGeometry x="440.5" y="960" width="130.5" height="30" as="geometry" />
        </mxCell>
        <mxCell id="p1c2saggwYmDi9HayLSL-291" value="" style="whiteSpace=wrap;html=1;aspect=fixed;fillColor=none;strokeColor=#FFFFFF;strokeWidth=3;" parent="1" vertex="1">
          <mxGeometry x="662" y="1166" width="36" height="36" as="geometry" />
        </mxCell>
        <mxCell id="p1c2saggwYmDi9HayLSL-292" value="x_idx=15&lt;div&gt;y_idx=12&lt;/div&gt;&lt;div&gt;tile&amp;nbsp; &lt;b style=&quot;font-size: 13px;&quot;&gt;&lt;font style=&quot;font-size: 13px;&quot;&gt;( 1, 0 )&lt;/font&gt;&lt;/b&gt;&lt;/div&gt;" style="rounded=1;whiteSpace=wrap;html=1;absoluteArcSize=1;arcSize=14;strokeWidth=1;fontSize=13;fillColor=#E6E6E6;strokeColor=none;fontColor=#000000;" parent="1" vertex="1">
          <mxGeometry x="730" y="1190" width="110" height="70" as="geometry" />
        </mxCell>
        <mxCell id="p1c2saggwYmDi9HayLSL-293" value="" style="endArrow=none;dashed=1;html=1;rounded=0;strokeColor=#FFFFFF;entryX=1;entryY=0.5;entryDx=0;entryDy=0;exitX=0;exitY=0.5;exitDx=0;exitDy=0;" parent="1" source="p1c2saggwYmDi9HayLSL-292" target="p1c2saggwYmDi9HayLSL-291" edge="1">
          <mxGeometry width="50" height="50" relative="1" as="geometry">
            <mxPoint x="534" y="1148" as="sourcePoint" />
            <mxPoint x="554" y="1114" as="targetPoint" />
          </mxGeometry>
        </mxCell>
        <mxCell id="p1c2saggwYmDi9HayLSL-379" value="11" style="text;html=1;strokeColor=none;fillColor=none;align=center;verticalAlign=middle;whiteSpace=wrap;rounded=0;fontColor=#FFCCFF;fontSize=14;" parent="1" vertex="1">
          <mxGeometry x="537" y="1009" width="30" height="30" as="geometry" />
        </mxCell>
        <mxCell id="p1c2saggwYmDi9HayLSL-383" value="15" style="text;html=1;strokeColor=none;fillColor=none;align=center;verticalAlign=middle;whiteSpace=wrap;rounded=0;fontColor=#FFCCFF;fontSize=14;" parent="1" vertex="1">
          <mxGeometry x="664" y="1008" width="30" height="30" as="geometry" />
        </mxCell>
        <mxCell id="p1c2saggwYmDi9HayLSL-385" value="9" style="text;html=1;strokeColor=none;fillColor=none;align=center;verticalAlign=middle;whiteSpace=wrap;rounded=0;fontColor=#FFCCFF;fontSize=14;" parent="1" vertex="1">
          <mxGeometry x="409" y="1070" width="30" height="30" as="geometry" />
        </mxCell>
        <mxCell id="p1c2saggwYmDi9HayLSL-388" value="12" style="text;html=1;strokeColor=none;fillColor=none;align=center;verticalAlign=middle;whiteSpace=wrap;rounded=0;fontColor=#FFCCFF;fontSize=14;" parent="1" vertex="1">
          <mxGeometry x="409" y="1168" width="30" height="30" as="geometry" />
        </mxCell>
        <mxCell id="p1c2saggwYmDi9HayLSL-392" value="x_idx = x // 8&lt;div&gt;y_idx = y // 8&lt;br&gt;&lt;/div&gt;&lt;div&gt;tile = pyxel.tilemap(0).pget(x_idx, y_idx)&lt;/div&gt;" style="rounded=1;whiteSpace=wrap;html=1;absoluteArcSize=1;arcSize=14;strokeWidth=1;fontSize=13;fillColor=#E6E6E6;strokeColor=none;fontColor=#000000;align=left;spacingLeft=11;" parent="1" vertex="1">
          <mxGeometry x="724" y="1079" width="266" height="80" as="geometry" />
        </mxCell>
        <mxCell id="p1c2saggwYmDi9HayLSL-288" value="" style="endArrow=none;html=1;rounded=0;strokeColor=#000000;strokeWidth=2;entryX=0;entryY=0.25;entryDx=0;entryDy=0;startArrow=classic;startFill=1;endFill=0;" parent="1" target="p1c2saggwYmDi9HayLSL-393" edge="1">
          <mxGeometry width="50" height="50" relative="1" as="geometry">
            <mxPoint x="223" y="1089" as="sourcePoint" />
            <mxPoint x="504" y="1175" as="targetPoint" />
          </mxGeometry>
        </mxCell>
        <mxCell id="p1c2saggwYmDi9HayLSL-393" value="" style="rounded=1;whiteSpace=wrap;html=1;strokeColor=#4D4D4D;strokeWidth=2;fillColor=none;" parent="1" vertex="1">
          <mxGeometry x="540" y="1180" width="50" height="28" as="geometry" />
        </mxCell>
        <mxCell id="_B3Qwy9VvxJ0sC0I_COQ-46" value="&lt;font style=&quot;font-size: 17px;&quot; color=&quot;#000000&quot;&gt;w&lt;/font&gt;&lt;span style=&quot;font-size: 17px;&quot;&gt;&lt;/span&gt;" style="text;fontStyle=0;html=1;strokeColor=none;gradientColor=none;fillColor=none;strokeWidth=2;fontColor=#FFD966;fontSize=17;align=center;labelBackgroundColor=#FFFFFF;" vertex="1" parent="1">
          <mxGeometry x="680" y="202" width="30" height="26" as="geometry" />
        </mxCell>
        <mxCell id="_B3Qwy9VvxJ0sC0I_COQ-47" value="&lt;div style=&quot;font-size: 17px;&quot;&gt;&lt;font style=&quot;background-color: rgb(255, 255, 255); font-size: 17px;&quot; color=&quot;#000000&quot;&gt;h&lt;/font&gt;&lt;/div&gt;&lt;div style=&quot;font-size: 17px;&quot;&gt;&lt;br style=&quot;font-size: 17px;&quot;&gt;&lt;/div&gt;" style="text;fontStyle=1;html=1;strokeColor=none;gradientColor=none;fillColor=none;strokeWidth=2;fontColor=#FFD966;fontSize=17;" vertex="1" parent="1">
          <mxGeometry x="659.25" y="237.75" width="18.75" height="26" as="geometry" />
        </mxCell>
        <mxCell id="p1c2saggwYmDi9HayLSL-76" value="" style="endArrow=classic;html=1;rounded=0;entryX=-0.001;entryY=0.882;entryDx=0;entryDy=0;entryPerimeter=0;strokeColor=#FFFFFF;strokeWidth=3;exitX=1;exitY=0.5;exitDx=0;exitDy=0;" parent="1" source="p1c2saggwYmDi9HayLSL-75" target="p1c2saggwYmDi9HayLSL-72" edge="1">
          <mxGeometry width="50" height="50" relative="1" as="geometry">
            <mxPoint x="678" y="231" as="sourcePoint" />
            <mxPoint x="980" y="370" as="targetPoint" />
          </mxGeometry>
        </mxCell>
        <mxCell id="_B3Qwy9VvxJ0sC0I_COQ-54" value="e.g.&amp;nbsp; pyxel.blt( 0, 112, 0, 8, 16,&amp;nbsp; 8, 8, 2 )" style="text;html=1;strokeColor=none;fillColor=none;align=left;verticalAlign=middle;whiteSpace=wrap;rounded=0;" vertex="1" parent="1">
          <mxGeometry x="950" y="413" width="251.5" height="30" as="geometry" />
        </mxCell>
        <mxCell id="_B3Qwy9VvxJ0sC0I_COQ-55" value="&lt;font style=&quot;font-size: 17px;&quot; color=&quot;#ffffff&quot;&gt;(&lt;/font&gt;&lt;font style=&quot;font-size: 17px;&quot; color=&quot;#3333ff&quot;&gt;u&lt;/font&gt;&lt;font style=&quot;font-size: 17px;&quot; color=&quot;#ffffff&quot;&gt;,&lt;/font&gt;&lt;font style=&quot;font-size: 17px;&quot; color=&quot;#ff99ff&quot;&gt;v&lt;/font&gt;&lt;font style=&quot;font-size: 17px;&quot; color=&quot;#ffffff&quot;&gt;)&lt;/font&gt;" style="text;fontStyle=1;html=1;strokeColor=none;gradientColor=none;fillColor=none;strokeWidth=2;fontColor=#FFD966;fontSize=17;" vertex="1" parent="1">
          <mxGeometry x="625.63" y="588.13" width="48" height="26" as="geometry" />
        </mxCell>
        <mxCell id="_B3Qwy9VvxJ0sC0I_COQ-56" value="&lt;font style=&quot;background-color: rgb(255, 255, 255); font-size: 17px;&quot; color=&quot;#000000&quot;&gt;w&lt;/font&gt;" style="text;fontStyle=0;html=1;strokeColor=none;gradientColor=none;fillColor=none;strokeWidth=2;fontColor=#FFD966;fontSize=17;align=center;" vertex="1" parent="1">
          <mxGeometry x="705" y="588" width="19" height="26" as="geometry" />
        </mxCell>
        <mxCell id="_B3Qwy9VvxJ0sC0I_COQ-57" value="&lt;div style=&quot;font-size: 17px;&quot;&gt;&lt;font style=&quot;background-color: rgb(255, 255, 255); font-size: 17px;&quot; color=&quot;#000000&quot;&gt;h&lt;/font&gt;&lt;/div&gt;&lt;div style=&quot;font-size: 17px;&quot;&gt;&lt;br style=&quot;font-size: 17px;&quot;&gt;&lt;/div&gt;" style="text;fontStyle=1;html=1;strokeColor=none;gradientColor=none;fillColor=none;strokeWidth=2;fontColor=#FFD966;fontSize=17;" vertex="1" parent="1">
          <mxGeometry x="631" y="663" width="18.75" height="26" as="geometry" />
        </mxCell>
        <mxCell id="p1c2saggwYmDi9HayLSL-95" value="" style="endArrow=classic;html=1;rounded=0;exitX=0.997;exitY=0.551;exitDx=0;exitDy=0;strokeColor=#FFFFFF;strokeWidth=3;exitPerimeter=0;" parent="1" source="p1c2saggwYmDi9HayLSL-92" edge="1">
          <mxGeometry width="50" height="50" relative="1" as="geometry">
            <mxPoint x="800" y="500" as="sourcePoint" />
            <mxPoint x="1080" y="540" as="targetPoint" />
          </mxGeometry>
        </mxCell>
        <mxCell id="p1c2saggwYmDi9HayLSL-92" value="" style="whiteSpace=wrap;html=1;fillColor=none;strokeColor=#FFFFFF;strokeWidth=3;" parent="1" vertex="1">
          <mxGeometry x="650" y="620" width="130" height="127" as="geometry" />
        </mxCell>
        <mxCell id="_B3Qwy9VvxJ0sC0I_COQ-53" value="pyxel.bltm( 0, 0, 0, 0, 0, 128, 128, 2 )" style="text;html=1;strokeColor=none;fillColor=none;align=left;verticalAlign=middle;whiteSpace=wrap;rounded=0;" vertex="1" parent="1">
          <mxGeometry x="810" y="550" width="210" height="30" as="geometry" />
        </mxCell>
        <mxCell id="_B3Qwy9VvxJ0sC0I_COQ-59" value="pyxel.bltm( 0, 0, 0, 0, 128, 128, 128 )" style="text;html=1;strokeColor=none;fillColor=none;align=left;verticalAlign=middle;whiteSpace=wrap;rounded=0;fontColor=#FFFFFF;" vertex="1" parent="1">
          <mxGeometry x="1030" y="580" width="251.5" height="30" as="geometry" />
        </mxCell>
      </root>
    </mxGraphModel>
  </diagram>
</mxfile>
